<svg xmlns="http://www.w3.org/2000/svg" width="900" height="900" viewBox="0 0 900 900" version="1.1"><path d="M 403 1.393 C 403 3.567, 405.408 3.984, 411.906 2.938 C 423.010 1.149, 423.309 0.132, 412.750 0.063 C 405.052 0.013, 403 0.293, 403 1.393 M 479.035 0.960 C 480.895 2.049, 492.807 3.699, 495.250 3.206 C 496.212 3.012, 497 2.211, 497 1.427 C 497 0.287, 495.041 0.006, 487.250 0.030 C 480.995 0.050, 478.050 0.383, 479.035 0.960 M 426 17.013 C 363.853 22.812, 308.534 44.593, 256.986 83.561 C 237.696 98.144, 214.794 119.907, 198.120 139.500 C 192.450 146.163, 175.039 169.002, 170.295 176 C 164.985 183.832, 156 197.877, 156 198.345 C 156 198.593, 154.183 201.786, 151.962 205.442 C 143.080 220.062, 131.025 245.846, 121.544 270.500 C 81.158 375.519, 78.373 499.939, 113.990 608 C 127.394 648.669, 142.123 679.631, 166.500 718.377 C 176.759 734.684, 197.556 760.786, 215.500 779.875 C 227.259 792.384, 256.516 816.909, 272.500 827.655 C 314.727 856.044, 357.684 873.047, 406 880.493 C 473.884 890.956, 547.679 875.942, 609 839.190 C 622.624 831.025, 636.061 822.065, 640 818.518 C 641.375 817.281, 643.244 815.870, 644.153 815.384 C 646.726 814.008, 669.653 794.017, 678.030 785.845 C 717.491 747.351, 753.179 693.191, 774.132 640 C 776.841 633.125, 779.652 626.150, 780.380 624.500 C 781.715 621.474, 788.371 600.438, 792.088 587.500 C 793.194 583.650, 794.489 579.150, 794.965 577.500 C 795.884 574.314, 801.458 547.900, 802.983 539.500 C 804.009 533.853, 806.669 515.804, 807.479 509 C 808.906 497.014, 810.985 462.023, 810.985 450 C 810.985 437.757, 808.852 402.168, 807.449 391 C 804.369 366.472, 799.775 341.159, 795.472 325 C 785.217 286.488, 776.636 262.849, 761.891 232.500 C 742.730 193.060, 723.634 164.502, 694.089 131.100 C 680.903 116.194, 675.329 110.820, 656 94.384 C 612.493 57.386, 561.826 32.471, 509 22.098 C 483.824 17.154, 448.010 14.960, 426 17.013 M 425 30.643 C 423.625 30.848, 417.100 31.729, 410.500 32.602 C 398.933 34.133, 379.713 37.902, 373.500 39.859 C 371.850 40.378, 367.125 41.819, 363 43.061 C 344.506 48.627, 315.714 61.309, 299.500 71.029 C 280.190 82.606, 259.809 97.406, 245.570 110.194 C 207.614 144.281, 178.085 182.761, 154.015 229.500 C 148.599 240.019, 135.981 268.750, 134.473 274 C 134.078 275.375, 133.428 276.950, 133.028 277.500 C 131.234 279.968, 118.099 322.420, 116.031 332.438 C 107.570 373.405, 105.469 387.675, 102.999 420.950 C 100.298 457.318, 103.272 502.350, 111.125 544 C 121.816 600.705, 142.270 653.928, 171.846 702 C 178.928 713.510, 187.363 725.526, 198.397 739.821 C 204.095 747.203, 208.286 752.046, 223.500 768.831 C 228.545 774.396, 256.073 799.283, 262.598 804.176 C 270.049 809.765, 291.625 824.252, 299.500 828.954 C 307.414 833.680, 332.401 846.048, 339.087 848.548 C 368.927 859.708, 387.607 864.508, 415 868.055 C 436.359 870.821, 471.918 870.424, 492.500 867.189 C 517.418 863.273, 542.412 856.182, 564.500 846.761 C 576.726 841.546, 597.079 831.370, 601.857 828.083 C 603.311 827.083, 608.325 823.881, 613 820.968 C 637.502 805.698, 660.399 785.931, 686.036 757.920 C 714.231 727.113, 740.082 686.320, 758.194 644.058 C 768.740 619.448, 778.875 589.193, 783.421 568.748 C 784.185 565.312, 785.709 558.450, 786.808 553.500 C 792.999 525.601, 797.985 479.212, 797.986 449.500 C 797.987 431.602, 795.421 398.736, 792.404 378 C 786.009 334.043, 774.866 294.435, 757.877 255.271 C 735.992 204.819, 707.347 162.409, 670 125.163 C 615.018 70.330, 550.977 38.973, 477.789 31.051 C 468.833 30.082, 430.765 29.788, 425 30.643 M 285.067 120.874 C 283.231 124.306, 283.789 143.016, 286.012 152.553 C 293.633 185.236, 316.787 234.474, 343.592 275 C 347.103 280.309, 349.705 286.833, 351.026 293.641 C 353.329 305.510, 348.893 321.099, 338.326 338.279 C 330.082 351.680, 328.139 355.798, 326.916 362.458 C 325.548 369.906, 326.486 377.782, 329.572 384.760 C 331.562 389.258, 332.328 390.092, 334.227 389.823 C 336.299 389.528, 336.550 388.837, 337.071 382 C 337.866 371.546, 340.469 366.324, 353.670 348.691 C 359.925 340.336, 366.603 330.285, 368.509 326.355 C 380.003 302.657, 376.184 279.499, 356.494 253.500 C 327.681 215.456, 307.900 177.069, 292.854 130.007 C 289.390 119.170, 287.295 116.712, 285.067 120.874 M 613.238 120.213 C 612.646 120.927, 611.857 122.859, 611.487 124.506 C 610.362 129.504, 604.086 147.815, 599.322 160 C 590.881 181.588, 578.529 205.732, 565.557 226 C 559.910 234.823, 556.760 239.321, 542.551 258.852 C 533.054 271.906, 529.141 282.509, 528.287 297.498 C 527.352 313.939, 532.213 325.957, 548.512 347.500 C 561.852 365.132, 565.150 371.657, 565.794 381.693 C 566.124 386.831, 566.712 389.336, 567.674 389.705 C 571.785 391.283, 576.433 380.285, 576.425 369 C 576.418 359.804, 574.501 354.349, 567.464 343.500 C 554.802 323.979, 550.253 309.177, 552.128 293.600 C 553.117 285.382, 558.116 275.407, 569.967 258 C 572.393 254.437, 585.807 230.145, 591.226 219.500 C 601.910 198.513, 606.825 186.246, 615.462 159 C 618.523 149.343, 619.882 130.725, 618.124 122.512 C 617.433 119.282, 614.972 118.124, 613.238 120.213 M 437.907 148.750 C 436.195 152.463, 434.159 157.975, 433.381 161 C 431.456 168.493, 428 192.361, 428 198.162 C 428 200.758, 427.600 203.129, 427.112 203.431 C 426.623 203.733, 422.311 200.799, 417.529 196.910 C 407.337 188.623, 399.145 183.630, 391.319 180.938 C 385.102 178.799, 381.440 178.479, 380.505 179.992 C 379.598 181.459, 380.778 183.106, 388.515 191.182 C 392.372 195.207, 399.796 203.225, 405.014 209 C 416.442 221.649, 416.381 221.594, 421.915 224.178 C 431.227 228.526, 441.695 223.885, 444.750 214.054 C 445.647 211.169, 446 200.416, 446 176.016 L 446 142 443.510 142 C 441.410 142, 440.532 143.057, 437.907 148.750 M 456.667 142.667 C 456.300 143.033, 456 158.028, 456 175.989 C 456 212.905, 456.317 214.974, 462.973 221.474 C 466.146 224.572, 467.781 225.369, 471.753 225.750 C 478.972 226.444, 484.797 223.073, 494 212.879 C 498.125 208.309, 506.337 199.517, 512.250 193.341 C 518.163 187.165, 523 181.623, 523 181.025 C 523 177.951, 514.963 179.093, 505.111 183.569 C 498.973 186.357, 487.527 194.421, 481.254 200.377 C 478.653 202.847, 476.669 204.039, 476.132 203.454 C 475.649 202.929, 474.731 197.087, 474.090 190.472 C 472.143 170.385, 467.952 153.533, 462.842 145.250 C 460.982 142.235, 458.244 141.089, 456.667 142.667 M 266.607 153.582 C 265.381 156.777, 266.030 183.639, 267.548 192.500 C 271.372 214.831, 276.314 234.239, 282.918 252.866 C 288.609 268.916, 292.976 278.388, 303.546 297.613 C 306.769 303.474, 316.999 318.881, 318.133 319.582 C 319.983 320.725, 323.847 317.012, 326.543 311.503 C 328.893 306.698, 329.197 305.076, 328.752 299.716 C 328.288 294.120, 327.511 292.352, 320.967 282 C 312.828 269.123, 300.042 244.643, 295.114 232.500 C 293.328 228.100, 291.232 223.150, 290.456 221.500 C 289.306 219.054, 280.731 192.855, 277.036 180.500 C 276.261 177.906, 272.594 160.905, 271.374 154.250 C 270.894 151.630, 267.537 151.159, 266.607 153.582 M 631.543 154.250 C 631.271 155.488, 630.349 160.034, 629.494 164.353 C 624.489 189.648, 613.994 220.385, 601.276 247 C 597.094 255.752, 584.877 277.714, 580.973 283.500 C 574.053 293.755, 572.398 301.058, 575.172 309.101 C 576.569 313.151, 581.834 320, 583.550 320 C 584.533 320, 591.851 309.603, 598.709 298.464 C 615.358 271.423, 630.864 226.310, 635.511 191.398 C 637.199 178.713, 637.465 156.738, 635.965 153.934 C 634.564 151.317, 632.150 151.490, 631.543 154.250 M 254.061 206.250 C 253.394 209.688, 252.321 214.750, 251.676 217.500 C 249.882 225.146, 250.291 254.511, 252.364 267 C 257.454 297.654, 269.774 330.106, 284.719 352.223 C 286.103 354.271, 287.009 356.535, 286.733 357.254 C 286.456 357.974, 283.816 359.147, 280.865 359.862 C 271.658 362.091, 256.564 367.178, 255.113 368.542 C 251.323 372.104, 257.751 374.756, 276.947 377.549 C 290.129 379.468, 296.934 379.171, 302.521 376.436 C 308.621 373.449, 311 369.079, 311 360.863 C 311 352.356, 309.070 347.121, 301.832 336 C 290.595 318.733, 285.792 309.734, 279.143 293.486 C 269.101 268.949, 261.983 240.271, 259.912 216 C 258.706 201.872, 258.320 200, 256.618 200 C 255.765 200, 254.830 202.284, 254.061 206.250 M 644 204.776 C 644 215.796, 640.114 240.731, 635.862 257 C 627.789 287.884, 617.013 312.004, 598.873 339.792 C 593.201 348.481, 592.013 352.167, 592.006 361.102 C 591.999 368.762, 594.239 373.060, 600.003 376.446 C 605.940 379.933, 626.136 378.918, 642.816 374.294 C 648.301 372.773, 650.028 370.944, 648.134 368.662 C 647.162 367.490, 635.460 363.543, 621.500 359.677 C 615.829 358.107, 614.726 356.020, 617.791 352.661 C 620.227 349.992, 626.357 339.130, 631.426 328.500 C 643.991 302.150, 651.319 273.149, 652.635 244.550 C 653.131 233.780, 652.855 229.229, 651.056 218.500 C 648.621 203.976, 647.401 200, 645.379 200 C 644.400 200, 644 201.384, 644 204.776 M 428.465 317.473 C 424.236 318.810, 417.257 322.294, 410.500 326.441 C 402.986 331.053, 390.295 337.945, 385.645 339.938 C 380.362 342.202, 379.715 344.387, 382.974 348.964 C 389.636 358.320, 408.044 354.571, 430.960 339.191 C 447.563 328.049, 449.699 322.937, 439.764 318.128 C 434.812 315.730, 434.108 315.690, 428.465 317.473 M 463.001 317.091 C 459.119 318.689, 456 322.107, 456 324.761 C 456 327.458, 465.351 337.117, 470.483 339.720 C 472.142 340.562, 475.982 342.768, 479.015 344.622 C 488.418 350.371, 499.193 354, 506.861 354 C 513.364 354, 513.724 353.867, 517.382 350.120 C 522.905 344.465, 522.228 342.354, 513.786 338.901 C 510.093 337.390, 502.575 333.406, 497.078 330.048 C 478.739 318.842, 468.345 314.890, 463.001 317.091 M 430.304 357.067 C 403.243 371.170, 381.185 372.776, 368.568 361.561 C 366.955 360.127, 365.155 359.100, 364.568 359.277 C 362.485 359.907, 359 368.398, 359 372.843 C 359 376.714, 359.528 377.787, 363.250 381.483 C 369.970 388.156, 378.175 390.512, 394.500 390.454 C 406.783 390.411, 407.954 390.228, 415.727 387.141 C 423.761 383.949, 434.812 377.217, 440.177 372.246 C 443.777 368.911, 447.224 360.743, 446.407 357.486 C 445.715 354.728, 443.293 353, 440.120 353 C 439.013 353, 434.596 354.830, 430.304 357.067 M 456.536 354.961 C 455.110 356.536, 454.897 357.862, 455.453 361.711 C 456.060 365.908, 456.933 367.260, 462.516 372.645 C 469.770 379.644, 485.922 388.278, 494.968 389.994 C 507.299 392.332, 520.818 390.867, 531.561 386.028 C 541.878 381.379, 544.853 375.034, 541.403 365.032 C 539.438 359.333, 537.365 357.810, 534.871 360.233 C 528.389 366.533, 518.717 369.481, 507.105 368.694 C 496.674 367.988, 489.022 365.592, 474.344 358.438 C 462.242 352.539, 459.255 351.956, 456.536 354.961 M 126 366.655 C 126 368.369, 130.298 372.833, 138.123 379.245 C 145.998 385.697, 167.727 395.130, 188.500 401.114 C 216.239 409.104, 244.346 414.325, 281.881 418.461 C 305.237 421.034, 314.071 426.227, 325.717 444.229 C 329.587 450.212, 338 470.048, 338 473.190 C 338 473.830, 339.786 478.045, 341.970 482.555 C 347.318 493.604, 356.090 501.817, 370.298 509.077 C 397.077 522.760, 411.537 538.087, 413.482 554.849 C 413.874 558.223, 413.418 567.747, 412.372 578.038 C 410.187 599.529, 409.875 646.047, 411.807 662.500 C 414.613 686.409, 418.297 702.166, 423.970 714.517 C 428.185 723.695, 433.321 730.198, 435.650 729.304 C 437.373 728.643, 437.384 728.777, 434.108 710.528 C 427.703 674.860, 427.506 634.940, 433.526 593 C 437.888 562.614, 438.129 559.737, 436.924 552.500 C 434.062 535.309, 425.268 520.574, 412.386 511.381 C 406.695 507.321, 384.324 496, 381.990 496 C 379.201 496, 365.438 488.121, 361.577 484.314 C 356.944 479.748, 354.757 474.629, 351.614 461 C 347.023 441.090, 345.627 436.134, 342.945 430.219 C 335.708 414.257, 318.751 401.468, 299.688 397.595 C 295.735 396.791, 282.375 395.640, 270 395.036 C 241.803 393.660, 210.870 389.652, 193 385.059 C 173.326 380.002, 160.759 376.345, 156.349 374.394 C 154.616 373.627, 152.764 373, 152.234 373 C 151.705 373, 146.479 371.200, 140.622 369 C 128.909 364.600, 126 364.134, 126 366.655 M 768.500 366.613 C 759.596 370.092, 732.998 379.039, 725.500 381.078 C 696.749 388.897, 666.513 393.441, 632.500 395.055 C 620.400 395.629, 607.125 396.789, 603 397.633 C 591.401 400.007, 580.144 406.005, 571.531 414.400 C 560.835 424.827, 557.388 432.757, 551.491 460.500 C 546.823 482.457, 541.695 488.135, 518.500 497.028 C 517.400 497.450, 510.799 500.573, 503.830 503.969 C 493.730 508.891, 489.870 511.396, 484.801 516.322 C 470.142 530.565, 463.660 548.870, 466.044 569.291 C 466.636 574.356, 467.760 582.100, 468.542 586.500 C 469.325 590.900, 470.872 603.275, 471.981 614 C 475.803 650.970, 474.220 684.356, 466.871 721.770 C 464.937 731.619, 467.967 732.695, 473.755 724.214 C 482.032 712.084, 487.253 693.577, 491.165 662.500 C 492.870 648.950, 492.708 599.422, 490.900 582 C 490.130 574.575, 489.516 564.450, 489.535 559.500 C 489.566 551.504, 489.927 549.738, 492.771 543.667 C 498.720 530.971, 511.134 520.325, 533.865 508.427 C 544.303 502.963, 554.629 494.196, 558.593 487.432 C 561.215 482.958, 563.188 478.044, 567.603 465 C 571.196 454.384, 578.527 440.930, 584.166 434.603 C 593.193 424.475, 602.140 420.555, 621 418.465 C 685.246 411.345, 736.223 398.003, 761 381.823 C 768.352 377.022, 777.331 368.496, 776.784 366.836 C 776.147 364.905, 773.084 364.822, 768.500 366.613 M 445.453 384.108 C 433.952 396.060, 412.139 407, 399.809 407 C 398.399 407, 396.764 407.579, 396.177 408.287 C 395.589 408.995, 394.386 417.847, 393.504 427.958 C 391.755 447.990, 392.238 455.215, 395.995 465.257 C 401.234 479.260, 413.216 492.232, 428.013 499.922 C 431.581 501.776, 435.850 504.314, 437.500 505.563 C 441.324 508.457, 449.663 509.992, 455.569 508.888 C 458.060 508.423, 462.438 506.518, 465.299 504.655 C 468.159 502.792, 473.425 499.760, 477 497.917 C 486.833 492.849, 497.565 481.648, 502.789 471 C 509.303 457.725, 510.078 449.950, 507.660 422.178 C 506.358 407.225, 506.607 407.629, 498 406.504 C 485.434 404.861, 463.658 393.260, 455.709 383.973 C 453.838 381.788, 451.655 380, 450.857 380 C 450.059 380, 447.627 381.849, 445.453 384.108 M 541.340 398.176 C 535.500 403.514, 533.030 405.058, 526.500 407.450 C 519.060 410.175, 519.160 409.991, 519.756 419.779 C 520.463 431.399, 521.759 432.126, 532.570 426.967 C 540.975 422.955, 544.564 419.793, 547.670 413.665 C 549.854 409.354, 550.160 407.700, 549.703 402.664 C 549.408 399.403, 548.495 396.066, 547.673 395.244 C 546.349 393.920, 545.632 394.252, 541.340 398.176 M 353.048 396.442 C 351.245 398.615, 351.482 410.097, 353.406 413.818 C 357.487 421.711, 371.102 430.499, 378.193 429.818 L 381.500 429.500 381.785 419.842 L 382.070 410.184 376.785 408.455 C 369.798 406.170, 363.692 402.561, 359.761 398.394 C 356.248 394.669, 354.856 394.264, 353.048 396.442 M 140.609 399.824 C 139.572 401.502, 144.380 407.248, 151 412.243 C 154.575 414.940, 158.379 417.863, 159.453 418.738 C 174.148 430.705, 221.876 451.543, 252 459.144 C 267.929 463.163, 303.046 467.964, 306.584 466.606 C 309.713 465.405, 307.501 456.726, 302.474 450.477 C 297.975 444.884, 291.765 442.433, 278.500 441.013 C 252.816 438.264, 229.819 433.307, 202.500 424.633 C 188.910 420.317, 185.242 419.009, 182.024 417.329 C 180.636 416.605, 178.939 416.010, 178.253 416.006 C 176.951 416, 168.049 411.957, 152.085 404.121 C 140.404 398.387, 141.291 398.720, 140.609 399.824 M 753.500 402.810 C 736.161 412.187, 706.095 423.719, 682.500 430.044 C 662.448 435.419, 649.119 437.950, 627 440.585 C 611.286 442.456, 605.295 444.669, 600.371 450.421 C 596.651 454.768, 594.515 460.930, 595.444 464.634 C 596.159 467.480, 596.805 467.513, 614 465.562 C 636.848 462.970, 649.869 460.093, 672 452.747 C 700.198 443.388, 735.940 425.910, 746.500 416.317 C 747.600 415.318, 750.440 413.182, 752.811 411.572 C 760.284 406.496, 764.528 399.924, 760.250 400.053 C 759.288 400.082, 756.250 401.323, 753.500 402.810 M 418.236 418.949 C 414.254 419.930, 407.119 424.527, 406.312 426.630 C 405.976 427.504, 406.655 429.101, 407.887 430.333 C 411.924 434.374, 436.747 433.708, 438.355 429.516 C 439.038 427.736, 434.750 422.439, 431.096 420.550 C 427.420 418.649, 422.126 417.989, 418.236 418.949 M 472.500 419.490 C 468.244 421.008, 463 426.018, 463 428.567 C 463 431.184, 469.535 433.100, 478.464 433.100 C 494.694 433.100, 499.079 429.789, 491.574 423.199 C 486.740 418.955, 478.499 417.352, 472.500 419.490 M 361.667 438.667 C 360.669 439.664, 360.863 448.036, 361.973 451.905 C 364.129 459.424, 370.966 465.841, 380.305 469.110 C 385.510 470.932, 386.336 469.385, 383.883 462.406 C 382.847 459.460, 382 456.206, 382 455.174 C 382 454.143, 381.508 451.887, 380.907 450.163 C 380.049 447.701, 378.962 446.798, 375.850 445.960 C 373.670 445.373, 370.170 443.342, 368.072 441.446 C 364.256 437.998, 362.916 437.417, 361.667 438.667 M 533.468 441.034 C 531.869 442.702, 528.522 444.660, 526.031 445.385 C 522.674 446.361, 521.331 447.323, 520.849 449.101 C 520.492 450.420, 519.459 454.425, 518.554 458 C 517.650 461.575, 516.652 465.512, 516.338 466.750 C 515.865 468.612, 516.175 468.998, 518.133 468.990 C 522.249 468.973, 530.479 464.426, 534.145 460.144 C 538.268 455.327, 540 450.295, 540 443.134 C 540 438.843, 539.702 438, 538.187 438 C 537.190 438, 535.066 439.365, 533.468 441.034 M 171.545 439.927 C 170.958 440.877, 178.737 450.708, 186.912 459.348 C 204.737 478.187, 244.019 499.118, 276 506.818 C 294.737 511.329, 297.946 511.949, 308.835 513.159 C 321.768 514.597, 322.204 514.934, 320.949 522.500 C 318.740 535.811, 320.680 566.009, 325.091 587 C 329.313 607.089, 337.797 629.751, 346.715 644.763 C 351.612 653.005, 367.385 673, 368.990 673 C 371.122 673, 370.877 670.696, 368.169 665.290 C 360.257 649.494, 352.328 624.969, 348.031 603 C 343.768 581.208, 342.557 565.746, 343.537 545.612 C 344.900 517.575, 344.742 513.197, 342.160 507.500 C 336.425 494.851, 330.325 492.103, 301 488.954 C 287.761 487.533, 261.895 482.192, 253 479.043 C 220.842 467.657, 194.480 454.749, 178.548 442.589 C 173.623 438.829, 172.490 438.398, 171.545 439.927 M 724.593 442.481 C 714.807 449.951, 685.508 465.912, 673.500 470.316 C 671.300 471.123, 666.575 472.912, 663 474.291 C 644.571 481.404, 621.177 486.942, 601 488.969 C 594.675 489.604, 586.815 490.588, 583.533 491.155 C 570.525 493.403, 562.540 500.370, 559.384 512.227 C 557.785 518.235, 557.722 520.110, 558.797 529.773 C 562.365 561.860, 557.591 603.249, 546.629 635.259 C 540.910 651.959, 538.718 657.610, 535.417 664.165 C 532.223 670.507, 531.802 673, 533.924 673 C 534.368 673, 537.518 669.631, 540.924 665.513 C 544.331 661.394, 547.725 657.418, 548.467 656.676 C 557.412 647.731, 573.124 610.457, 578.048 586.500 C 582.265 565.984, 584.007 538.581, 582.054 523.500 C 581.068 515.884, 581.982 514, 586.666 514 C 596.274 514, 627.141 507.582, 641.500 502.598 C 651.527 499.118, 664.835 493.617, 672.104 489.948 C 690.482 480.671, 711.243 465.446, 720.113 454.742 C 722.958 451.309, 725.566 448.275, 725.909 448 C 727.485 446.736, 732 440.749, 732 439.923 C 732 438.064, 729.042 439.085, 724.593 442.481 M 444.836 452.134 C 435.899 455.407, 447.213 461.904, 456.486 458.824 C 461.821 457.052, 462.285 454.435, 457.609 452.481 C 453.620 450.814, 448.796 450.683, 444.836 452.134 M 439.509 471.893 C 431.654 472.575, 430.180 474.227, 434.137 477.913 C 438.503 481.981, 445.151 484.500, 451.518 484.500 C 456.620 484.500, 458.445 483.960, 463.513 480.954 C 469.159 477.604, 471.243 474.764, 469.344 473.007 C 468.165 471.916, 447.939 471.161, 439.509 471.893 M 366.571 538.122 C 365.672 540.792, 364 563.963, 364 573.748 C 364 611.390, 375.732 661.404, 391.835 692.408 C 398.220 704.701, 403.327 711.073, 405.253 709.147 C 406.180 708.220, 405.844 706.217, 403.754 700.226 C 400.273 690.245, 395.646 671.553, 393.052 657 C 388.023 628.779, 387.646 623.973, 387.561 586.900 L 387.480 551.300 384.507 547.010 C 382.872 544.650, 379.902 541.640, 377.907 540.320 C 373.405 537.341, 367.237 536.145, 366.571 538.122 M 528.500 538.389 C 523.711 540.481, 519.636 544.436, 517.158 549.398 C 514.537 554.645, 514.595 553.480, 515.557 581.659 C 516.450 607.834, 515.057 627.034, 510.085 657.071 C 508.675 665.588, 503.250 687.355, 499.806 698.311 C 496.133 709.995, 496.866 712.542, 502.256 706.828 C 509.425 699.226, 521.052 672.143, 528.369 646 C 536.826 615.785, 539.975 586.919, 538.059 557.175 C 537.400 546.950, 536.641 538.228, 536.372 537.792 C 535.645 536.617, 531.907 536.901, 528.500 538.389 M 686.774 547.715 C 684.687 550.044, 680.248 560.161, 679.453 564.400 C 678.260 570.760, 682.513 580.100, 688.109 583.405 C 691.412 585.356, 698.929 585.475, 703.309 583.644 C 705.093 582.899, 710.475 578.655, 715.269 574.214 C 720.062 569.773, 724.882 565.855, 725.980 565.506 C 728.942 564.566, 733.809 567.890, 735.071 571.714 C 736.871 577.169, 733.905 585.970, 728.597 590.924 C 727.169 592.258, 726 594.115, 726 595.052 C 726 597.423, 728.561 599.346, 730.363 598.329 C 733.149 596.756, 737.929 589.806, 739.961 584.373 C 742.717 577.010, 742.540 572.424, 739.250 565.929 C 737.097 561.678, 735.532 560.012, 732.038 558.250 C 722.650 553.516, 715.957 555.895, 702.879 568.615 C 698.137 573.227, 693.609 577, 692.816 577 C 690.975 577, 686.428 572.173, 685.561 569.299 C 683.806 563.486, 689.697 553.419, 694.229 554.486 C 699.903 555.821, 700.585 550.563, 695 548.539 C 693.075 547.841, 690.797 546.968, 689.937 546.600 C 689.007 546.201, 687.726 546.652, 686.774 547.715 M 197.586 554.043 C 195.983 554.523, 192.953 556.593, 190.852 558.644 C 186.673 562.726, 184.913 567.511, 183.057 579.846 C 181.716 588.760, 179.890 592.560, 176.543 593.400 C 168.770 595.351, 162.525 586.348, 163.159 574.102 C 163.496 567.585, 163.465 567.496, 160.817 567.190 C 156.849 566.732, 155.632 569.743, 156.502 577.868 C 157.714 589.178, 163.337 597.444, 171.869 600.454 C 176.786 602.188, 179.751 601.759, 185.511 598.480 C 191.531 595.052, 194.118 589.585, 196.147 576.007 C 197.649 565.957, 198.194 564.230, 200.488 562.257 C 203.854 559.361, 205.153 559.417, 208.960 562.620 C 215.355 568.001, 216.747 576.113, 212 580.342 C 206.012 585.677, 209.566 587.841, 217.782 583.863 L 222.196 581.727 221.527 576.113 C 220.426 566.872, 215.046 557.626, 208.931 554.464 C 205.811 552.851, 202.041 552.711, 197.586 554.043 M 216.687 590.077 C 211.371 592.915, 211.948 595.621, 217.776 595.183 L 221.990 594.866 225.487 602.541 C 227.411 606.762, 228.743 610.607, 228.447 611.086 C 228.151 611.565, 219.492 616.211, 209.205 621.412 C 179.339 636.510, 180 636.123, 180 638.493 C 180 639.666, 181.263 641.836, 182.807 643.315 L 185.613 646.004 209.057 633.991 C 221.950 627.385, 233.078 622.201, 233.784 622.471 C 234.491 622.742, 237.139 627.247, 239.670 632.482 C 243.502 640.407, 244.656 642, 246.569 642 C 249.850 642, 250.611 638.667, 248.126 635.177 C 245.915 632.073, 237.471 614.989, 231.998 602.550 C 226.115 589.179, 225.699 588.518, 223 588.271 C 221.625 588.145, 218.784 588.958, 216.687 590.077 M 669.434 593.680 C 668.553 595.781, 666.745 599.638, 665.416 602.251 C 661.553 609.847, 662.499 613.755, 667.290 609.986 C 670.434 607.513, 671.208 607.515, 675.802 610.003 C 685.448 615.229, 718.306 631, 719.547 631 C 721.164 631, 724 626.012, 724 623.168 C 724 621.316, 710.627 614.149, 683.306 601.359 C 675.489 597.699, 674.500 596.763, 674.500 593.022 C 674.500 588.837, 671.288 589.254, 669.434 593.680 M 657.500 626.662 C 652.596 629.247, 650.116 632.044, 645.809 639.847 C 643.563 643.914, 640.438 648.710, 638.863 650.503 C 635.629 654.187, 635.205 656.758, 637.678 657.707 C 638.778 658.129, 639.852 657.602, 640.800 656.175 C 641.594 654.979, 642.853 654, 643.596 654 C 644.340 654, 650.248 657.441, 656.724 661.648 C 663.201 665.854, 671.200 671.013, 674.500 673.112 C 677.800 675.212, 682.394 678.295, 684.708 679.965 C 690.834 684.384, 692.112 684.013, 697.138 676.354 C 706.550 662.014, 706.951 661.078, 706.977 653.400 C 706.997 647.134, 706.660 645.830, 704.102 642.299 C 701.182 638.268, 695.191 635, 690.722 635 C 689.491 635, 686.371 636.125, 683.788 637.500 C 678.080 640.539, 678 640.543, 678 637.812 C 678 634.913, 674.443 629.842, 670.528 627.160 C 666.824 624.622, 661.738 624.427, 657.500 626.662 M 655.893 636.456 C 654.460 637.258, 652.571 639.005, 651.697 640.339 C 649.645 643.472, 650.376 644.384, 659.892 650.566 L 667.284 655.368 669.155 653.057 C 673.310 647.925, 672.744 642.432, 667.659 638.553 C 663.442 635.337, 659.237 634.587, 655.893 636.456 M 249.899 645.677 C 249.843 646.130, 249.877 647.958, 249.974 649.739 C 250.075 651.579, 249.315 654.172, 248.217 655.739 C 247.152 657.258, 240.770 668.400, 234.034 680.500 C 227.297 692.600, 221.384 702.927, 220.893 703.450 C 219.336 705.107, 219.922 707.578, 222.429 709.933 C 224.812 712.172, 224.969 712.186, 230.679 710.679 C 233.881 709.834, 237.850 708.684, 239.500 708.123 C 241.150 707.562, 246.100 706.147, 250.500 704.978 C 259.583 702.565, 264.470 701.149, 274.598 697.999 C 281.318 695.908, 281.864 695.879, 284.877 697.436 C 288.029 699.067, 290 698.841, 290 696.850 C 290 696.282, 287.674 692.690, 284.832 688.868 C 278.898 680.888, 276.500 680.210, 276.500 686.511 L 276.500 690.480 261.500 694.841 C 237.393 701.848, 235.104 702.437, 234.466 701.800 C 233.862 701.195, 235.735 697.877, 251.575 671.500 C 256.200 663.800, 259.987 657.045, 259.992 656.489 C 260.008 654.498, 253.454 645.519, 251.744 645.189 C 250.785 645.004, 249.954 645.224, 249.899 645.677 M 683.500 646.388 C 679.715 648.039, 672.779 655.635, 673.190 657.677 C 673.662 660.019, 691.561 671.276, 693.710 670.582 C 696.376 669.720, 700.110 663.647, 700.639 659.311 C 701.265 654.188, 698.240 649.465, 692.729 646.964 C 687.748 644.703, 687.409 644.681, 683.500 646.388 M 625.565 673.266 C 623.400 674.495, 619.183 678.425, 616.192 682 C 613.202 685.575, 605.132 694.484, 598.258 701.797 C 591.385 709.110, 586.082 715.410, 586.475 715.797 C 586.868 716.184, 588.812 716.500, 590.796 716.500 C 594.861 716.500, 594.310 715.311, 597.983 732 C 599.133 737.225, 601.016 745.469, 602.166 750.321 C 603.471 755.819, 603.905 759.495, 603.320 760.080 C 602.734 760.666, 599.390 758.849, 594.440 755.257 C 590.073 752.088, 584.700 748.260, 582.500 746.750 C 580.300 745.240, 574.905 741.529, 570.511 738.503 C 566.117 735.476, 561.951 733, 561.254 733 C 559.185 733, 550.125 738.231, 549.537 739.765 C 548.653 742.069, 549.937 743.067, 553.477 742.828 C 555.731 742.677, 558.044 743.470, 560.652 745.290 C 567.997 750.417, 569.597 751.492, 588.192 763.780 C 604.352 774.459, 607.160 775.985, 608.919 775.043 C 612.201 773.287, 613.208 770.483, 612.080 766.244 C 611.532 764.185, 609.904 756.875, 608.462 750 C 604.800 732.547, 602.067 720.127, 600.958 715.907 C 599.081 708.764, 606.249 696.423, 610.822 698.925 C 611.745 699.429, 620.918 707.752, 631.206 717.421 C 641.494 727.089, 650.522 735, 651.268 735 C 653.536 735, 657.259 729.120, 656.540 726.671 C 656.190 725.477, 652.563 721.575, 648.480 718 C 636.341 707.372, 638.575 705.166, 658.528 708.081 L 671.439 709.966 675.736 707.886 C 680.252 705.700, 682.525 702.811, 681.608 700.422 C 681.227 699.427, 679.383 699, 675.473 699 C 667.397 699, 650.729 696.877, 649.154 695.647 C 648.247 694.939, 647.999 693.407, 648.393 690.943 C 649.254 685.560, 646.560 678.739, 641.919 674.545 C 637.114 670.205, 631.705 669.782, 625.565 673.266 M 625.962 680.802 C 623.727 681.480, 618 687.214, 618 688.774 C 618 690.060, 633.108 705.065, 635.200 705.857 C 636.906 706.503, 640.957 701.746, 641.595 698.347 C 642.535 693.334, 641.491 690.754, 636.500 685.763 C 632.095 681.359, 628.973 679.889, 625.962 680.802 M 291 702.878 C 291 703.910, 291.675 705.315, 292.500 706 C 294.924 708.012, 294.339 709.499, 287.689 718.222 C 265.961 746.722, 260.972 753.585, 261.221 754.629 C 261.374 755.272, 265.550 759.493, 270.500 764.008 C 282.136 774.621, 289.640 778.342, 299.500 778.386 C 305.580 778.414, 307.332 777.972, 312.834 775.025 C 326.760 767.565, 333.465 753.009, 329.582 738.664 C 327.366 730.476, 322.449 724.066, 312.462 716.341 C 308.083 712.954, 302.305 708.116, 299.622 705.591 C 294.477 700.748, 291 699.654, 291 702.878 M 287.720 736.596 C 279.624 747.374, 273 757.012, 273 758.015 C 273 760.563, 283.496 768.652, 289.331 770.601 C 296.634 773.040, 301.671 771.288, 309.535 763.571 C 320.597 752.718, 324.335 741.737, 320.123 732.465 C 318.120 728.054, 306.630 717, 304.049 717 C 303.125 717, 296.171 725.345, 287.720 736.596 M 344.342 743.551 C 344.003 744.436, 344.691 746.107, 345.946 747.442 L 348.145 749.783 336.072 774.312 C 329.433 787.802, 324 799.315, 324 799.894 C 324 801.242, 329.290 804, 331.875 804 C 333.458 804, 336.041 799.495, 344.919 781.250 C 351.007 768.737, 356.375 757.825, 356.848 757 C 357.320 756.175, 359.236 755.275, 361.104 755 C 364.185 754.546, 364.624 753.982, 364.150 751.083 C 364.067 750.578, 361.863 749.366, 359.250 748.390 C 356.637 747.413, 353.108 745.576, 351.406 744.307 C 347.814 741.629, 345.187 741.348, 344.342 743.551 M 370.327 756.591 C 369.951 757.571, 370.672 759.068, 372.205 760.489 C 374.347 762.475, 374.920 764.450, 376.313 774.649 C 380.777 807.320, 383.251 821.584, 384.743 823.250 C 387.835 826.703, 391.459 825.145, 396.061 818.385 C 398.614 814.635, 409.837 798.650, 413.533 793.500 C 415.507 790.750, 419.160 785.500, 421.652 781.834 C 424.346 777.870, 427.348 774.684, 429.058 773.976 C 430.640 773.321, 432.494 772.110, 433.179 771.284 C 434.890 769.223, 431.459 766.671, 428.105 767.511 C 426.788 767.841, 423.522 767.550, 420.847 766.864 C 414.581 765.258, 412.445 766.716, 415.813 770.301 C 418.592 773.259, 418.576 775.491, 415.750 779.026 C 414.512 780.574, 410.350 786.416, 406.500 792.007 C 394.655 809.210, 393.929 810.143, 392.696 809.737 C 391.984 809.502, 391.040 805.326, 390.365 799.421 C 387.814 777.127, 385.886 763.380, 385.022 761.320 C 384.080 759.077, 376.223 755, 372.841 755 C 371.794 755, 370.663 755.716, 370.327 756.591 M 505.500 758.160 C 502.750 759.236, 499.741 760.877, 498.814 761.808 C 497.368 763.259, 488.137 796.113, 486.116 807 C 485.747 808.988, 484.872 810.500, 484.091 810.500 C 482.434 810.500, 482.206 810.184, 467.448 787.500 C 461.007 777.600, 455.306 769.223, 454.778 768.885 C 452.734 767.575, 439.757 766.956, 438.375 768.104 C 436.253 769.865, 436.684 770.775, 440.900 773.437 L 444.801 775.899 445.446 786.700 C 445.801 792.640, 446.521 802.450, 447.046 808.500 C 447.571 814.550, 448.189 822.351, 448.419 825.836 C 448.649 829.320, 449.078 832.412, 449.372 832.706 C 450.282 833.616, 456.737 832.022, 457.921 830.595 C 458.992 829.305, 458.465 817.116, 456.373 794.750 C 455.944 790.160, 456.090 788, 456.831 788 C 458.322 788, 458.525 788.274, 471.101 807.321 C 477.210 816.573, 482.874 824.398, 483.687 824.710 C 487.082 826.013, 489.193 821.399, 494.129 801.893 C 498.546 784.439, 500.168 779.774, 501.370 781.067 C 501.591 781.305, 504.003 790.477, 506.729 801.449 C 509.890 814.173, 512.252 821.756, 513.249 822.386 C 514.303 823.050, 516.151 822.972, 518.907 822.146 C 523.648 820.726, 524.015 819.076, 521.481 810.588 C 519.333 803.394, 513.983 783.615, 512.261 776.500 C 509.543 765.269, 509.562 764.774, 512.849 761.635 C 518.426 756.310, 514.716 754.556, 505.500 758.160 M 404.250 896.742 C 403.563 896.975, 403 897.804, 403 898.583 C 403 899.715, 404.958 899.980, 412.750 899.901 C 422.092 899.806, 422.332 899.750, 418.500 898.549 C 413.905 897.108, 406.088 896.117, 404.250 896.742 M 485.791 897.388 C 482.101 898.046, 478.764 898.903, 478.374 899.292 C 477.985 899.682, 482.017 900, 487.333 900 C 494.929 900, 497 899.702, 497 898.607 C 497 897.329, 494.768 895.866, 493.168 896.096 C 492.801 896.149, 489.481 896.730, 485.791 897.388" stroke="none" fill="#f2e8ea" fill-rule="evenodd"/><path d="M 0 450 L 0 900 201.500 900 C 373.066 900, 403 899.793, 403 898.607 C 403 897.841, 403.562 897, 404.250 896.738 C 405.844 896.130, 415.292 897.410, 420.500 898.939 C 426.588 900.726, 476.221 899.785, 486 897.697 C 493.964 895.996, 497 896.237, 497 898.570 C 497 899.813, 524.025 899.971, 698.750 899.752 L 900.500 899.500 900.751 449.750 L 901.002 0 699.001 0 C 524.725 0, 497 0.196, 497 1.427 C 497 2.211, 496.213 3.012, 495.250 3.206 C 492.801 3.701, 480.979 2.059, 478.874 0.933 C 476.539 -0.317, 423.851 -0.274, 420.552 0.980 C 416.738 2.430, 406.132 3.988, 404.456 3.345 C 403.655 3.037, 403 2.159, 403 1.393 C 403 0.207, 373.066 0, 201.500 0 L 0 0 0 450 M 0.496 450.500 C 0.496 698, 0.610 799.101, 0.750 675.168 C 0.890 551.236, 0.890 348.736, 0.750 225.168 C 0.610 101.601, 0.496 203, 0.496 450.500 M 426 17.013 C 363.853 22.812, 308.534 44.593, 256.986 83.561 C 237.696 98.144, 214.794 119.907, 198.120 139.500 C 192.450 146.163, 175.039 169.002, 170.295 176 C 164.985 183.832, 156 197.877, 156 198.345 C 156 198.593, 154.183 201.786, 151.962 205.442 C 143.080 220.062, 131.025 245.846, 121.544 270.500 C 81.158 375.519, 78.373 499.939, 113.990 608 C 127.394 648.669, 142.123 679.631, 166.500 718.377 C 176.759 734.684, 197.556 760.786, 215.500 779.875 C 227.259 792.384, 256.516 816.909, 272.500 827.655 C 314.727 856.044, 357.684 873.047, 406 880.493 C 473.884 890.956, 547.679 875.942, 609 839.190 C 622.624 831.025, 636.061 822.065, 640 818.518 C 641.375 817.281, 643.244 815.870, 644.153 815.384 C 646.726 814.008, 669.653 794.017, 678.030 785.845 C 717.491 747.351, 753.179 693.191, 774.132 640 C 776.841 633.125, 779.652 626.150, 780.380 624.500 C 781.715 621.474, 788.371 600.438, 792.088 587.500 C 793.194 583.650, 794.489 579.150, 794.965 577.500 C 795.884 574.314, 801.458 547.900, 802.983 539.500 C 804.009 533.853, 806.669 515.804, 807.479 509 C 808.906 497.014, 810.985 462.023, 810.985 450 C 810.985 437.757, 808.852 402.168, 807.449 391 C 804.369 366.472, 799.775 341.159, 795.472 325 C 785.217 286.488, 776.636 262.849, 761.891 232.500 C 742.730 193.060, 723.634 164.502, 694.089 131.100 C 680.903 116.194, 675.329 110.820, 656 94.384 C 612.493 57.386, 561.826 32.471, 509 22.098 C 483.824 17.154, 448.010 14.960, 426 17.013 M 425 30.643 C 423.625 30.848, 417.100 31.729, 410.500 32.602 C 398.933 34.133, 379.713 37.902, 373.500 39.859 C 371.850 40.378, 367.125 41.819, 363 43.061 C 344.506 48.627, 315.714 61.309, 299.500 71.029 C 280.190 82.606, 259.809 97.406, 245.570 110.194 C 207.614 144.281, 178.085 182.761, 154.015 229.500 C 148.599 240.019, 135.981 268.750, 134.473 274 C 134.078 275.375, 133.428 276.950, 133.028 277.500 C 131.234 279.968, 118.099 322.420, 116.031 332.438 C 107.570 373.405, 105.469 387.675, 102.999 420.950 C 100.298 457.318, 103.272 502.350, 111.125 544 C 121.816 600.705, 142.270 653.928, 171.846 702 C 178.928 713.510, 187.363 725.526, 198.397 739.821 C 204.095 747.203, 208.286 752.046, 223.500 768.831 C 228.545 774.396, 256.073 799.283, 262.598 804.176 C 270.049 809.765, 291.625 824.252, 299.500 828.954 C 307.414 833.680, 332.401 846.048, 339.087 848.548 C 368.927 859.708, 387.607 864.508, 415 868.055 C 436.359 870.821, 471.918 870.424, 492.500 867.189 C 517.418 863.273, 542.412 856.182, 564.500 846.761 C 576.726 841.546, 597.079 831.370, 601.857 828.083 C 603.311 827.083, 608.325 823.881, 613 820.968 C 637.502 805.698, 660.399 785.931, 686.036 757.920 C 714.231 727.113, 740.082 686.320, 758.194 644.058 C 768.740 619.448, 778.875 589.193, 783.421 568.748 C 784.185 565.312, 785.709 558.450, 786.808 553.500 C 792.999 525.601, 797.985 479.212, 797.986 449.500 C 797.987 431.602, 795.421 398.736, 792.404 378 C 786.009 334.043, 774.866 294.435, 757.877 255.271 C 735.992 204.819, 707.347 162.409, 670 125.163 C 615.018 70.330, 550.977 38.973, 477.789 31.051 C 468.833 30.082, 430.765 29.788, 425 30.643 M 285.067 120.874 C 283.231 124.306, 283.789 143.016, 286.012 152.553 C 293.633 185.236, 316.787 234.474, 343.592 275 C 347.103 280.309, 349.705 286.833, 351.026 293.641 C 353.329 305.510, 348.893 321.099, 338.326 338.279 C 330.082 351.680, 328.139 355.798, 326.916 362.458 C 325.548 369.906, 326.486 377.782, 329.572 384.760 C 331.562 389.258, 332.328 390.092, 334.227 389.823 C 336.299 389.528, 336.550 388.837, 337.071 382 C 337.866 371.546, 340.469 366.324, 353.670 348.691 C 359.925 340.336, 366.603 330.285, 368.509 326.355 C 380.003 302.657, 376.184 279.499, 356.494 253.500 C 327.681 215.456, 307.900 177.069, 292.854 130.007 C 289.390 119.170, 287.295 116.712, 285.067 120.874 M 613.238 120.213 C 612.646 120.927, 611.857 122.859, 611.487 124.506 C 610.362 129.504, 604.086 147.815, 599.322 160 C 590.881 181.588, 578.529 205.732, 565.557 226 C 559.910 234.823, 556.760 239.321, 542.551 258.852 C 533.054 271.906, 529.141 282.509, 528.287 297.498 C 527.352 313.939, 532.213 325.957, 548.512 347.500 C 561.852 365.132, 565.150 371.657, 565.794 381.693 C 566.124 386.831, 566.712 389.336, 567.674 389.705 C 571.785 391.283, 576.433 380.285, 576.425 369 C 576.418 359.804, 574.501 354.349, 567.464 343.500 C 554.802 323.979, 550.253 309.177, 552.128 293.600 C 553.117 285.382, 558.116 275.407, 569.967 258 C 572.393 254.437, 585.807 230.145, 591.226 219.500 C 601.910 198.513, 606.825 186.246, 615.462 159 C 618.523 149.343, 619.882 130.725, 618.124 122.512 C 617.433 119.282, 614.972 118.124, 613.238 120.213 M 437.907 148.750 C 436.195 152.463, 434.159 157.975, 433.381 161 C 431.456 168.493, 428 192.361, 428 198.162 C 428 200.758, 427.600 203.129, 427.112 203.431 C 426.623 203.733, 422.311 200.799, 417.529 196.910 C 407.337 188.623, 399.145 183.630, 391.319 180.938 C 385.102 178.799, 381.440 178.479, 380.505 179.992 C 379.598 181.459, 380.778 183.106, 388.515 191.182 C 392.372 195.207, 399.796 203.225, 405.014 209 C 416.442 221.649, 416.381 221.594, 421.915 224.178 C 431.227 228.526, 441.695 223.885, 444.750 214.054 C 445.647 211.169, 446 200.416, 446 176.016 L 446 142 443.510 142 C 441.410 142, 440.532 143.057, 437.907 148.750 M 456.667 142.667 C 456.300 143.033, 456 158.028, 456 175.989 C 456 212.905, 456.317 214.974, 462.973 221.474 C 466.146 224.572, 467.781 225.369, 471.753 225.750 C 478.972 226.444, 484.797 223.073, 494 212.879 C 498.125 208.309, 506.337 199.517, 512.250 193.341 C 518.163 187.165, 523 181.623, 523 181.025 C 523 177.951, 514.963 179.093, 505.111 183.569 C 498.973 186.357, 487.527 194.421, 481.254 200.377 C 478.653 202.847, 476.669 204.039, 476.132 203.454 C 475.649 202.929, 474.731 197.087, 474.090 190.472 C 472.143 170.385, 467.952 153.533, 462.842 145.250 C 460.982 142.235, 458.244 141.089, 456.667 142.667 M 266.607 153.582 C 265.381 156.777, 266.030 183.639, 267.548 192.500 C 271.372 214.831, 276.314 234.239, 282.918 252.866 C 288.609 268.916, 292.976 278.388, 303.546 297.613 C 306.769 303.474, 316.999 318.881, 318.133 319.582 C 319.983 320.725, 323.847 317.012, 326.543 311.503 C 328.893 306.698, 329.197 305.076, 328.752 299.716 C 328.288 294.120, 327.511 292.352, 320.967 282 C 312.828 269.123, 300.042 244.643, 295.114 232.500 C 293.328 228.100, 291.232 223.150, 290.456 221.500 C 289.306 219.054, 280.731 192.855, 277.036 180.500 C 276.261 177.906, 272.594 160.905, 271.374 154.250 C 270.894 151.630, 267.537 151.159, 266.607 153.582 M 631.543 154.250 C 631.271 155.488, 630.349 160.034, 629.494 164.353 C 624.489 189.648, 613.994 220.385, 601.276 247 C 597.094 255.752, 584.877 277.714, 580.973 283.500 C 574.053 293.755, 572.398 301.058, 575.172 309.101 C 576.569 313.151, 581.834 320, 583.550 320 C 584.533 320, 591.851 309.603, 598.709 298.464 C 615.358 271.423, 630.864 226.310, 635.511 191.398 C 637.199 178.713, 637.465 156.738, 635.965 153.934 C 634.564 151.317, 632.150 151.490, 631.543 154.250 M 254.061 206.250 C 253.394 209.688, 252.321 214.750, 251.676 217.500 C 249.882 225.146, 250.291 254.511, 252.364 267 C 257.454 297.654, 269.774 330.106, 284.719 352.223 C 286.103 354.271, 287.009 356.535, 286.733 357.254 C 286.456 357.974, 283.816 359.147, 280.865 359.862 C 271.658 362.091, 256.564 367.178, 255.113 368.542 C 251.323 372.104, 257.751 374.756, 276.947 377.549 C 290.129 379.468, 296.934 379.171, 302.521 376.436 C 308.621 373.449, 311 369.079, 311 360.863 C 311 352.356, 309.070 347.121, 301.832 336 C 290.595 318.733, 285.792 309.734, 279.143 293.486 C 269.101 268.949, 261.983 240.271, 259.912 216 C 258.706 201.872, 258.320 200, 256.618 200 C 255.765 200, 254.830 202.284, 254.061 206.250 M 644 204.776 C 644 215.796, 640.114 240.731, 635.862 257 C 627.789 287.884, 617.013 312.004, 598.873 339.792 C 593.201 348.481, 592.013 352.167, 592.006 361.102 C 591.999 368.762, 594.239 373.060, 600.003 376.446 C 605.940 379.933, 626.136 378.918, 642.816 374.294 C 648.301 372.773, 650.028 370.944, 648.134 368.662 C 647.162 367.490, 635.460 363.543, 621.500 359.677 C 615.829 358.107, 614.726 356.020, 617.791 352.661 C 620.227 349.992, 626.357 339.130, 631.426 328.500 C 643.991 302.150, 651.319 273.149, 652.635 244.550 C 653.131 233.780, 652.855 229.229, 651.056 218.500 C 648.621 203.976, 647.401 200, 645.379 200 C 644.400 200, 644 201.384, 644 204.776 M 428.465 317.473 C 424.236 318.810, 417.257 322.294, 410.500 326.441 C 402.986 331.053, 390.295 337.945, 385.645 339.938 C 380.362 342.202, 379.715 344.387, 382.974 348.964 C 389.636 358.320, 408.044 354.571, 430.960 339.191 C 447.563 328.049, 449.699 322.937, 439.764 318.128 C 434.812 315.730, 434.108 315.690, 428.465 317.473 M 463.001 317.091 C 459.119 318.689, 456 322.107, 456 324.761 C 456 327.458, 465.351 337.117, 470.483 339.720 C 472.142 340.562, 475.982 342.768, 479.015 344.622 C 488.418 350.371, 499.193 354, 506.861 354 C 513.364 354, 513.724 353.867, 517.382 350.120 C 522.905 344.465, 522.228 342.354, 513.786 338.901 C 510.093 337.390, 502.575 333.406, 497.078 330.048 C 478.739 318.842, 468.345 314.890, 463.001 317.091 M 430.304 357.067 C 403.243 371.170, 381.185 372.776, 368.568 361.561 C 366.955 360.127, 365.155 359.100, 364.568 359.277 C 362.485 359.907, 359 368.398, 359 372.843 C 359 376.714, 359.528 377.787, 363.250 381.483 C 369.970 388.156, 378.175 390.512, 394.500 390.454 C 406.783 390.411, 407.954 390.228, 415.727 387.141 C 423.761 383.949, 434.812 377.217, 440.177 372.246 C 443.777 368.911, 447.224 360.743, 446.407 357.486 C 445.715 354.728, 443.293 353, 440.120 353 C 439.013 353, 434.596 354.830, 430.304 357.067 M 456.536 354.961 C 455.110 356.536, 454.897 357.862, 455.453 361.711 C 456.060 365.908, 456.933 367.260, 462.516 372.645 C 469.770 379.644, 485.922 388.278, 494.968 389.994 C 507.299 392.332, 520.818 390.867, 531.561 386.028 C 541.878 381.379, 544.853 375.034, 541.403 365.032 C 539.438 359.333, 537.365 357.810, 534.871 360.233 C 528.389 366.533, 518.717 369.481, 507.105 368.694 C 496.674 367.988, 489.022 365.592, 474.344 358.438 C 462.242 352.539, 459.255 351.956, 456.536 354.961 M 126 366.655 C 126 368.369, 130.298 372.833, 138.123 379.245 C 145.998 385.697, 167.727 395.130, 188.500 401.114 C 216.239 409.104, 244.346 414.325, 281.881 418.461 C 305.237 421.034, 314.071 426.227, 325.717 444.229 C 329.587 450.212, 338 470.048, 338 473.190 C 338 473.830, 339.786 478.045, 341.970 482.555 C 347.318 493.604, 356.090 501.817, 370.298 509.077 C 397.077 522.760, 411.537 538.087, 413.482 554.849 C 413.874 558.223, 413.418 567.747, 412.372 578.038 C 410.187 599.529, 409.875 646.047, 411.807 662.500 C 414.613 686.409, 418.297 702.166, 423.970 714.517 C 428.185 723.695, 433.321 730.198, 435.650 729.304 C 437.373 728.643, 437.384 728.777, 434.108 710.528 C 427.703 674.860, 427.506 634.940, 433.526 593 C 437.888 562.614, 438.129 559.737, 436.924 552.500 C 434.062 535.309, 425.268 520.574, 412.386 511.381 C 406.695 507.321, 384.324 496, 381.990 496 C 379.201 496, 365.438 488.121, 361.577 484.314 C 356.944 479.748, 354.757 474.629, 351.614 461 C 347.023 441.090, 345.627 436.134, 342.945 430.219 C 335.708 414.257, 318.751 401.468, 299.688 397.595 C 295.735 396.791, 282.375 395.640, 270 395.036 C 241.803 393.660, 210.870 389.652, 193 385.059 C 173.326 380.002, 160.759 376.345, 156.349 374.394 C 154.616 373.627, 152.764 373, 152.234 373 C 151.705 373, 146.479 371.200, 140.622 369 C 128.909 364.600, 126 364.134, 126 366.655 M 768.500 366.613 C 759.596 370.092, 732.998 379.039, 725.500 381.078 C 696.749 388.897, 666.513 393.441, 632.500 395.055 C 620.400 395.629, 607.125 396.789, 603 397.633 C 591.401 400.007, 580.144 406.005, 571.531 414.400 C 560.835 424.827, 557.388 432.757, 551.491 460.500 C 546.823 482.457, 541.695 488.135, 518.500 497.028 C 517.400 497.450, 510.799 500.573, 503.830 503.969 C 493.730 508.891, 489.870 511.396, 484.801 516.322 C 470.142 530.565, 463.660 548.870, 466.044 569.291 C 466.636 574.356, 467.760 582.100, 468.542 586.500 C 469.325 590.900, 470.872 603.275, 471.981 614 C 475.803 650.970, 474.220 684.356, 466.871 721.770 C 464.937 731.619, 467.967 732.695, 473.755 724.214 C 482.032 712.084, 487.253 693.577, 491.165 662.500 C 492.870 648.950, 492.708 599.422, 490.900 582 C 490.130 574.575, 489.516 564.450, 489.535 559.500 C 489.566 551.504, 489.927 549.738, 492.771 543.667 C 498.720 530.971, 511.134 520.325, 533.865 508.427 C 544.303 502.963, 554.629 494.196, 558.593 487.432 C 561.215 482.958, 563.188 478.044, 567.603 465 C 571.196 454.384, 578.527 440.930, 584.166 434.603 C 593.193 424.475, 602.140 420.555, 621 418.465 C 685.246 411.345, 736.223 398.003, 761 381.823 C 768.352 377.022, 777.331 368.496, 776.784 366.836 C 776.147 364.905, 773.084 364.822, 768.500 366.613 M 445.453 384.108 C 433.952 396.060, 412.139 407, 399.809 407 C 398.399 407, 396.764 407.579, 396.177 408.287 C 395.589 408.995, 394.386 417.847, 393.504 427.958 C 391.755 447.990, 392.238 455.215, 395.995 465.257 C 401.234 479.260, 413.216 492.232, 428.013 499.922 C 431.581 501.776, 435.850 504.314, 437.500 505.563 C 441.324 508.457, 449.663 509.992, 455.569 508.888 C 458.060 508.423, 462.438 506.518, 465.299 504.655 C 468.159 502.792, 473.425 499.760, 477 497.917 C 486.833 492.849, 497.565 481.648, 502.789 471 C 509.303 457.725, 510.078 449.950, 507.660 422.178 C 506.358 407.225, 506.607 407.629, 498 406.504 C 485.434 404.861, 463.658 393.260, 455.709 383.973 C 453.838 381.788, 451.655 380, 450.857 380 C 450.059 380, 447.627 381.849, 445.453 384.108 M 541.340 398.176 C 535.500 403.514, 533.030 405.058, 526.500 407.450 C 519.060 410.175, 519.160 409.991, 519.756 419.779 C 520.463 431.399, 521.759 432.126, 532.570 426.967 C 540.975 422.955, 544.564 419.793, 547.670 413.665 C 549.854 409.354, 550.160 407.700, 549.703 402.664 C 549.408 399.403, 548.495 396.066, 547.673 395.244 C 546.349 393.920, 545.632 394.252, 541.340 398.176 M 353.048 396.442 C 351.245 398.615, 351.482 410.097, 353.406 413.818 C 357.487 421.711, 371.102 430.499, 378.193 429.818 L 381.500 429.500 381.785 419.842 L 382.070 410.184 376.785 408.455 C 369.798 406.170, 363.692 402.561, 359.761 398.394 C 356.248 394.669, 354.856 394.264, 353.048 396.442 M 140.609 399.824 C 139.572 401.502, 144.380 407.248, 151 412.243 C 154.575 414.940, 158.379 417.863, 159.453 418.738 C 174.148 430.705, 221.876 451.543, 252 459.144 C 267.929 463.163, 303.046 467.964, 306.584 466.606 C 309.713 465.405, 307.501 456.726, 302.474 450.477 C 297.975 444.884, 291.765 442.433, 278.500 441.013 C 252.816 438.264, 229.819 433.307, 202.500 424.633 C 188.910 420.317, 185.242 419.009, 182.024 417.329 C 180.636 416.605, 178.939 416.010, 178.253 416.006 C 176.951 416, 168.049 411.957, 152.085 404.121 C 140.404 398.387, 141.291 398.720, 140.609 399.824 M 753.500 402.810 C 736.161 412.187, 706.095 423.719, 682.500 430.044 C 662.448 435.419, 649.119 437.950, 627 440.585 C 611.286 442.456, 605.295 444.669, 600.371 450.421 C 596.651 454.768, 594.515 460.930, 595.444 464.634 C 596.159 467.480, 596.805 467.513, 614 465.562 C 636.848 462.970, 649.869 460.093, 672 452.747 C 700.198 443.388, 735.940 425.910, 746.500 416.317 C 747.600 415.318, 750.440 413.182, 752.811 411.572 C 760.284 406.496, 764.528 399.924, 760.250 400.053 C 759.288 400.082, 756.250 401.323, 753.500 402.810 M 418.236 418.949 C 414.254 419.930, 407.119 424.527, 406.312 426.630 C 405.976 427.504, 406.655 429.101, 407.887 430.333 C 411.924 434.374, 436.747 433.708, 438.355 429.516 C 439.038 427.736, 434.750 422.439, 431.096 420.550 C 427.420 418.649, 422.126 417.989, 418.236 418.949 M 472.500 419.490 C 468.244 421.008, 463 426.018, 463 428.567 C 463 431.184, 469.535 433.100, 478.464 433.100 C 494.694 433.100, 499.079 429.789, 491.574 423.199 C 486.740 418.955, 478.499 417.352, 472.500 419.490 M 361.667 438.667 C 360.669 439.664, 360.863 448.036, 361.973 451.905 C 364.129 459.424, 370.966 465.841, 380.305 469.110 C 385.510 470.932, 386.336 469.385, 383.883 462.406 C 382.847 459.460, 382 456.206, 382 455.174 C 382 454.143, 381.508 451.887, 380.907 450.163 C 380.049 447.701, 378.962 446.798, 375.850 445.960 C 373.670 445.373, 370.170 443.342, 368.072 441.446 C 364.256 437.998, 362.916 437.417, 361.667 438.667 M 533.468 441.034 C 531.869 442.702, 528.522 444.660, 526.031 445.385 C 522.674 446.361, 521.331 447.323, 520.849 449.101 C 520.492 450.420, 519.459 454.425, 518.554 458 C 517.650 461.575, 516.652 465.512, 516.338 466.750 C 515.865 468.612, 516.175 468.998, 518.133 468.990 C 522.249 468.973, 530.479 464.426, 534.145 460.144 C 538.268 455.327, 540 450.295, 540 443.134 C 540 438.843, 539.702 438, 538.187 438 C 537.190 438, 535.066 439.365, 533.468 441.034 M 171.545 439.927 C 170.958 440.877, 178.737 450.708, 186.912 459.348 C 204.737 478.187, 244.019 499.118, 276 506.818 C 294.737 511.329, 297.946 511.949, 308.835 513.159 C 321.768 514.597, 322.204 514.934, 320.949 522.500 C 318.740 535.811, 320.680 566.009, 325.091 587 C 329.313 607.089, 337.797 629.751, 346.715 644.763 C 351.612 653.005, 367.385 673, 368.990 673 C 371.122 673, 370.877 670.696, 368.169 665.290 C 360.257 649.494, 352.328 624.969, 348.031 603 C 343.768 581.208, 342.557 565.746, 343.537 545.612 C 344.900 517.575, 344.742 513.197, 342.160 507.500 C 336.425 494.851, 330.325 492.103, 301 488.954 C 287.761 487.533, 261.895 482.192, 253 479.043 C 220.842 467.657, 194.480 454.749, 178.548 442.589 C 173.623 438.829, 172.490 438.398, 171.545 439.927 M 724.593 442.481 C 714.807 449.951, 685.508 465.912, 673.500 470.316 C 671.300 471.123, 666.575 472.912, 663 474.291 C 644.571 481.404, 621.177 486.942, 601 488.969 C 594.675 489.604, 586.815 490.588, 583.533 491.155 C 570.525 493.403, 562.540 500.370, 559.384 512.227 C 557.785 518.235, 557.722 520.110, 558.797 529.773 C 562.365 561.860, 557.591 603.249, 546.629 635.259 C 540.910 651.959, 538.718 657.610, 535.417 664.165 C 532.223 670.507, 531.802 673, 533.924 673 C 534.368 673, 537.518 669.631, 540.924 665.513 C 544.331 661.394, 547.725 657.418, 548.467 656.676 C 557.412 647.731, 573.124 610.457, 578.048 586.500 C 582.265 565.984, 584.007 538.581, 582.054 523.500 C 581.068 515.884, 581.982 514, 586.666 514 C 596.274 514, 627.141 507.582, 641.500 502.598 C 651.527 499.118, 664.835 493.617, 672.104 489.948 C 690.482 480.671, 711.243 465.446, 720.113 454.742 C 722.958 451.309, 725.566 448.275, 725.909 448 C 727.485 446.736, 732 440.749, 732 439.923 C 732 438.064, 729.042 439.085, 724.593 442.481 M 444.836 452.134 C 435.899 455.407, 447.213 461.904, 456.486 458.824 C 461.821 457.052, 462.285 454.435, 457.609 452.481 C 453.620 450.814, 448.796 450.683, 444.836 452.134 M 439.509 471.893 C 431.654 472.575, 430.180 474.227, 434.137 477.913 C 438.503 481.981, 445.151 484.500, 451.518 484.500 C 456.620 484.500, 458.445 483.960, 463.513 480.954 C 469.159 477.604, 471.243 474.764, 469.344 473.007 C 468.165 471.916, 447.939 471.161, 439.509 471.893 M 366.571 538.122 C 365.672 540.792, 364 563.963, 364 573.748 C 364 611.390, 375.732 661.404, 391.835 692.408 C 398.220 704.701, 403.327 711.073, 405.253 709.147 C 406.180 708.220, 405.844 706.217, 403.754 700.226 C 400.273 690.245, 395.646 671.553, 393.052 657 C 388.023 628.779, 387.646 623.973, 387.561 586.900 L 387.480 551.300 384.507 547.010 C 382.872 544.650, 379.902 541.640, 377.907 540.320 C 373.405 537.341, 367.237 536.145, 366.571 538.122 M 528.500 538.389 C 523.711 540.481, 519.636 544.436, 517.158 549.398 C 514.537 554.645, 514.595 553.480, 515.557 581.659 C 516.450 607.834, 515.057 627.034, 510.085 657.071 C 508.675 665.588, 503.250 687.355, 499.806 698.311 C 496.133 709.995, 496.866 712.542, 502.256 706.828 C 509.425 699.226, 521.052 672.143, 528.369 646 C 536.826 615.785, 539.975 586.919, 538.059 557.175 C 537.400 546.950, 536.641 538.228, 536.372 537.792 C 535.645 536.617, 531.907 536.901, 528.500 538.389 M 686.774 547.715 C 684.687 550.044, 680.248 560.161, 679.453 564.400 C 678.260 570.760, 682.513 580.100, 688.109 583.405 C 691.412 585.356, 698.929 585.475, 703.309 583.644 C 705.093 582.899, 710.475 578.655, 715.269 574.214 C 720.062 569.773, 724.882 565.855, 725.980 565.506 C 728.942 564.566, 733.809 567.890, 735.071 571.714 C 736.871 577.169, 733.905 585.970, 728.597 590.924 C 727.169 592.258, 726 594.115, 726 595.052 C 726 597.423, 728.561 599.346, 730.363 598.329 C 733.149 596.756, 737.929 589.806, 739.961 584.373 C 742.717 577.010, 742.540 572.424, 739.250 565.929 C 737.097 561.678, 735.532 560.012, 732.038 558.250 C 722.650 553.516, 715.957 555.895, 702.879 568.615 C 698.137 573.227, 693.609 577, 692.816 577 C 690.975 577, 686.428 572.173, 685.561 569.299 C 683.806 563.486, 689.697 553.419, 694.229 554.486 C 699.903 555.821, 700.585 550.563, 695 548.539 C 693.075 547.841, 690.797 546.968, 689.937 546.600 C 689.007 546.201, 687.726 546.652, 686.774 547.715 M 197.586 554.043 C 195.983 554.523, 192.953 556.593, 190.852 558.644 C 186.673 562.726, 184.913 567.511, 183.057 579.846 C 181.716 588.760, 179.890 592.560, 176.543 593.400 C 168.770 595.351, 162.525 586.348, 163.159 574.102 C 163.496 567.585, 163.465 567.496, 160.817 567.190 C 156.849 566.732, 155.632 569.743, 156.502 577.868 C 157.714 589.178, 163.337 597.444, 171.869 600.454 C 176.786 602.188, 179.751 601.759, 185.511 598.480 C 191.531 595.052, 194.118 589.585, 196.147 576.007 C 197.649 565.957, 198.194 564.230, 200.488 562.257 C 203.854 559.361, 205.153 559.417, 208.960 562.620 C 215.355 568.001, 216.747 576.113, 212 580.342 C 206.012 585.677, 209.566 587.841, 217.782 583.863 L 222.196 581.727 221.527 576.113 C 220.426 566.872, 215.046 557.626, 208.931 554.464 C 205.811 552.851, 202.041 552.711, 197.586 554.043 M 216.687 590.077 C 211.371 592.915, 211.948 595.621, 217.776 595.183 L 221.990 594.866 225.487 602.541 C 227.411 606.762, 228.743 610.607, 228.447 611.086 C 228.151 611.565, 219.492 616.211, 209.205 621.412 C 179.339 636.510, 180 636.123, 180 638.493 C 180 639.666, 181.263 641.836, 182.807 643.315 L 185.613 646.004 209.057 633.991 C 221.950 627.385, 233.078 622.201, 233.784 622.471 C 234.491 622.742, 237.139 627.247, 239.670 632.482 C 243.502 640.407, 244.656 642, 246.569 642 C 249.850 642, 250.611 638.667, 248.126 635.177 C 245.915 632.073, 237.471 614.989, 231.998 602.550 C 226.115 589.179, 225.699 588.518, 223 588.271 C 221.625 588.145, 218.784 588.958, 216.687 590.077 M 669.434 593.680 C 668.553 595.781, 666.745 599.638, 665.416 602.251 C 661.553 609.847, 662.499 613.755, 667.290 609.986 C 670.434 607.513, 671.208 607.515, 675.802 610.003 C 685.448 615.229, 718.306 631, 719.547 631 C 721.164 631, 724 626.012, 724 623.168 C 724 621.316, 710.627 614.149, 683.306 601.359 C 675.489 597.699, 674.500 596.763, 674.500 593.022 C 674.500 588.837, 671.288 589.254, 669.434 593.680 M 657.500 626.662 C 652.596 629.247, 650.116 632.044, 645.809 639.847 C 643.563 643.914, 640.438 648.710, 638.863 650.503 C 635.629 654.187, 635.205 656.758, 637.678 657.707 C 638.778 658.129, 639.852 657.602, 640.800 656.175 C 641.594 654.979, 642.853 654, 643.596 654 C 644.340 654, 650.248 657.441, 656.724 661.648 C 663.201 665.854, 671.200 671.013, 674.500 673.112 C 677.800 675.212, 682.394 678.295, 684.708 679.965 C 690.834 684.384, 692.112 684.013, 697.138 676.354 C 706.550 662.014, 706.951 661.078, 706.977 653.400 C 706.997 647.134, 706.660 645.830, 704.102 642.299 C 701.182 638.268, 695.191 635, 690.722 635 C 689.491 635, 686.371 636.125, 683.788 637.500 C 678.080 640.539, 678 640.543, 678 637.812 C 678 634.913, 674.443 629.842, 670.528 627.160 C 666.824 624.622, 661.738 624.427, 657.500 626.662 M 655.893 636.456 C 654.460 637.258, 652.571 639.005, 651.697 640.339 C 649.645 643.472, 650.376 644.384, 659.892 650.566 L 667.284 655.368 669.155 653.057 C 673.310 647.925, 672.744 642.432, 667.659 638.553 C 663.442 635.337, 659.237 634.587, 655.893 636.456 M 249.899 645.677 C 249.843 646.130, 249.877 647.958, 249.974 649.739 C 250.075 651.579, 249.315 654.172, 248.217 655.739 C 247.152 657.258, 240.770 668.400, 234.034 680.500 C 227.297 692.600, 221.384 702.927, 220.893 703.450 C 219.336 705.107, 219.922 707.578, 222.429 709.933 C 224.812 712.172, 224.969 712.186, 230.679 710.679 C 233.881 709.834, 237.850 708.684, 239.500 708.123 C 241.150 707.562, 246.100 706.147, 250.500 704.978 C 259.583 702.565, 264.470 701.149, 274.598 697.999 C 281.318 695.908, 281.864 695.879, 284.877 697.436 C 288.029 699.067, 290 698.841, 290 696.850 C 290 696.282, 287.674 692.690, 284.832 688.868 C 278.898 680.888, 276.500 680.210, 276.500 686.511 L 276.500 690.480 261.500 694.841 C 237.393 701.848, 235.104 702.437, 234.466 701.800 C 233.862 701.195, 235.735 697.877, 251.575 671.500 C 256.200 663.800, 259.987 657.045, 259.992 656.489 C 260.008 654.498, 253.454 645.519, 251.744 645.189 C 250.785 645.004, 249.954 645.224, 249.899 645.677 M 683.500 646.388 C 679.715 648.039, 672.779 655.635, 673.190 657.677 C 673.662 660.019, 691.561 671.276, 693.710 670.582 C 696.376 669.720, 700.110 663.647, 700.639 659.311 C 701.265 654.188, 698.240 649.465, 692.729 646.964 C 687.748 644.703, 687.409 644.681, 683.500 646.388 M 625.565 673.266 C 623.400 674.495, 619.183 678.425, 616.192 682 C 613.202 685.575, 605.132 694.484, 598.258 701.797 C 591.385 709.110, 586.082 715.410, 586.475 715.797 C 586.868 716.184, 588.812 716.500, 590.796 716.500 C 594.861 716.500, 594.310 715.311, 597.983 732 C 599.133 737.225, 601.016 745.469, 602.166 750.321 C 603.471 755.819, 603.905 759.495, 603.320 760.080 C 602.734 760.666, 599.390 758.849, 594.440 755.257 C 590.073 752.088, 584.700 748.260, 582.500 746.750 C 580.300 745.240, 574.905 741.529, 570.511 738.503 C 566.117 735.476, 561.951 733, 561.254 733 C 559.185 733, 550.125 738.231, 549.537 739.765 C 548.653 742.069, 549.937 743.067, 553.477 742.828 C 555.731 742.677, 558.044 743.470, 560.652 745.290 C 567.997 750.417, 569.597 751.492, 588.192 763.780 C 604.352 774.459, 607.160 775.985, 608.919 775.043 C 612.201 773.287, 613.208 770.483, 612.080 766.244 C 611.532 764.185, 609.904 756.875, 608.462 750 C 604.800 732.547, 602.067 720.127, 600.958 715.907 C 599.081 708.764, 606.249 696.423, 610.822 698.925 C 611.745 699.429, 620.918 707.752, 631.206 717.421 C 641.494 727.089, 650.522 735, 651.268 735 C 653.536 735, 657.259 729.120, 656.540 726.671 C 656.190 725.477, 652.563 721.575, 648.480 718 C 636.341 707.372, 638.575 705.166, 658.528 708.081 L 671.439 709.966 675.736 707.886 C 680.252 705.700, 682.525 702.811, 681.608 700.422 C 681.227 699.427, 679.383 699, 675.473 699 C 667.397 699, 650.729 696.877, 649.154 695.647 C 648.247 694.939, 647.999 693.407, 648.393 690.943 C 649.254 685.560, 646.560 678.739, 641.919 674.545 C 637.114 670.205, 631.705 669.782, 625.565 673.266 M 625.962 680.802 C 623.727 681.480, 618 687.214, 618 688.774 C 618 690.060, 633.108 705.065, 635.200 705.857 C 636.906 706.503, 640.957 701.746, 641.595 698.347 C 642.535 693.334, 641.491 690.754, 636.500 685.763 C 632.095 681.359, 628.973 679.889, 625.962 680.802 M 291 702.878 C 291 703.910, 291.675 705.315, 292.500 706 C 294.924 708.012, 294.339 709.499, 287.689 718.222 C 265.961 746.722, 260.972 753.585, 261.221 754.629 C 261.374 755.272, 265.550 759.493, 270.500 764.008 C 282.136 774.621, 289.640 778.342, 299.500 778.386 C 305.580 778.414, 307.332 777.972, 312.834 775.025 C 326.760 767.565, 333.465 753.009, 329.582 738.664 C 327.366 730.476, 322.449 724.066, 312.462 716.341 C 308.083 712.954, 302.305 708.116, 299.622 705.591 C 294.477 700.748, 291 699.654, 291 702.878 M 287.720 736.596 C 279.624 747.374, 273 757.012, 273 758.015 C 273 760.563, 283.496 768.652, 289.331 770.601 C 296.634 773.040, 301.671 771.288, 309.535 763.571 C 320.597 752.718, 324.335 741.737, 320.123 732.465 C 318.120 728.054, 306.630 717, 304.049 717 C 303.125 717, 296.171 725.345, 287.720 736.596 M 344.342 743.551 C 344.003 744.436, 344.691 746.107, 345.946 747.442 L 348.145 749.783 336.072 774.312 C 329.433 787.802, 324 799.315, 324 799.894 C 324 801.242, 329.290 804, 331.875 804 C 333.458 804, 336.041 799.495, 344.919 781.250 C 351.007 768.737, 356.375 757.825, 356.848 757 C 357.320 756.175, 359.236 755.275, 361.104 755 C 364.185 754.546, 364.624 753.982, 364.150 751.083 C 364.067 750.578, 361.863 749.366, 359.250 748.390 C 356.637 747.413, 353.108 745.576, 351.406 744.307 C 347.814 741.629, 345.187 741.348, 344.342 743.551 M 370.327 756.591 C 369.951 757.571, 370.672 759.068, 372.205 760.489 C 374.347 762.475, 374.920 764.450, 376.313 774.649 C 380.777 807.320, 383.251 821.584, 384.743 823.250 C 387.835 826.703, 391.459 825.145, 396.061 818.385 C 398.614 814.635, 409.837 798.650, 413.533 793.500 C 415.507 790.750, 419.160 785.500, 421.652 781.834 C 424.346 777.870, 427.348 774.684, 429.058 773.976 C 430.640 773.321, 432.494 772.110, 433.179 771.284 C 434.890 769.223, 431.459 766.671, 428.105 767.511 C 426.788 767.841, 423.522 767.550, 420.847 766.864 C 414.581 765.258, 412.445 766.716, 415.813 770.301 C 418.592 773.259, 418.576 775.491, 415.750 779.026 C 414.512 780.574, 410.350 786.416, 406.500 792.007 C 394.655 809.210, 393.929 810.143, 392.696 809.737 C 391.984 809.502, 391.040 805.326, 390.365 799.421 C 387.814 777.127, 385.886 763.380, 385.022 761.320 C 384.080 759.077, 376.223 755, 372.841 755 C 371.794 755, 370.663 755.716, 370.327 756.591 M 505.500 758.160 C 502.750 759.236, 499.741 760.877, 498.814 761.808 C 497.368 763.259, 488.137 796.113, 486.116 807 C 485.747 808.988, 484.872 810.500, 484.091 810.500 C 482.434 810.500, 482.206 810.184, 467.448 787.500 C 461.007 777.600, 455.306 769.223, 454.778 768.885 C 452.734 767.575, 439.757 766.956, 438.375 768.104 C 436.253 769.865, 436.684 770.775, 440.900 773.437 L 444.801 775.899 445.446 786.700 C 445.801 792.640, 446.521 802.450, 447.046 808.500 C 447.571 814.550, 448.189 822.351, 448.419 825.836 C 448.649 829.320, 449.078 832.412, 449.372 832.706 C 450.282 833.616, 456.737 832.022, 457.921 830.595 C 458.992 829.305, 458.465 817.116, 456.373 794.750 C 455.944 790.160, 456.090 788, 456.831 788 C 458.322 788, 458.525 788.274, 471.101 807.321 C 477.210 816.573, 482.874 824.398, 483.687 824.710 C 487.082 826.013, 489.193 821.399, 494.129 801.893 C 498.546 784.439, 500.168 779.774, 501.370 781.067 C 501.591 781.305, 504.003 790.477, 506.729 801.449 C 509.890 814.173, 512.252 821.756, 513.249 822.386 C 514.303 823.050, 516.151 822.972, 518.907 822.146 C 523.648 820.726, 524.015 819.076, 521.481 810.588 C 519.333 803.394, 513.983 783.615, 512.261 776.500 C 509.543 765.269, 509.562 764.774, 512.849 761.635 C 518.426 756.310, 514.716 754.556, 505.500 758.160" stroke="none" fill="#81142a" fill-rule="evenodd"/></svg>