<?xml version="1.0" standalone="no"?>
<!DOCTYPE svg PUBLIC "-//W3C//DTD SVG 20010904//EN"
 "http://www.w3.org/TR/2001/REC-SVG-20010904/DTD/svg10.dtd">
<svg version="1.0" xmlns="http://www.w3.org/2000/svg"
 width="874.000000pt" height="874.000000pt" viewBox="0 0 874.000000 874.000000"
 preserveAspectRatio="xMidYMid meet">

<g transform="translate(0.000000,874.000000) scale(0.100000,-0.100000)"
fill="#000000" stroke="none">
<path d="M0 4370 l0 -4370 4370 0 4370 0 0 4370 0 4370 -4370 0 -4370 0 0
-4370z m1365 1212 c17 -5 50 -16 75 -23 186 -53 409 -228 535 -420 208 -316
276 -726 185 -1114 -70 -301 -252 -578 -480 -732 -139 -94 -285 -145 -455
-159 -239 -19 -491 77 -688 265 -427 406 -520 1111 -219 1656 154 278 403 472
682 531 73 15 314 13 365 -4z m2228 -364 l77 -11 1 -41 c0 -23 3 -60 5 -83 3
-24 1 -50 -4 -60 -9 -15 -10 -14 -19 3 -6 10 -13 35 -17 55 -13 71 -89 113
-206 113 -178 0 -310 -145 -252 -277 26 -58 77 -93 223 -152 225 -92 294 -146
325 -253 28 -96 5 -188 -65 -265 -102 -110 -274 -142 -466 -86 -91 27 -121 48
-107 76 11 20 12 20 69 -8 157 -77 304 -76 411 1 83 60 114 187 64 258 -24 33
-31 37 -331 178 -120 57 -181 114 -200 188 -41 166 38 311 198 360 57 18 191
20 294 4z m1257 -212 l185 -1 55 -31 c80 -45 113 -97 118 -185 4 -59 1 -77
-22 -124 -31 -63 -81 -106 -149 -129 -82 -28 -187 -17 -201 20 -4 11 9 13 67
8 63 -5 78 -2 117 18 55 28 80 71 87 146 13 144 -49 218 -199 236 -107 13 -98
52 -98 -404 l0 -399 -34 -6 c-77 -15 -71 -47 -74 400 -2 440 0 425 -63 425
-15 0 -31 5 -35 11 -9 16 17 30 41 22 11 -4 103 -7 205 -7z m1145 -1 l230 0 3
-78 c2 -61 0 -78 -10 -75 -7 3 -18 24 -24 47 -5 24 -19 50 -29 57 -25 18 -235
20 -253 2 -8 -8 -12 -64 -12 -185 l0 -173 135 0 c128 0 135 -1 135 -20 0 -19
-7 -20 -135 -20 l-135 0 0 -157 c0 -87 3 -168 6 -181 9 -31 40 -37 177 -36
132 1 136 3 156 72 7 26 18 42 27 42 14 0 15 -10 9 -72 -4 -40 -10 -76 -14
-79 -3 -3 -108 -4 -233 -1 l-228 5 0 395 c0 440 1 432 -67 432 -21 0 -33 5
-33 13 0 22 13 29 40 20 14 -4 129 -8 255 -8z m580 -19 c11 -13 124 -168 250
-344 l230 -321 3 316 c1 194 -1 320 -7 326 -6 6 -27 13 -48 16 -23 4 -38 12
-38 20 0 12 24 14 124 14 84 0 126 -3 129 -11 2 -6 -9 -14 -25 -17 -15 -3 -39
-11 -53 -18 l-25 -13 -5 -399 -5 -400 -27 -3 c-29 -4 -40 9 -423 534 l-140
191 -3 -356 c-2 -269 -5 -357 -15 -363 -37 -23 -37 -19 -37 391 l0 400 -22 15
c-12 9 -32 16 -45 16 -23 0 -38 14 -29 28 3 5 47 6 98 4 82 -3 95 -6 113 -26z
m-2250 -231 c56 -137 134 -326 173 -420 77 -187 77 -183 1 -184 l-35 -1 -71
173 -71 172 -155 3 c-116 2 -157 -1 -164 -10 -5 -7 -38 -84 -73 -170 -62 -154
-64 -158 -97 -164 -19 -4 -36 -4 -39 -2 -2 3 7 29 20 59 122 271 316 736 313
748 -3 9 -8 24 -12 34 -7 16 -2 18 50 15 l57 -3 103 -250z m1261 243 c4 -4
-14 -16 -40 -27 l-46 -20 0 -395 c0 -436 5 -406 -66 -406 l-34 0 0 383 c0 419
-1 425 -57 439 -18 5 -33 14 -33 22 0 10 30 13 134 12 74 -1 138 -4 142 -8z
m2298 -9 c9 -8 -13 -43 -352 -539 l-140 -205 37 -7 c20 -4 88 -7 151 -8 63 -1
156 -5 205 -9 72 -6 92 -5 102 6 6 8 35 69 63 136 29 67 97 224 151 350 98
225 99 228 85 262 l-15 35 58 0 c57 0 59 -1 71 -32 19 -47 221 -540 281 -682
27 -65 49 -125 49 -132 0 -8 -8 -14 -19 -14 -10 0 -32 -3 -48 -6 -29 -6 -31
-4 -57 63 -15 37 -48 118 -73 180 l-45 111 -157 1 -157 2 -69 -171 -69 -171
-126 8 c-69 4 -225 8 -348 8 -122 0 -222 4 -222 8 0 5 56 91 124 190 325 474
396 578 396 583 0 2 -96 4 -212 4 -166 -1 -219 -4 -238 -15 -14 -8 -28 -14
-33 -15 -6 0 -3 28 8 65 3 13 586 7 599 -6z m-1904 -1064 c18 -19 31 -37 28
-40 -9 -9 -98 48 -98 62 0 24 36 13 70 -22z m1285 1 c57 -37 54 -125 -6 -184
l-30 -30 45 -73 c26 -41 57 -86 71 -101 28 -30 23 -39 -18 -31 -22 4 -39 23
-75 80 -72 115 -78 121 -107 116 -25 -5 -25 -7 -25 -94 0 -49 -4 -89 -9 -89
-5 0 -16 -3 -25 -6 -14 -5 -16 18 -18 203 -3 207 -3 208 -25 211 -13 2 -23 7
-23 11 0 14 221 2 245 -13z m-4094 1 c-23 -11 -23 -12 -19 -152 4 -117 8 -147
25 -181 48 -91 159 -83 201 15 10 24 17 81 20 171 4 135 4 136 -19 147 -21 10
-17 12 34 12 l57 1 -20 -20 c-17 -17 -20 -33 -20 -114 0 -99 -12 -181 -32
-224 -33 -67 -146 -95 -215 -52 -58 35 -76 87 -82 243 -5 122 -8 140 -25 153
-18 13 -13 14 50 13 59 0 66 -2 45 -12z m516 -184 c124 -169 113 -167 113 -25
0 102 -2 122 -15 122 -8 0 -15 5 -15 10 0 6 23 10 50 10 28 0 50 -4 50 -10 0
-5 -9 -10 -20 -10 -19 0 -20 -7 -20 -159 0 -127 -3 -160 -14 -164 -9 -4 -49
42 -117 135 l-104 140 -5 -139 c-7 -194 -25 -177 -25 24 0 142 -2 158 -18 161
-31 6 -18 22 18 22 33 0 40 -6 122 -117z m363 108 c0 -5 -9 -11 -20 -14 -19
-5 -20 -14 -20 -160 0 -144 -1 -155 -19 -160 -26 -6 -28 4 -29 168 0 77 -1
143 -1 148 -1 4 -8 7 -16 7 -8 0 -15 5 -15 10 0 6 27 10 60 10 33 0 60 -4 60
-9z m161 -131 c30 -77 56 -140 59 -140 5 0 100 241 100 253 0 4 -7 7 -15 7 -8
0 -15 5 -15 10 0 6 20 10 45 10 50 0 54 -4 26 -28 -10 -10 -44 -84 -76 -165
-75 -194 -76 -194 -159 11 -35 84 -71 159 -82 167 -18 13 -16 14 22 15 l41 0
54 -140z m449 105 c0 -41 -7 -45 -20 -10 -8 22 -15 25 -60 25 l-50 0 0 -70 0
-70 45 0 c33 0 45 4 45 15 0 8 5 15 10 15 6 0 10 -20 10 -45 0 -46 -14 -61
-23 -25 -4 16 -14 20 -46 20 l-41 0 0 -70 c0 -65 2 -70 24 -76 43 -10 90 0
101 24 14 32 27 27 23 -10 l-3 -33 -95 1 -95 2 -3 161 c-2 131 -5 161 -17 161
-7 0 -17 5 -20 10 -4 6 33 10 104 10 l111 0 0 -35z m296 11 c41 -34 39 -85 -5
-130 l-34 -35 57 -80 56 -81 -29 0 c-25 0 -36 11 -82 80 -68 101 -83 102 -87
3 -2 -53 -7 -73 -18 -77 -9 -3 -20 -4 -25 0 -5 3 -9 77 -9 165 0 132 -2 159
-14 159 -8 0 -18 5 -21 10 -4 6 28 10 89 10 85 0 98 -2 122 -24z m314 -11 c0
-19 -4 -35 -10 -35 -5 0 -10 9 -10 19 0 43 -98 43 -121 0 -15 -30 4 -54 72
-90 81 -44 106 -92 78 -153 -13 -28 -64 -56 -102 -56 -37 0 -87 20 -87 35 0
12 6 11 35 -1 68 -28 125 -7 125 47 0 25 -8 34 -47 57 -114 65 -141 125 -84
183 26 26 36 29 90 29 l61 0 0 -35z m200 25 c0 -5 -6 -10 -14 -10 -22 0 -26
-24 -26 -175 0 -134 -1 -143 -20 -148 -19 -5 -20 0 -20 155 0 151 -1 160 -20
165 -40 11 -18 23 40 23 33 0 60 -4 60 -10z m350 -4 c0 -12 -14 -14 -65 -12
l-65 3 0 -158 c0 -135 -2 -159 -15 -159 -8 0 -18 -1 -22 -2 -5 -2 -10 69 -13
157 l-5 160 -40 0 c-53 1 -65 -4 -65 -26 0 -10 -4 -19 -10 -19 -5 0 -10 16
-10 35 l0 35 155 0 c128 0 155 -2 155 -14z m240 -133 c80 -190 81 -193 71
-193 -5 0 -16 -2 -24 -6 -10 -4 -22 15 -43 65 l-29 71 -61 0 -62 0 -22 -57
c-27 -69 -33 -76 -54 -71 -13 3 -14 7 -1 33 67 143 115 261 115 281 0 19 5 24
24 24 21 0 31 -16 86 -147z m506 128 c115 -52 127 -224 22 -297 -38 -27 -48
-29 -136 -29 l-95 0 -2 155 c-4 186 -2 170 -20 170 -8 0 -15 5 -15 10 0 6 41
10 103 10 78 0 112 -5 143 -19z m274 9 c0 -5 -7 -10 -15 -10 -13 0 -15 -24
-15 -160 l0 -160 -25 0 -25 0 0 160 c0 136 -2 160 -15 160 -8 0 -15 5 -15 10
0 6 25 10 55 10 30 0 55 -4 55 -10z m847 -16 c50 -37 73 -82 73 -141 0 -70
-23 -118 -71 -150 -74 -49 -182 -38 -242 25 -37 39 -54 109 -39 161 15 49 56
99 97 117 44 21 148 13 182 -12z m302 -116 l69 -143 14 35 c76 180 101 236
108 243 4 5 27 6 51 4 36 -3 40 -5 22 -11 -28 -10 -29 -34 -8 -191 19 -143 20
-137 -12 -133 -28 3 -28 4 -40 115 -6 62 -13 120 -15 129 -2 9 -25 -36 -53
-100 -46 -109 -68 -146 -80 -134 -3 2 -31 60 -64 129 l-59 124 -6 -55 c-3 -30
-8 -89 -11 -132 -6 -67 -9 -77 -28 -82 -12 -3 -22 -4 -24 -3 -3 4 15 238 22
290 4 28 2 37 -9 37 -8 0 -18 5 -21 10 -4 6 10 10 35 10 l41 0 68 -142z m583
-23 c37 -88 67 -163 68 -166 0 -4 -10 -9 -21 -12 -18 -5 -26 4 -52 64 l-31 69
-62 0 -61 0 -22 -61 c-20 -54 -43 -81 -57 -66 -3 3 24 73 60 156 36 84 63 158
59 167 -4 12 0 15 23 12 27 -3 33 -13 96 -163z"/>
<path d="M1045 5554 c-187 -31 -353 -120 -506 -273 -169 -170 -272 -369 -331
-639 -31 -140 -31 -404 0 -549 114 -531 472 -888 922 -919 100 -7 228 13 335
53 255 96 467 313 590 603 79 189 111 374 102 600 -19 462 -252 861 -607 1040
-125 63 -198 81 -345 85 -71 2 -143 1 -160 -1z m-316 -286 c29 -100 100 -236
177 -340 71 -97 70 -158 -2 -264 -25 -36 -47 -79 -51 -95 -7 -36 -20 -38 -29
-4 -9 36 1 78 31 125 14 22 28 60 32 85 5 40 1 52 -34 112 -102 171 -153 297
-153 375 0 59 13 62 29 6z m922 10 c1 -18 1 -42 0 -53 -4 -44 -75 -209 -128
-296 -71 -119 -75 -145 -31 -230 43 -81 49 -104 38 -135 -12 -31 -30 -31 -30
0 0 13 -11 40 -25 60 -14 20 -36 52 -49 71 -54 79 -43 140 49 275 64 93 127
219 147 293 14 55 27 61 29 15z m-491 -137 c0 -113 -9 -141 -46 -141 -17 0
-96 71 -126 113 l-22 30 30 -7 c16 -4 48 -20 70 -36 l41 -29 6 52 c5 51 30
127 41 127 4 0 6 -49 6 -109z m54 82 c7 -16 17 -48 21 -73 12 -84 12 -83 53
-51 38 31 92 50 92 34 0 -13 -126 -133 -139 -133 -6 0 -20 9 -31 20 -17 17
-20 33 -20 125 0 58 2 105 5 105 2 0 11 -12 19 -27z m-534 -89 c11 -44 50
-138 87 -212 58 -117 64 -136 55 -157 -16 -35 -26 -31 -60 23 -68 110 -112
256 -112 368 0 37 2 65 5 62 3 -3 14 -40 25 -84z m1022 -30 c-24 -161 -122
-383 -160 -360 -25 15 -12 73 32 150 41 71 116 274 116 314 1 14 2 14 12 -3 9
-14 8 -40 0 -101z m-1056 -154 c20 -91 51 -171 98 -249 39 -64 44 -91 20 -115
-23 -24 -142 -17 -147 8 -1 5 16 15 37 23 22 7 41 15 43 17 3 2 -9 31 -25 63
-46 90 -65 168 -66 263 -1 88 14 156 21 95 2 -16 11 -64 19 -105z m1100 84
c15 -105 -14 -249 -71 -352 -14 -24 -25 -46 -25 -47 0 -2 17 -9 38 -15 20 -7
41 -16 46 -21 13 -12 -38 -29 -89 -29 -73 0 -92 53 -43 122 57 82 116 253 120
347 2 55 15 52 24 -5z m-596 -294 c11 -7 12 -14 4 -27 -17 -29 -105 -73 -139
-71 -50 5 -40 30 28 70 65 39 83 44 107 28z m157 -31 c60 -33 72 -43 62 -55
-18 -22 -66 -17 -114 11 -53 31 -69 50 -61 70 9 24 33 18 113 -26z m-147 -88
c0 -26 -52 -68 -102 -82 -90 -24 -174 24 -139 80 7 11 13 11 32 -3 31 -21 85
-20 134 3 53 25 75 26 75 2z m101 -1 c52 -23 104 -25 141 -6 24 13 27 12 32
-7 14 -54 -59 -89 -140 -67 -54 16 -104 54 -104 81 0 24 17 24 71 -1z m-876
-51 c65 -18 150 -34 242 -43 195 -19 237 -46 262 -174 13 -69 29 -85 123 -131
118 -56 135 -100 112 -289 -14 -109 -15 -149 -6 -231 7 -54 14 -106 18 -115
10 -25 -12 -19 -30 9 -34 52 -47 150 -45 329 3 196 3 197 -78 248 -95 59 -110
75 -138 148 -25 67 -78 130 -108 130 -35 1 -225 32 -278 45 -71 19 -166 59
-191 82 -23 21 -23 37 0 28 9 -3 62 -20 117 -36z m1709 20 c-48 -53 -212 -106
-393 -128 -51 -7 -102 -16 -112 -22 -27 -14 -63 -68 -84 -124 -20 -54 -53 -90
-129 -139 -60 -38 -89 -75 -89 -113 1 -15 2 -95 2 -178 2 -110 -2 -166 -14
-210 -16 -59 -42 -111 -51 -102 -3 3 0 50 7 106 10 80 10 126 1 224 -17 171
-16 194 13 243 21 36 39 50 109 83 89 42 93 47 116 145 24 106 77 140 235 151
110 7 240 33 325 64 74 27 88 27 64 0z m-827 -84 c20 -8 44 -15 54 -15 17 0
19 -8 19 -76 0 -60 -5 -85 -22 -116 -25 -44 -104 -98 -144 -98 -39 0 -128 62
-147 103 -17 36 -23 152 -9 173 4 7 26 17 49 24 23 7 57 25 75 40 l33 28 29
-25 c15 -13 44 -30 63 -38z m-310 -16 c17 -6 23 -16 23 -39 0 -28 -3 -31 -22
-25 -34 11 -68 46 -68 70 0 30 10 37 28 19 8 -9 26 -20 39 -25z m503 11 c0
-25 -39 -68 -65 -72 -16 -2 -21 3 -23 30 -2 23 1 32 11 32 8 0 25 9 38 19 27
22 39 19 39 -9z m-1097 -20 c75 -34 223 -74 310 -85 59 -8 97 -32 97 -63 0
-22 -116 -9 -216 24 -108 35 -262 120 -263 147 -1 10 0 10 72 -23z m1697 22
c0 -12 -76 -65 -137 -96 -114 -57 -320 -105 -337 -78 -3 5 3 21 14 35 15 19
33 26 77 32 91 11 232 50 303 83 72 33 80 36 80 24z m-655 -169 c-30 -27 -50
-30 -41 -7 3 9 6 24 6 35 0 10 6 19 14 19 7 0 20 8 27 17 13 15 14 14 17 -13
3 -21 -3 -34 -23 -51z m-817 -38 c38 -13 106 -29 151 -35 126 -19 128 -21 133
-192 4 -122 9 -155 32 -223 15 -44 32 -85 38 -93 23 -27 -2 -23 -26 4 -63 71
-103 188 -113 332 -5 83 -8 93 -27 96 -164 31 -258 71 -337 143 -32 30 -59 59
-59 63 0 5 31 -9 69 -31 38 -22 100 -51 139 -64z m392 64 c0 -10 3 -24 6 -33
9 -23 -22 -20 -46 4 -11 11 -20 31 -20 44 0 23 2 24 30 13 17 -7 30 -19 30
-28z m978 10 c-31 -42 -104 -94 -180 -128 -55 -25 -91 -35 -205 -57 -21 -4
-23 -10 -23 -79 0 -97 -15 -165 -55 -250 -31 -64 -85 -142 -85 -122 0 5 14 48
31 95 28 77 32 104 38 235 7 179 7 178 133 197 46 6 110 21 142 31 68 23 192
84 201 99 3 5 11 10 16 10 5 0 -1 -14 -13 -31z m-978 -269 c18 -18 20 -29 15
-78 -8 -68 8 -219 33 -319 10 -40 15 -73 10 -73 -13 0 -64 114 -84 185 -9 33
-19 115 -21 183 -5 108 -4 122 11 122 9 0 25 -9 36 -20z m444 -34 c9 -69 -8
-198 -40 -295 -23 -74 -60 -148 -70 -139 -2 3 5 43 16 89 13 54 23 135 27 224
4 105 9 144 21 158 26 30 39 20 46 -37z m456 14 c0 -5 -6 -10 -14 -10 -16 0
-31 -34 -21 -50 11 -17 30 -11 60 20 16 17 37 30 46 30 47 0 67 -80 29 -115
-24 -22 -25 -14 -4 27 14 27 14 32 0 46 -13 14 -18 12 -51 -16 -38 -34 -63
-40 -83 -20 -13 13 -16 56 -6 82 7 17 44 22 44 6z m-1368 -45 c13 -29 5 -55
-18 -55 -13 0 -14 3 -4 15 16 19 3 57 -18 53 -12 -2 -18 -15 -20 -40 -4 -49
-42 -82 -77 -66 -27 12 -48 53 -40 79 8 24 25 16 19 -9 -3 -9 1 -26 9 -36 20
-28 47 -14 47 24 0 44 42 85 70 70 12 -6 26 -22 32 -35z m53 -131 c39 -85 39
-84 26 -84 -5 0 -14 13 -21 30 l-12 29 -69 -35 c-66 -33 -89 -36 -89 -13 0 5
8 13 18 17 9 4 40 19 69 34 41 22 50 31 46 48 -3 11 -12 20 -19 20 -25 0 -17
18 13 29 1 1 18 -33 38 -75z m1320 11 c47 -20 65 -33 65 -47 0 -10 -2 -18 -5
-18 -2 0 -35 15 -73 33 -37 18 -73 32 -80 29 -15 -5 -15 -1 -1 35 9 24 12 25
20 12 5 -9 38 -29 74 -44z m-73 -64 c9 -14 19 -18 38 -14 17 3 33 -1 43 -12
21 -20 21 -38 2 -73 -31 -57 -27 -57 -102 -9 -52 34 -74 42 -82 34 -21 -21
-11 5 19 49 34 48 62 57 82 25z m-1187 -59 c3 -12 -8 -41 -30 -77 -19 -32 -34
-60 -32 -61 1 -1 28 5 60 13 38 11 57 21 57 32 1 13 3 12 15 -3 20 -26 19 -31
-7 -34 -13 -1 -52 -11 -88 -22 -40 -12 -68 -16 -74 -10 -6 6 4 33 24 72 19 35
39 73 45 85 12 28 22 29 30 5z m1097 -69 c10 -9 18 -24 18 -33 0 -21 19 -30
62 -30 19 0 28 -4 25 -12 -2 -8 -23 -13 -55 -13 -29 1 -52 -2 -52 -5 0 -4 11
-17 25 -30 19 -18 22 -26 13 -37 -9 -12 -18 -7 -52 24 -81 76 -83 77 -95 55
-10 -18 5 -125 25 -175 12 -33 -21 -27 -87 17 -38 25 -74 46 -80 46 -16 0 -5
25 14 28 8 2 38 -13 67 -34 28 -20 53 -35 55 -33 8 8 -17 104 -30 114 -10 9 0
24 45 73 31 34 63 62 70 62 8 0 22 -7 32 -17z m-946 -109 c52 -42 68 -85 47
-126 -33 -67 -101 -73 -160 -16 l-32 31 49 65 c28 35 47 68 44 73 -11 19 11 8
52 -27z m140 -99 c11 -8 14 -14 6 -15 -7 0 -26 -29 -44 -65 -32 -69 -42 -80
-58 -70 -6 3 5 35 25 76 20 38 33 74 30 79 -9 15 19 12 41 -5z m61 -23 c6 -4
15 -32 19 -62 10 -83 16 -88 49 -38 16 24 28 50 28 58 -1 12 11 15 55 15 l57
0 42 -63 c32 -49 42 -59 47 -45 2 10 12 43 21 74 12 43 21 58 37 63 26 6 36 0
21 -15 -7 -7 -4 -31 8 -77 23 -82 24 -94 2 -90 -11 2 -21 21 -29 51 -7 27 -14
51 -17 53 -3 3 -11 -21 -19 -52 -7 -32 -18 -59 -24 -61 -6 -2 -26 19 -44 47
-18 27 -34 50 -37 50 -3 0 -2 -27 2 -60 6 -50 4 -60 -8 -60 -15 0 -20 23 -29
135 -2 22 -9 31 -24 33 -15 2 -33 -15 -74 -73 -30 -41 -60 -75 -66 -75 -7 0
-17 34 -24 88 -7 48 -17 93 -22 100 -12 14 9 17 29 4z"/>
<path d="M1066 4448 c-29 -16 -17 -28 30 -28 31 0 44 4 42 12 -6 17 -52 27
-72 16z"/>
<path d="M1228 4449 c-31 -17 -20 -29 27 -29 50 0 59 15 19 30 -30 12 -25 12
-46 -1z"/>
<path d="M1150 4350 c0 -5 9 -10 19 -10 11 0 23 5 26 10 4 6 -5 10 -19 10 -14
0 -26 -4 -26 -10z"/>
<path d="M1155 4300 c-38 -5 -39 -6 -18 -18 28 -16 55 -15 78 1 17 13 17 14
-1 18 -10 3 -37 2 -59 -1z"/>
<path d="M1755 3830 c-8 -13 13 -40 31 -40 19 0 18 36 -2 44 -21 8 -22 8 -29
-4z"/>
<path d="M1824 3795 c-19 -15 -19 -15 5 -35 26 -23 39 -22 55 2 7 12 6 21 -3
32 -17 20 -32 20 -57 1z"/>
<path d="M1662 3697 c-8 -9 -4 -19 13 -35 37 -36 65 -4 29 32 -19 19 -28 20
-42 3z"/>
<path d="M715 3558 c-46 -62 -48 -77 -14 -97 24 -13 29 -13 53 2 55 37 66 102
22 131 -22 14 -25 12 -61 -36z"/>
<path d="M4093 4708 l-70 -163 135 -3 c74 -1 136 -1 139 1 5 5 -120 326 -128
327 -3 0 -37 -73 -76 -162z"/>
<path d="M8163 4708 l-70 -163 135 -3 c74 -1 136 -1 138 1 4 3 -119 313 -127
322 -4 3 -38 -68 -76 -157z"/>
<path d="M7125 3918 c-3 -8 -5 -55 -3 -104 l3 -89 40 2 c58 4 85 38 85 107 0
63 -15 81 -77 91 -33 5 -44 3 -48 -7z"/>
<path d="M4834 3826 c-3 -7 -4 -42 -2 -77 3 -64 3 -64 32 -62 44 3 66 29 66
79 0 25 -6 49 -16 58 -19 20 -73 21 -80 2z"/>
<path d="M5952 3743 c-12 -29 -22 -56 -22 -62 0 -6 20 -11 46 -11 51 0 51 0
15 84 l-17 40 -22 -51z"/>
<path d="M6406 3824 c-8 -20 -8 -242 0 -271 6 -20 13 -23 56 -23 96 0 141 49
142 155 1 105 -45 155 -142 155 -36 0 -52 -4 -56 -16z"/>
<path d="M7519 3825 c-44 -24 -62 -72 -57 -153 3 -66 7 -75 36 -105 29 -28 39
-32 88 -32 50 0 59 3 84 32 55 62 50 190 -10 246 -34 31 -96 36 -141 12z"/>
<path d="M8454 3738 c-10 -29 -20 -56 -22 -60 -2 -4 17 -8 42 -8 27 0 46 5 46
11 0 17 -34 109 -40 109 -3 0 -15 -23 -26 -52z"/>
</g>
</svg>
