<svg xmlns="http://www.w3.org/2000/svg" width="874" height="874" viewBox="0 0 874 874" version="1.1"><path d="M 100.500 315.410 C 59.924 323.319, 27.297 359.948, 16.858 409.312 C 14.001 422.822, 13.765 448.899, 16.372 462.933 C 23.792 502.865, 46.967 535.852, 78.922 551.964 C 95.319 560.232, 120.118 562.844, 138 558.188 C 177.431 547.919, 208.115 511.833, 217.661 464.500 C 220.424 450.803, 220.164 422.071, 217.152 408.127 C 208.673 368.871, 186.866 338.510, 156 322.987 C 144.351 317.128, 135.545 315.051, 120 314.493 C 111.759 314.198, 105.115 314.510, 100.500 315.410 M 100 319.455 C 67.948 326.305, 40.124 352.706, 26.659 389.043 C 20.506 405.646, 18.650 416.885, 18.657 437.500 C 18.663 457.359, 20.228 466.984, 26.211 483.943 C 39.891 522.720, 68.565 549.290, 103.500 555.561 C 113.861 557.421, 121.330 557.377, 131.922 555.394 C 163.285 549.522, 190.458 525.976, 205.121 491.964 C 220.419 456.482, 219.618 412.738, 203.041 378.302 C 189.035 349.208, 167.592 329.571, 140.500 321.031 C 131.496 318.192, 109.849 317.350, 100 319.455 M 70 347.843 C 70 355.521, 75.678 369.414, 85.413 385.559 C 89.974 393.124, 89.989 396.459, 85.500 405.133 C 82.103 411.697, 81.352 415.147, 82.607 418.418 C 83.506 420.761, 85 420.336, 85 417.738 C 85 416.493, 87.217 412.204, 89.927 408.206 C 97.982 396.324, 97.905 391.229, 89.498 379.717 C 83.436 371.415, 76.080 357.239, 73.430 348.750 C 72.442 345.587, 71.267 343, 70.817 343 C 70.368 343, 70 345.180, 70 347.843 M 163 344.626 C 163 348.735, 155.145 365.479, 148.516 375.500 C 144.514 381.550, 140.710 388.159, 140.063 390.188 C 138.589 394.807, 139.518 400.024, 142.618 404.534 C 143.928 406.440, 146.125 409.638, 147.500 411.640 C 148.875 413.641, 150 416.341, 150 417.640 C 150 420.086, 151.391 420.794, 152.541 418.934 C 154.071 416.458, 152.926 411.052, 149.485 404.500 C 144.780 395.541, 145.071 393.145, 152.328 381.108 C 159.703 368.875, 165.007 355.125, 165.003 348.250 C 165.001 345.363, 164.550 343, 164 343 C 163.450 343, 163 343.732, 163 344.626 M 113.466 352.426 C 112.679 354.311, 111.740 358.361, 111.380 361.426 C 111.019 364.492, 110.535 367, 110.304 367 C 110.072 367, 108.222 365.678, 106.191 364.063 C 104.161 362.447, 101.167 360.800, 99.538 360.401 L 96.576 359.677 99.794 363.740 C 103.909 368.936, 109.669 374, 111.463 374 C 115.077 374, 116 371.138, 116 359.929 C 116 353.918, 115.752 349, 115.449 349 C 115.146 349, 114.254 350.542, 113.466 352.426 M 119 359.500 C 119 368.627, 119.259 370.259, 120.977 371.977 C 122.187 373.187, 123.642 373.716, 124.727 373.338 C 126.836 372.605, 138 361.952, 138 360.673 C 138 359.066, 132.574 361.067, 128.809 364.063 C 126.778 365.678, 124.930 367, 124.701 367 C 124.472 367, 124.002 364.289, 123.655 360.975 C 123.097 355.635, 120.781 349, 119.474 349 C 119.213 349, 119 353.725, 119 359.500 M 330.500 352.399 C 317.789 356.419, 310.349 365.057, 309.261 377.059 C 307.955 391.466, 313.559 399.619, 330.140 407.429 C 359.557 421.285, 360.844 421.972, 362.968 424.954 C 369.617 434.293, 364.076 448.698, 351.794 454.002 C 343.372 457.639, 334.812 457.800, 324.293 454.521 C 319.457 453.013, 314.286 450.915, 312.802 449.859 C 310.117 447.947, 310.098 447.948, 308.933 450.125 C 307.932 451.995, 308.091 452.560, 310.025 454.019 C 313.084 456.326, 320.919 458.703, 330.244 460.153 C 339.567 461.602, 348.491 460.290, 356.723 456.260 C 374.821 447.398, 379.470 425.375, 366.072 411.977 C 360.679 406.583, 355.606 403.776, 339.958 397.527 C 326.007 391.955, 320.360 388.068, 317.797 382.273 C 313.547 372.666, 319.602 361.409, 331.750 356.330 C 335.905 354.593, 346.443 354.064, 352.271 355.299 C 357.558 356.420, 362.779 361.271, 363.601 365.826 C 365.572 376.756, 368.041 374.120, 367.276 361.903 L 366.737 353.306 359.119 352.146 C 349.340 350.658, 335.621 350.779, 330.500 352.399 M 65 358.143 C 65 369.813, 71.545 389.816, 78.041 398 C 79.982 400.446, 80.057 400.458, 81.513 398.559 C 83.679 395.732, 83.413 394.417, 79.196 387.100 C 74.243 378.506, 69.388 366.763, 67.575 358.993 C 66.780 355.585, 65.876 352.542, 65.565 352.232 C 65.254 351.921, 65 354.581, 65 358.143 M 167.587 359.264 C 165.427 367.714, 159.265 382.489, 155.576 388.065 C 151.244 394.611, 152.766 403.477, 157.267 397.919 C 160.109 394.409, 163.958 386.472, 166.638 378.592 C 169.608 369.862, 171.690 356.055, 170.387 353.728 C 169.646 352.403, 169.027 353.626, 167.587 359.264 M 61.203 369.500 C 60.548 371.700, 60.009 374.923, 60.006 376.662 C 59.994 383.383, 63.115 395.600, 66.769 403.137 L 70.583 411.002 66.160 412.251 C 63.727 412.938, 61.770 413.950, 61.809 414.500 C 62 417.128, 74.044 417.813, 76.521 415.336 C 78.782 413.075, 77.999 409.931, 73.080 401.514 C 67.567 392.080, 64.481 382.108, 62.709 368 C 62.439 365.849, 62.229 366.059, 61.203 369.500 M 173.100 366.119 C 170.135 384.531, 167.321 393.373, 161.520 402.503 C 157.377 409.023, 156.653 412.059, 158.584 414.816 C 159.768 416.507, 161.060 416.978, 164.307 416.900 C 169.359 416.780, 173.049 415.831, 173.309 414.583 C 173.414 414.079, 171.565 413.022, 169.200 412.233 C 166.835 411.445, 165.059 410.507, 165.252 410.150 C 171.751 398.158, 175.015 386.925, 174.886 377 C 174.817 371.741, 173.493 363.676, 173.100 366.119 M 461.639 372.694 C 460.056 374.277, 461.186 376, 463.809 376 C 470.245 376, 470.007 374.435, 470.265 418.487 C 470.528 463.186, 469.941 459.984, 477.600 458.547 L 481 457.909 481 418.022 C 481 372.303, 480.065 376.153, 490.840 377.499 C 505.732 379.360, 511.999 386.851, 510.707 401.244 C 510.034 408.732, 507.508 412.952, 501.977 415.828 C 498.088 417.850, 496.553 418.082, 490.287 417.594 C 484.483 417.142, 483.176 417.295, 483.593 418.380 C 485.024 422.111, 495.522 423.154, 503.715 420.380 C 510.521 418.075, 515.481 413.761, 518.560 407.466 C 520.854 402.779, 521.172 401.044, 520.834 395.066 C 520.325 386.058, 516.853 380.851, 508.462 376.511 L 502.683 373.521 483.592 373.482 C 473.091 373.461, 464 373.131, 463.389 372.749 C 462.779 372.367, 461.991 372.342, 461.639 372.694 M 570.550 372.919 C 569.458 374.686, 570.924 376, 573.988 376 C 580.109 376, 580 375.220, 580 418.952 L 580 458.761 602.750 459.223 C 615.263 459.477, 625.780 459.418, 626.122 459.092 C 626.465 458.766, 627.030 455.238, 627.379 451.250 C 627.904 445.257, 627.760 444, 626.547 444 C 625.677 444, 624.591 445.729, 623.877 448.250 C 621.866 455.348, 621.625 455.448, 606.408 455.475 C 594.114 455.498, 592.706 455.318, 591.420 453.559 C 590.327 452.065, 590 447.748, 590 434.809 L 590 418 603.500 418 C 616.333 418, 617 417.901, 617 416 C 617 414.099, 616.333 414, 603.500 414 L 590 414 590 396.107 C 590 380.713, 590.221 378.129, 591.582 377.607 C 592.452 377.273, 597.991 377, 603.891 377 C 616.328 377, 617.889 377.708, 619.446 384.056 C 620.026 386.418, 621.082 388.541, 621.794 388.774 C 622.794 389.100, 623.021 387.417, 622.794 381.348 L 622.500 373.500 599.500 373.500 C 586.850 373.500, 575.312 373.126, 573.859 372.669 C 572.175 372.139, 570.976 372.230, 570.550 372.919 M 636.554 372.913 C 635.456 374.689, 636.720 375.700, 640.869 376.363 C 643.073 376.715, 645.048 377.682, 645.391 378.576 C 645.726 379.449, 646 397.902, 646 419.582 C 646 460.104, 646.041 460.531, 649.737 458.184 C 650.674 457.589, 651.038 448.754, 651.237 421.804 L 651.500 386.209 678.018 422.355 C 702.609 455.874, 704.752 458.500, 707.518 458.500 L 710.500 458.500 711.028 418 C 711.319 395.725, 711.657 377.423, 711.778 377.329 C 711.900 377.236, 713.462 376.865, 715.250 376.505 C 720.954 375.357, 721.908 374.924, 721.438 373.699 C 720.722 371.832, 696.500 372.193, 696.500 374.071 C 696.500 374.911, 698.011 375.712, 700.301 376.084 C 702.391 376.424, 704.535 377.135, 705.065 377.665 C 705.654 378.254, 705.926 390.924, 705.764 410.238 L 705.500 441.848 680.683 407.424 L 655.866 373 648.683 372.986 C 644.732 372.979, 640.538 372.715, 639.363 372.399 C 638.187 372.084, 636.923 372.315, 636.554 372.913 M 411.486 374.696 C 411.893 375.688, 412.430 377.196, 412.677 378.048 C 412.925 378.899, 405.485 397.348, 396.145 419.045 C 386.805 440.743, 379.330 458.663, 379.535 458.868 C 379.739 459.073, 381.390 458.961, 383.203 458.621 C 386.380 458.024, 386.701 457.503, 392 444.358 C 395.025 436.855, 398.175 429.317, 399 427.608 L 400.500 424.500 416.290 424.224 L 432.081 423.949 433.404 427.224 C 446.580 459.837, 446.158 459.001, 449.434 458.986 C 451.120 458.979, 453.470 458.712, 454.656 458.394 C 457.062 457.749, 459.443 464.171, 432.640 399 L 422.153 373.500 416.449 373.196 C 411.286 372.921, 410.815 373.064, 411.486 374.696 M 531 374.646 C 531 375.303, 532.349 376.137, 533.999 376.500 C 540.026 377.824, 540 377.634, 540 420.223 L 540 459 543.418 459 C 550.483 459, 550 461.973, 550 418.515 C 550 376.379, 549.807 377.919, 555.250 376.619 C 556.763 376.258, 558 375.408, 558 374.731 C 558 373.818, 554.508 373.494, 544.500 373.475 C 534.683 373.457, 531 373.777, 531 374.646 M 728.453 374.500 C 727.679 377.163, 727.344 380.996, 727.889 380.965 C 728.225 380.945, 729.625 380.286, 731 379.500 C 732.945 378.388, 738.213 378.063, 754.750 378.035 C 766.438 378.016, 776 378.197, 776 378.437 C 776 378.677, 773.907 381.940, 771.349 385.687 C 758.807 404.059, 749.459 417.794, 740.509 431 C 735.103 438.975, 729.178 447.585, 727.341 450.134 C 725.503 452.683, 724 455.158, 723.999 455.634 C 723.999 456.110, 734.237 456.500, 746.749 456.500 C 759.262 456.500, 774.900 456.843, 781.500 457.262 L 793.500 458.024 800.414 441.012 L 807.327 424 823.027 424 L 838.728 424 843.506 435.750 C 846.135 442.212, 849.441 450.350, 850.854 453.833 C 853.315 459.899, 853.545 460.141, 856.336 459.583 C 857.939 459.262, 860.094 459, 861.125 459 C 862.156 459, 863 458.390, 863 457.645 C 863 456.900, 860.586 450.487, 857.636 443.395 C 854.686 436.303, 847.183 418.125, 840.962 403 C 834.741 387.875, 829.225 374.938, 828.703 374.250 C 828.153 373.525, 825.517 373, 822.429 373 L 817.102 373 818.556 376.479 C 819.996 379.927, 819.919 380.168, 810.121 402.729 C 804.683 415.253, 797.862 431.125, 794.963 438 C 792.065 444.875, 789.200 450.993, 788.596 451.595 C 787.847 452.343, 784.491 452.453, 778 451.942 C 772.775 451.530, 762.051 451.047, 754.168 450.868 C 746.285 450.689, 739.697 450.308, 739.528 450.022 C 739.358 449.735, 745.972 439.600, 754.225 427.500 C 784.561 383.025, 789.236 375.836, 788.374 374.987 C 787.097 373.731, 728.814 373.257, 728.453 374.500 M 409.256 403.250 L 402.283 419.500 415.779 419.779 C 423.202 419.933, 429.463 419.870, 429.693 419.641 C 430.260 419.074, 417.665 387.049, 416.865 387.021 C 416.515 387.010, 413.091 394.313, 409.256 403.250 M 819.474 395.693 C 817.377 400.537, 814.178 407.988, 812.364 412.250 L 809.067 420 823.140 420 C 833.996 420, 837.101 419.714, 836.720 418.750 C 828.365 397.610, 824.569 388.344, 823.996 387.693 C 823.606 387.249, 821.571 390.849, 819.474 395.693 M 104.257 402.852 C 97.481 406.812, 96.478 409.329, 101.508 409.752 C 104.852 410.033, 113.677 405.572, 115.415 402.722 C 116.247 401.358, 116.150 400.720, 115 399.987 C 112.649 398.488, 110.948 398.942, 104.257 402.852 M 119.667 399.667 C 118.064 401.270, 119.347 403.180, 124.237 406.473 C 129.796 410.217, 134.871 411.066, 136.922 408.594 C 137.876 407.445, 136.738 406.444, 130.671 403.094 C 123.398 399.079, 121.001 398.333, 119.667 399.667 M 108.500 412.055 C 103.553 414.396, 98.188 414.521, 95.114 412.367 C 93.160 410.998, 92.641 410.958, 91.906 412.117 C 89.486 415.938, 92.322 419.281, 99 420.481 C 105.447 421.638, 116 416.265, 116 411.826 C 116 409.519, 113.711 409.589, 108.500 412.055 M 119 411.911 C 119 412.962, 120.298 414.914, 121.884 416.249 C 130.218 423.262, 145.421 421.151, 143.360 413.267 C 142.866 411.378, 142.606 411.324, 140.161 412.599 C 136.451 414.535, 131.270 414.305, 126.141 411.978 C 120.680 409.500, 119 409.484, 119 411.911 M 25 413.932 C 25 415.244, 29.973 418.631, 35.171 420.859 C 41.141 423.418, 54.603 426.584, 65.430 427.975 C 70.342 428.606, 75.067 429.504, 75.930 429.969 C 79.144 431.703, 82.076 435.816, 84.490 441.975 C 87.479 449.600, 89.081 451.497, 95.128 454.563 C 100.437 457.256, 105.932 462.375, 106.145 464.827 C 106.225 465.747, 106.175 473.501, 106.034 482.057 C 105.763 498.531, 106.847 506.774, 110.136 513.250 C 111.995 516.909, 114.844 518.642, 113.578 515.343 C 113.228 514.431, 112.432 509.338, 111.809 504.025 C 110.866 495.995, 110.957 492.099, 112.348 480.932 C 114.720 461.881, 113.025 457.467, 101.202 451.901 C 91.904 447.524, 90.251 445.764, 88.877 438.780 C 86.468 426.534, 81.069 422.672, 64.808 421.562 C 52.594 420.728, 42.980 418.894, 32.968 415.489 C 24.559 412.629, 25 412.715, 25 413.932 M 205.500 414.373 C 198.647 417.332, 185.285 420.141, 172.167 421.382 C 161.919 422.351, 157.301 423.224, 154.847 424.657 C 151.062 426.868, 147.455 432.629, 146.537 437.930 C 145.190 445.708, 144.140 446.951, 135.317 451.202 C 128.217 454.623, 126.550 455.912, 124.336 459.689 C 121.883 463.876, 121.766 464.660, 122.386 472.821 C 124.172 496.348, 124.233 499.602, 123.033 507.663 C 122.342 512.309, 122.016 516.349, 122.308 516.642 C 123.290 517.623, 125.884 512.554, 127.498 506.500 C 128.993 500.893, 129.158 495.689, 128.706 468.221 C 128.637 464.017, 131.387 460.318, 137.572 456.294 C 146.324 450.599, 147.705 449.157, 150.027 443.280 C 152.539 436.926, 156.131 431.535, 158.812 430.101 C 159.763 429.591, 165.726 428.458, 172.062 427.582 C 190.800 424.990, 204.658 420.362, 209.405 415.108 C 211.654 412.619, 210.198 412.345, 205.500 414.373 M 113.945 420.189 C 112.050 421.772, 108.700 423.593, 106.500 424.235 C 104.300 424.877, 102.169 425.875, 101.765 426.451 C 100.351 428.471, 100.962 440.118, 102.672 443.721 C 104.601 447.786, 113.527 454, 117.437 454 C 121.388 454, 129.315 448.564, 131.792 444.156 C 133.523 441.077, 134 438.610, 134 432.742 L 134 425.256 130.077 424.628 C 127.920 424.283, 124.183 422.496, 121.772 420.656 L 117.390 417.311 113.945 420.189 M 140.703 423.865 C 137.720 425.853, 136.969 426.944, 137.203 428.948 C 137.426 430.861, 138.001 431.425, 139.500 431.199 C 143.407 430.610, 147.945 423.134, 145.250 421.726 C 144.838 421.511, 142.791 422.473, 140.703 423.865 M 89 424.326 C 89 426.916, 92.308 430.409, 95.750 431.452 C 97.713 432.048, 97.999 431.776, 97.992 429.317 C 97.986 427.089, 97.161 426.030, 94.044 424.250 C 89.162 421.462, 89 421.465, 89 424.326 M 30.978 425.397 C 35.793 430.677, 50.372 437.536, 63 440.464 C 69.211 441.903, 77 442.506, 77 441.547 C 77 439.591, 74.267 435.873, 72.579 435.531 C 71.435 435.299, 65.550 434.161, 59.500 433.001 C 53.450 431.841, 44.675 429.322, 40 427.403 C 35.325 425.483, 30.825 423.635, 30 423.296 C 29.175 422.957, 29.615 423.902, 30.978 425.397 M 198.496 426.156 C 190.169 429.722, 176.237 433.587, 168.249 434.548 C 162.108 435.286, 159 437.170, 159 440.155 C 159 441.573, 159.752 441.997, 162.250 441.985 C 169.743 441.951, 185.136 437.200, 195 431.878 C 201.017 428.631, 206.691 424.357, 205.957 423.624 C 205.702 423.369, 202.344 424.508, 198.496 426.156 M 106.750 429.080 C 103.733 430.837, 104.828 432, 109.500 432 C 114.461 432, 115.426 430.493, 111.435 428.975 C 108.418 427.828, 108.919 427.817, 106.750 429.080 M 122.750 429.080 C 119.733 430.837, 120.828 432, 125.500 432 C 130.461 432, 131.426 430.493, 127.435 428.975 C 124.418 427.828, 124.919 427.817, 122.750 429.080 M 141.091 434.390 C 140.356 435.276, 139.186 436, 138.491 436 C 137.360 436, 135.720 441.931, 136.587 442.885 C 137.445 443.830, 142.028 439.736, 142.582 437.530 C 143.468 434.001, 142.720 432.427, 141.091 434.390 M 38 434.997 C 38 435.438, 40.476 438.063, 43.503 440.829 C 51.515 448.151, 60.229 451.937, 77.098 455.425 C 79.621 455.946, 79.714 456.239, 80.326 465.560 C 81.084 477.096, 85.117 489.811, 90.129 496.464 C 91.983 498.925, 93.806 500.952, 94.180 500.969 C 94.554 500.986, 93.722 498.199, 92.331 494.776 C 88.558 485.491, 87.037 476.772, 87.017 464.323 C 87.001 453.618, 86.895 453.063, 84.514 451.190 C 82.952 449.961, 78.958 448.786, 73.764 448.027 C 62.852 446.433, 54.532 443.616, 45.450 438.440 C 41.353 436.105, 38 434.556, 38 434.997 M 92 436.474 C 92 437.863, 92.900 439.900, 94 441 C 96.435 443.435, 99.487 443.712, 98.607 441.418 C 98.273 440.548, 98 439.210, 98 438.444 C 98 437.678, 96.650 436.353, 95 435.500 C 92.049 433.974, 92 433.990, 92 436.474 M 195.486 435.022 C 194.639 436.393, 183.963 441.732, 176.513 444.511 C 173.206 445.745, 166.514 447.339, 161.642 448.054 C 148.494 449.984, 148.630 449.790, 147.861 467.660 C 147.321 480.203, 146.806 483.661, 144.537 490 C 140.447 501.425, 140.373 501.979, 143.402 498.500 C 147.042 494.318, 152.593 482.531, 153.903 476.201 C 154.506 473.286, 155 467.557, 155 463.470 C 155 455.163, 153.957 456.183, 164.596 454.090 C 172.383 452.558, 180.355 449.278, 186.872 444.926 C 192.493 441.173, 199.214 434, 197.110 434 C 196.564 434, 195.834 434.460, 195.486 435.022 M 115 439 C 115 439.550, 115.873 440, 116.941 440 C 118.009 440, 119.160 439.550, 119.500 439 C 119.851 438.433, 119.010 438, 117.559 438 C 116.152 438, 115 438.450, 115 439 M 115.500 443.990 C 111.732 444.500, 111.626 444.603, 113.684 445.766 C 116.520 447.368, 119.166 447.330, 121.457 445.655 C 123.236 444.354, 123.234 444.297, 121.398 443.879 C 120.354 443.642, 117.700 443.692, 115.500 443.990 M 93.264 474.250 C 93.543 480.988, 94.507 489.200, 95.407 492.500 C 97.194 499.052, 102.670 511, 103.885 511 C 104.304 511, 103.816 507.738, 102.802 503.750 C 100.296 493.896, 98.684 478.687, 99.433 471.966 C 99.960 467.239, 99.749 466.108, 97.986 464.216 C 96.851 462.997, 95.210 462, 94.340 462 C 92.957 462, 92.822 463.533, 93.264 474.250 M 137.782 463.750 C 136.638 465.060, 136.109 469.016, 135.674 479.500 C 135.303 488.448, 134.347 496.530, 133.027 501.897 C 131.890 506.515, 131.170 510.503, 131.426 510.760 C 133.025 512.358, 140.017 494.325, 141.415 485 C 142.789 475.829, 142.998 472.100, 142.408 467.250 C 141.734 461.710, 140.427 460.721, 137.782 463.750 M 183.607 466.582 C 182.607 469.189, 182.919 473.519, 184.200 474.800 C 186.178 476.778, 188.727 476.179, 192.524 472.845 C 195.751 470.011, 196.274 469.846, 197.649 471.220 C 199.024 472.595, 199.018 473.065, 197.590 475.826 C 195.442 479.979, 195.640 481.012, 198.033 478.139 C 200.500 475.178, 200.563 470.820, 198.171 468.655 C 195.639 466.364, 194.578 466.554, 190.653 470 C 187.054 473.159, 185.523 473.655, 184.494 471.991 C 183.534 470.437, 184.961 467, 186.567 467 C 187.355 467, 188 466.550, 188 466 C 188 464.369, 184.266 464.863, 183.607 466.582 M 43.493 468.416 C 41.916 469.993, 41 472.040, 41 473.986 C 41 477.799, 38.336 479.176, 36.308 476.412 C 35.536 475.361, 35.109 473.713, 35.358 472.751 C 35.921 470.582, 34.419 469.465, 33.647 471.478 C 32.727 473.874, 34.922 478.644, 37.482 479.810 C 40.983 481.405, 44.781 478.165, 45.191 473.232 C 45.400 470.721, 46.040 469.414, 47.165 469.201 C 49.300 468.797, 50.577 472.599, 48.960 474.548 C 47.989 475.718, 48.077 476, 49.409 476 C 53.208 476, 52.179 469.236, 48.043 467.023 C 46.336 466.110, 45.563 466.346, 43.493 468.416 M 51.250 476.662 C 49.564 477.342, 49.659 479, 51.383 479 C 52.765 479, 54.238 482.429, 53.271 483.396 C 52.990 483.677, 49.889 485.291, 46.380 486.984 C 42.871 488.676, 40 490.471, 40 490.971 C 40 493.203, 42.398 492.825, 48.854 489.574 L 55.791 486.080 57.017 489.040 C 57.691 490.668, 58.638 492, 59.121 492 C 59.605 492, 60 491.838, 60 491.641 C 60 491.048, 52.957 475.994, 52.720 476.079 C 52.599 476.122, 51.938 476.385, 51.250 476.662 M 178.982 479.547 C 177.712 482.888, 177.743 483.257, 179.250 482.725 C 179.938 482.482, 183.526 483.794, 187.225 485.642 C 195.071 489.560, 195 489.546, 195 487.184 C 195 485.919, 193.280 484.655, 189.337 483.021 C 186.222 481.730, 182.839 479.839, 181.819 478.819 C 180.013 477.013, 179.938 477.032, 178.982 479.547 M 591 479.257 C 591 480.680, 599.934 486.400, 600.801 485.532 C 601.110 485.223, 599.843 483.402, 597.985 481.485 C 594.624 478.017, 591 476.861, 591 479.257 M 702 480.139 C 702 480.536, 703.013 481.005, 704.250 481.180 C 706.491 481.499, 706.501 481.582, 706.771 502.349 C 707.010 520.765, 707.223 523.128, 708.602 522.599 C 709.461 522.270, 710.577 522, 711.082 522 C 711.587 522, 712 517.950, 712 513 C 712 505.897, 712.299 504, 713.418 504 C 714.198 504, 715.436 503.774, 716.168 503.499 C 717.018 503.179, 719.663 506.428, 723.480 512.481 C 727.839 519.393, 730.243 522.238, 732.345 522.970 C 736.512 524.423, 737.417 523.264, 734.523 520.180 C 733.141 518.706, 729.962 514.202, 727.460 510.171 L 722.910 502.842 726.399 498.981 C 728.317 496.857, 730.177 493.572, 730.532 491.681 C 731.341 487.371, 728.903 482.294, 725.384 480.956 C 722.380 479.814, 702 479.102, 702 480.139 M 307.663 481.477 C 309.598 482.832, 309.804 484.087, 310.160 496.727 C 310.509 509.104, 310.800 510.956, 313.029 515 C 317.259 522.670, 327.449 525.462, 334.818 520.970 C 340.258 517.653, 342.158 511.851, 342.773 496.677 C 343.213 485.836, 343.604 483.396, 345.150 481.850 C 346.950 480.050, 346.845 480.002, 341.250 480.068 C 336.374 480.125, 335.842 480.300, 337.750 481.220 C 339.877 482.247, 340 482.894, 340 493.104 C 340 499.042, 339.490 506.278, 338.867 509.184 C 336.112 522.031, 323.395 525.422, 317.840 514.790 C 315.905 511.087, 315.543 508.577, 315.193 496.450 C 314.791 482.499, 314.804 482.392, 317.144 481.268 C 319.151 480.303, 318.468 480.125, 312.527 480.068 C 306.103 480.005, 305.721 480.116, 307.663 481.477 M 712.461 482.242 C 712.162 483.021, 712.048 487.673, 712.209 492.579 L 712.500 501.500 716.500 501.269 C 722.279 500.935, 725 497.519, 725 490.599 C 725 484.320, 723.483 482.543, 717.252 481.521 C 714.029 480.993, 712.873 481.167, 712.461 482.242 M 173.048 491.430 C 170.012 495.843, 168.991 498.409, 171.118 496.282 C 171.942 495.458, 174.049 496.326, 179.128 499.582 C 182.919 502.012, 186.138 504, 186.281 504 C 186.424 504, 187.625 502.018, 188.948 499.595 C 191.288 495.312, 191.305 495.115, 189.584 492.489 C 188.171 490.332, 187.269 489.896, 185.107 490.329 C 183.124 490.725, 182.077 490.353, 181.191 488.935 C 179.202 485.749, 176.357 486.620, 173.048 491.430 M 353 488.823 C 353 489.342, 353.854 489.990, 354.897 490.263 C 356.647 490.721, 356.799 491.903, 356.866 505.629 C 356.905 513.808, 356.952 520.837, 356.969 521.250 C 356.986 521.663, 357.437 522, 357.972 522 C 358.539 522, 359.059 516.352, 359.222 508.417 L 359.500 494.834 369.853 508.846 C 376.726 518.148, 380.676 522.678, 381.603 522.322 C 382.718 521.894, 383 518.575, 383 505.893 C 383 490.667, 383.084 490, 385 490 C 386.100 490, 387 489.550, 387 489 C 387 488.450, 384.637 488.014, 381.750 488.032 C 377.170 488.060, 376.723 488.233, 378.250 489.392 C 379.749 490.530, 380 492.476, 380 502.958 L 380 515.196 370.229 501.848 C 360.985 489.222, 360.256 488.483, 356.729 488.190 C 354.678 488.019, 353 488.304, 353 488.823 M 393 489 C 393 489.550, 393.627 490, 394.393 490 C 396.644 490, 397.101 492.715, 396.994 505.456 C 396.838 523.916, 396.716 522.887, 399 522.290 C 400.891 521.795, 401 520.926, 401 506.290 C 401 491.654, 401.109 490.784, 403 490.290 C 407.015 489.240, 404.848 488, 399 488 C 395.667 488, 393 488.444, 393 489 M 409.500 489.567 C 410.605 490.398, 414.240 497.876, 417.626 506.285 C 425.837 526.678, 425.924 526.683, 433.457 507.300 C 436.620 499.160, 440.062 491.753, 441.104 490.840 C 443.876 488.413, 443.497 488, 438.500 488 C 436.025 488, 434 488.450, 434 489 C 434 489.550, 434.675 490, 435.500 490 C 436.325 490, 437 490.305, 437 490.679 C 437 492.065, 427.484 516, 426.933 516 C 426.618 516, 423.980 509.700, 421.071 502 L 415.781 488 411.641 488.032 C 407.733 488.062, 407.613 488.148, 409.500 489.567 M 444.500 489 C 444.840 489.550, 445.755 490, 446.534 490 C 447.686 490, 448.002 493.002, 448.225 506.052 L 448.500 522.103 458 522.302 L 467.500 522.500 467.600 519.250 C 467.716 515.478, 466.892 515.068, 465.487 518.199 C 464.431 520.552, 459.715 521.647, 455.355 520.553 C 453.163 520.003, 453 519.479, 453 512.981 L 453 506 457.094 506 C 460.346 506, 461.295 506.411, 461.710 508 C 462.647 511.584, 464 510.107, 464 505.500 C 464 503.025, 463.550 501, 463 501 C 462.450 501, 462 501.675, 462 502.500 C 462 503.611, 460.833 504, 457.500 504 L 453 504 453 497 L 453 490 458.025 490 C 462.464 490, 463.160 490.291, 464 492.500 C 465.317 495.965, 466 495.624, 466 491.500 L 466 488 454.941 488 C 447.823 488, 444.102 488.356, 444.500 489 M 475.663 489.182 C 478.542 490.574, 478.647 491.268, 478.434 507.500 C 478.333 515.200, 478.419 521.795, 478.626 522.156 C 478.833 522.517, 479.883 522.582, 480.959 522.300 C 482.634 521.862, 482.959 520.760, 483.208 514.655 C 483.597 505.154, 485.195 504.899, 490.811 513.442 C 496.233 521.689, 497.575 523, 500.594 523 C 502.931 523, 502.782 522.624, 497.392 514.932 L 491.739 506.865 495.069 503.428 C 499.464 498.895, 499.686 493.847, 495.644 490.370 C 493.140 488.216, 492.004 488.006, 483.194 488.068 C 475.698 488.120, 473.990 488.373, 475.663 489.182 M 511.923 490.923 C 510.315 492.531, 509.002 494.893, 509.004 496.173 C 509.010 499.981, 512.457 504.495, 517.637 507.478 C 524.707 511.548, 525.782 512.691, 525.234 515.554 C 524.276 520.570, 518.919 522.247, 512.468 519.551 C 509.603 518.354, 509 518.337, 509 519.453 C 509 520.945, 513.992 523, 517.615 523 C 521.451 523, 526.813 519.866, 528.038 516.907 C 529.501 513.377, 528.452 508.509, 525.661 505.867 C 524.472 504.743, 521.379 502.738, 518.786 501.413 C 513.341 498.629, 511.434 495.925, 512.937 493.118 C 515.242 488.812, 525 488.803, 525 493.107 C 525 494.148, 525.450 495, 526 495 C 526.550 495, 527 493.425, 527 491.500 L 527 488 520.923 488 C 515.540 488, 514.512 488.334, 511.923 490.923 M 535 488.883 C 535 489.369, 535.900 490.002, 537 490.290 C 538.892 490.785, 539 491.654, 539 506.406 C 539 521.333, 539.086 522, 541 522 C 542.914 522, 543 521.333, 543 506.406 C 543 491.654, 543.108 490.785, 545 490.290 C 549.015 489.240, 546.848 488, 541 488 C 537.700 488, 535 488.398, 535 488.883 M 551 491.559 C 551 493.677, 551.405 494.868, 552 494.500 C 552.550 494.160, 553 493.242, 553 492.460 C 553 490.785, 556.584 489.710, 560.629 490.172 L 563.500 490.500 564 506.500 C 564.275 515.300, 564.837 522.388, 565.250 522.250 C 565.663 522.112, 566.675 522, 567.500 522 C 568.771 522, 569 519.540, 569 505.863 L 569 489.726 575.500 490.248 C 580.622 490.659, 582 490.476, 582 489.385 C 582 488.265, 579.038 488, 566.500 488 L 551 488 551 491.559 M 595.226 490.250 C 595.205 492.206, 589.021 506.968, 582.238 521.250 C 582.042 521.663, 582.758 522, 583.828 522 C 585.274 522, 586.486 520.328, 588.538 515.500 L 591.300 509 597.400 509.003 L 603.500 509.007 606.391 516.056 C 608.470 521.126, 609.687 522.950, 610.723 522.553 C 611.515 522.249, 612.566 522, 613.057 522 C 614.122 522, 614.023 521.729, 606.006 502.750 C 600.591 489.932, 599.479 488, 597.512 488 C 595.840 488, 595.244 488.587, 595.226 490.250 M 632 488.883 C 632 489.369, 632.917 490.006, 634.037 490.299 C 635.981 490.808, 636.068 491.526, 635.946 505.991 C 635.875 514.329, 636.050 521.383, 636.333 521.667 C 637.467 522.801, 649.747 523.021, 653.500 521.975 C 668.279 517.854, 670.596 497.448, 657.093 490.325 C 653.303 488.326, 651.237 488, 642.343 488 C 636.654 488, 632 488.398, 632 488.883 M 673 489 C 673 489.550, 673.675 490, 674.500 490 C 675.771 490, 676 492.444, 676 506 L 676 522 678.500 522 L 681 522 681 506 C 681 492.444, 681.229 490, 682.500 490 C 683.325 490, 684 489.550, 684 489 C 684 488.450, 681.525 488, 678.500 488 C 675.475 488, 673 488.450, 673 489 M 750.500 489.412 C 743.894 492.348, 739.398 500.497, 740.463 507.603 C 742.268 519.641, 755.058 526.274, 766.288 520.995 C 772.962 517.858, 775.377 514.063, 775.818 506.022 C 776.149 500.010, 775.930 499.161, 773.026 495.173 C 771.294 492.793, 768.343 490.206, 766.470 489.423 C 762.233 487.653, 754.470 487.647, 750.500 489.412 M 784.500 489 C 784.840 489.550, 785.758 490, 786.540 490 C 787.624 490, 787.843 491.008, 787.462 494.250 C 786.613 501.470, 785.036 522.370, 785.319 522.653 C 785.467 522.800, 786.543 522.671, 787.712 522.365 C 789.606 521.870, 789.904 520.871, 790.458 513.155 C 790.800 508.395, 791.399 502.530, 791.790 500.123 L 792.500 495.745 798.387 508.373 C 801.625 515.318, 804.652 521, 805.114 521 C 806.386 521, 808.267 517.515, 813.089 506.217 C 815.503 500.561, 817.632 496.396, 817.820 496.959 C 818.008 497.523, 818.688 503.276, 819.331 509.742 C 820.500 521.497, 820.501 521.500, 823.250 521.816 C 826.493 522.190, 826.431 522.843, 824.511 508.500 C 822.411 492.807, 822.504 490.406, 825.250 489.450 C 827.101 488.805, 826.722 488.596, 823.114 488.269 C 820.702 488.051, 818.378 488.238, 817.950 488.686 C 817.521 489.134, 815.379 493.775, 813.188 499 C 810.998 504.225, 808.424 510.300, 807.468 512.500 L 805.729 516.500 798.931 502.250 L 792.134 488 788.008 488 C 785.512 488, 784.126 488.395, 784.500 489 M 845.337 489.436 C 845.684 490.341, 843.120 497.566, 839.414 506.122 C 835.820 514.422, 833.112 521.445, 833.397 521.730 C 834.826 523.159, 837.075 520.501, 839.074 515.018 L 841.299 508.915 847.723 509.208 L 854.146 509.500 856.879 516 C 859.070 521.210, 859.998 522.432, 861.556 522.155 C 862.625 521.965, 863.632 521.683, 863.793 521.529 C 863.954 521.374, 861.012 513.880, 857.255 504.874 C 850.853 489.527, 850.246 488.479, 847.575 488.170 C 845.307 487.908, 844.850 488.166, 845.337 489.436 M 175.473 491.044 C 174.666 492.349, 176.777 495, 178.622 495 C 180.530 495, 180.360 491.352, 178.418 490.607 C 176.336 489.808, 176.227 489.824, 175.473 491.044 M 483.208 497.750 L 483.500 505.500 486.371 505.295 C 490.977 504.967, 493 502.398, 493 496.880 C 493 491.491, 491.488 490, 486.024 490 L 482.916 490 483.208 497.750 M 640.481 492.250 C 640.174 493.488, 640.053 500.350, 640.212 507.500 L 640.500 520.500 645.702 520.801 C 655.554 521.370, 660.304 516.419, 660.381 505.500 C 660.456 494.925, 655.908 490, 646.069 490 C 641.684 490, 640.967 490.289, 640.481 492.250 M 750.844 492.255 C 747.012 495.495, 746 498.112, 746 504.785 C 746 512.642, 747.320 516.015, 751.517 518.880 C 756.428 522.232, 763.290 521.478, 767.147 517.162 C 772.547 511.118, 771.921 498.226, 765.962 492.750 C 762.004 489.114, 754.837 488.879, 750.844 492.255 M 59.452 495.258 C 58.876 496.491, 56.891 500.330, 55.042 503.790 C 52.952 507.698, 52.034 510.434, 52.616 511.016 C 53.198 511.598, 56.003 511.201, 60.026 509.967 C 63.587 508.875, 67.513 507.888, 68.750 507.773 C 71.392 507.527, 71.505 507.049, 69.532 504.441 C 68.334 502.858, 68.058 502.792, 68.032 504.085 C 68.010 505.153, 66.128 506.192, 62.265 507.267 C 59.111 508.145, 56.415 508.748, 56.274 508.608 C 56.134 508.467, 57.598 505.729, 59.528 502.523 C 61.703 498.912, 62.815 495.992, 62.452 494.847 C 61.674 492.398, 60.728 492.527, 59.452 495.258 M 182.441 494.501 C 180.538 495.972, 180.546 496.041, 182.901 498.034 C 185.541 500.268, 186.837 500.206, 188.371 497.774 C 189.087 496.638, 188.999 495.704, 188.070 494.584 C 186.426 492.604, 184.924 492.581, 182.441 494.501 M 595.208 499.739 C 593.993 502.561, 593 505.350, 593 505.935 C 593 506.533, 595.004 507, 597.567 507 C 602.674 507, 602.681 506.963, 599.097 498.553 L 597.416 494.607 595.208 499.739 M 845.448 500.222 C 844.376 503.094, 843.350 505.794, 843.167 506.222 C 842.983 506.650, 844.896 507, 847.417 507 C 850.123 507, 852 506.543, 852 505.884 C 852 504.160, 848.602 495, 847.963 495 C 847.651 495, 846.519 497.350, 845.448 500.222 M 161.959 506.211 C 157.457 511.060, 156.481 512.649, 157.503 513.461 C 158.725 514.430, 161.276 524.057, 160.513 524.820 C 160.323 525.010, 157.773 523.554, 154.847 521.583 C 149.420 517.928, 147.541 517.315, 146.572 518.883 C 145.883 519.998, 161.574 530.381, 162.802 529.622 C 163.321 529.302, 162.923 525.365, 161.874 520.428 C 160.527 514.089, 160.319 511.273, 161.090 509.832 C 162.314 507.545, 162.787 507.806, 170.214 514.870 C 174.199 518.661, 175.030 519.086, 175.590 517.626 C 176.008 516.537, 175.467 515.062, 174.127 513.635 C 172.957 512.390, 172 511.156, 172 510.893 C 172 510.630, 174.319 510.434, 177.153 510.457 C 180.411 510.484, 182.464 510.041, 182.736 509.250 C 183.018 508.432, 182.129 508, 180.165 508 C 175.945 508, 174 507.068, 174 505.048 C 174 503.064, 170.985 500, 169.033 500 C 168.313 500, 165.130 502.795, 161.959 506.211 M 166.135 504.337 C 165.287 505.359, 165.595 506.211, 167.438 507.942 C 171.148 511.427, 174.032 508.175, 170.429 504.571 C 168.508 502.650, 167.577 502.600, 166.135 504.337 M 72.425 509.878 C 72.723 510.362, 70.772 513.694, 68.089 517.284 L 63.210 523.811 66.440 526.942 C 68.334 528.778, 71.166 530.315, 73.288 530.659 C 76.396 531.164, 77.338 530.816, 79.954 528.200 C 82.268 525.886, 83 524.251, 83 521.397 C 83 518.215, 82.290 516.979, 78.361 513.320 C 74.187 509.433, 71.012 507.592, 72.425 509.878 M 71.517 518.237 C 66.911 524.407, 66.707 525.909, 70.204 527.911 C 72.716 529.349, 73.107 529.312, 75.704 527.390 C 81.361 523.202, 82.193 517.667, 77.616 514.668 C 75.393 513.211, 75.173 513.340, 71.517 518.237 M 87.474 521.959 C 87.800 522.486, 86.498 526.032, 84.581 529.839 C 81.351 536.254, 81.045 538, 83.154 538 C 83.606 538, 85.561 534.850, 87.500 531 C 89.439 527.150, 91.582 523.986, 92.263 523.968 C 93.936 523.925, 89.981 521, 88.250 521 C 87.498 521, 87.149 521.431, 87.474 521.959 M 94.759 525.250 C 95.311 525.938, 96.313 530.438, 96.985 535.250 C 97.742 540.672, 98.660 544, 99.398 544 C 100.054 544, 102.956 540.597, 105.848 536.437 C 110.036 530.414, 111.553 528.938, 113.303 529.187 C 114.936 529.420, 115.565 530.270, 115.754 532.500 C 116.697 543.664, 117.202 546, 118.670 546 C 119.946 546, 120.082 545.017, 119.500 540 C 119.117 536.700, 119.026 534, 119.298 534 C 119.569 534, 121.247 536.268, 123.026 539.040 C 124.804 541.812, 126.718 543.927, 127.279 543.740 C 127.839 543.554, 128.919 540.972, 129.678 538.004 C 130.438 535.036, 131.242 532.425, 131.464 532.203 C 131.687 531.980, 132.370 533.756, 132.984 536.149 C 134.662 542.699, 134.816 543, 136.469 543 C 138.401 543, 138.395 542.871, 136.055 533.957 C 134.613 528.463, 134.412 526.364, 135.276 525.829 C 137.017 524.754, 135.722 523.998, 133.246 524.646 C 131.662 525.060, 130.667 526.634, 129.540 530.510 C 128.693 533.424, 128 536.451, 128 537.237 C 128 540.603, 126.415 539.602, 122.488 533.756 L 118.300 527.522 112.731 527.511 C 108.396 527.502, 107.186 527.832, 107.269 529 C 107.328 529.825, 106.088 532.441, 104.513 534.813 C 101.233 539.756, 100.614 539.282, 99.566 531.019 C 98.883 525.643, 97.871 524.046, 95.128 524.015 C 94.160 524.005, 94.052 524.369, 94.759 525.250" stroke="none" fill="#f1e2e8" fill-rule="evenodd"/><path d="M -0 437.001 L -0 874.002 437.250 873.751 L 874.500 873.500 874.751 436.750 L 875.002 -0 437.501 -0 L 0 0 -0 437.001 M 0.495 437.500 C 0.495 677.850, 0.610 776.324, 0.750 656.332 C 0.890 536.339, 0.890 339.689, 0.750 219.332 C 0.610 98.974, 0.495 197.150, 0.495 437.500 M 100.500 315.410 C 59.924 323.319, 27.297 359.948, 16.858 409.312 C 14.001 422.822, 13.765 448.899, 16.372 462.933 C 23.792 502.865, 46.967 535.852, 78.922 551.964 C 95.319 560.232, 120.118 562.844, 138 558.188 C 177.431 547.919, 208.115 511.833, 217.661 464.500 C 220.424 450.803, 220.164 422.071, 217.152 408.127 C 208.673 368.871, 186.866 338.510, 156 322.987 C 144.351 317.128, 135.545 315.051, 120 314.493 C 111.759 314.198, 105.115 314.510, 100.500 315.410 M 100 319.455 C 67.948 326.305, 40.124 352.706, 26.659 389.043 C 20.506 405.646, 18.650 416.885, 18.657 437.500 C 18.663 457.359, 20.228 466.984, 26.211 483.943 C 39.891 522.720, 68.565 549.290, 103.500 555.561 C 113.861 557.421, 121.330 557.377, 131.922 555.394 C 163.285 549.522, 190.458 525.976, 205.121 491.964 C 220.419 456.482, 219.618 412.738, 203.041 378.302 C 189.035 349.208, 167.592 329.571, 140.500 321.031 C 131.496 318.192, 109.849 317.350, 100 319.455 M 70 347.843 C 70 355.521, 75.678 369.414, 85.413 385.559 C 89.974 393.124, 89.989 396.459, 85.500 405.133 C 82.103 411.697, 81.352 415.147, 82.607 418.418 C 83.506 420.761, 85 420.336, 85 417.738 C 85 416.493, 87.217 412.204, 89.927 408.206 C 97.982 396.324, 97.905 391.229, 89.498 379.717 C 83.436 371.415, 76.080 357.239, 73.430 348.750 C 72.442 345.587, 71.267 343, 70.817 343 C 70.368 343, 70 345.180, 70 347.843 M 163 344.626 C 163 348.735, 155.145 365.479, 148.516 375.500 C 144.514 381.550, 140.710 388.159, 140.063 390.188 C 138.589 394.807, 139.518 400.024, 142.618 404.534 C 143.928 406.440, 146.125 409.638, 147.500 411.640 C 148.875 413.641, 150 416.341, 150 417.640 C 150 420.086, 151.391 420.794, 152.541 418.934 C 154.071 416.458, 152.926 411.052, 149.485 404.500 C 144.780 395.541, 145.071 393.145, 152.328 381.108 C 159.703 368.875, 165.007 355.125, 165.003 348.250 C 165.001 345.363, 164.550 343, 164 343 C 163.450 343, 163 343.732, 163 344.626 M 113.466 352.426 C 112.679 354.311, 111.740 358.361, 111.380 361.426 C 111.019 364.492, 110.535 367, 110.304 367 C 110.072 367, 108.222 365.678, 106.191 364.063 C 104.161 362.447, 101.167 360.800, 99.538 360.401 L 96.576 359.677 99.794 363.740 C 103.909 368.936, 109.669 374, 111.463 374 C 115.077 374, 116 371.138, 116 359.929 C 116 353.918, 115.752 349, 115.449 349 C 115.146 349, 114.254 350.542, 113.466 352.426 M 119 359.500 C 119 368.627, 119.259 370.259, 120.977 371.977 C 122.187 373.187, 123.642 373.716, 124.727 373.338 C 126.836 372.605, 138 361.952, 138 360.673 C 138 359.066, 132.574 361.067, 128.809 364.063 C 126.778 365.678, 124.930 367, 124.701 367 C 124.472 367, 124.002 364.289, 123.655 360.975 C 123.097 355.635, 120.781 349, 119.474 349 C 119.213 349, 119 353.725, 119 359.500 M 330.500 352.399 C 317.789 356.419, 310.349 365.057, 309.261 377.059 C 307.955 391.466, 313.559 399.619, 330.140 407.429 C 359.557 421.285, 360.844 421.972, 362.968 424.954 C 369.617 434.293, 364.076 448.698, 351.794 454.002 C 343.372 457.639, 334.812 457.800, 324.293 454.521 C 319.457 453.013, 314.286 450.915, 312.802 449.859 C 310.117 447.947, 310.098 447.948, 308.933 450.125 C 307.932 451.995, 308.091 452.560, 310.025 454.019 C 313.084 456.326, 320.919 458.703, 330.244 460.153 C 339.567 461.602, 348.491 460.290, 356.723 456.260 C 374.821 447.398, 379.470 425.375, 366.072 411.977 C 360.679 406.583, 355.606 403.776, 339.958 397.527 C 326.007 391.955, 320.360 388.068, 317.797 382.273 C 313.547 372.666, 319.602 361.409, 331.750 356.330 C 335.905 354.593, 346.443 354.064, 352.271 355.299 C 357.558 356.420, 362.779 361.271, 363.601 365.826 C 365.572 376.756, 368.041 374.120, 367.276 361.903 L 366.737 353.306 359.119 352.146 C 349.340 350.658, 335.621 350.779, 330.500 352.399 M 65 358.143 C 65 369.813, 71.545 389.816, 78.041 398 C 79.982 400.446, 80.057 400.458, 81.513 398.559 C 83.679 395.732, 83.413 394.417, 79.196 387.100 C 74.243 378.506, 69.388 366.763, 67.575 358.993 C 66.780 355.585, 65.876 352.542, 65.565 352.232 C 65.254 351.921, 65 354.581, 65 358.143 M 167.587 359.264 C 165.427 367.714, 159.265 382.489, 155.576 388.065 C 151.244 394.611, 152.766 403.477, 157.267 397.919 C 160.109 394.409, 163.958 386.472, 166.638 378.592 C 169.608 369.862, 171.690 356.055, 170.387 353.728 C 169.646 352.403, 169.027 353.626, 167.587 359.264 M 61.203 369.500 C 60.548 371.700, 60.009 374.923, 60.006 376.662 C 59.994 383.383, 63.115 395.600, 66.769 403.137 L 70.583 411.002 66.160 412.251 C 63.727 412.938, 61.770 413.950, 61.809 414.500 C 62 417.128, 74.044 417.813, 76.521 415.336 C 78.782 413.075, 77.999 409.931, 73.080 401.514 C 67.567 392.080, 64.481 382.108, 62.709 368 C 62.439 365.849, 62.229 366.059, 61.203 369.500 M 173.100 366.119 C 170.135 384.531, 167.321 393.373, 161.520 402.503 C 157.377 409.023, 156.653 412.059, 158.584 414.816 C 159.768 416.507, 161.060 416.978, 164.307 416.900 C 169.359 416.780, 173.049 415.831, 173.309 414.583 C 173.414 414.079, 171.565 413.022, 169.200 412.233 C 166.835 411.445, 165.059 410.507, 165.252 410.150 C 171.751 398.158, 175.015 386.925, 174.886 377 C 174.817 371.741, 173.493 363.676, 173.100 366.119 M 461.639 372.694 C 460.056 374.277, 461.186 376, 463.809 376 C 470.245 376, 470.007 374.435, 470.265 418.487 C 470.528 463.186, 469.941 459.984, 477.600 458.547 L 481 457.909 481 418.022 C 481 372.303, 480.065 376.153, 490.840 377.499 C 505.732 379.360, 511.999 386.851, 510.707 401.244 C 510.034 408.732, 507.508 412.952, 501.977 415.828 C 498.088 417.850, 496.553 418.082, 490.287 417.594 C 484.483 417.142, 483.176 417.295, 483.593 418.380 C 485.024 422.111, 495.522 423.154, 503.715 420.380 C 510.521 418.075, 515.481 413.761, 518.560 407.466 C 520.854 402.779, 521.172 401.044, 520.834 395.066 C 520.325 386.058, 516.853 380.851, 508.462 376.511 L 502.683 373.521 483.592 373.482 C 473.091 373.461, 464 373.131, 463.389 372.749 C 462.779 372.367, 461.991 372.342, 461.639 372.694 M 570.550 372.919 C 569.458 374.686, 570.924 376, 573.988 376 C 580.109 376, 580 375.220, 580 418.952 L 580 458.761 602.750 459.223 C 615.263 459.477, 625.780 459.418, 626.122 459.092 C 626.465 458.766, 627.030 455.238, 627.379 451.250 C 627.904 445.257, 627.760 444, 626.547 444 C 625.677 444, 624.591 445.729, 623.877 448.250 C 621.866 455.348, 621.625 455.448, 606.408 455.475 C 594.114 455.498, 592.706 455.318, 591.420 453.559 C 590.327 452.065, 590 447.748, 590 434.809 L 590 418 603.500 418 C 616.333 418, 617 417.901, 617 416 C 617 414.099, 616.333 414, 603.500 414 L 590 414 590 396.107 C 590 380.713, 590.221 378.129, 591.582 377.607 C 592.452 377.273, 597.991 377, 603.891 377 C 616.328 377, 617.889 377.708, 619.446 384.056 C 620.026 386.418, 621.082 388.541, 621.794 388.774 C 622.794 389.100, 623.021 387.417, 622.794 381.348 L 622.500 373.500 599.500 373.500 C 586.850 373.500, 575.312 373.126, 573.859 372.669 C 572.175 372.139, 570.976 372.230, 570.550 372.919 M 636.554 372.913 C 635.456 374.689, 636.720 375.700, 640.869 376.363 C 643.073 376.715, 645.048 377.682, 645.391 378.576 C 645.726 379.449, 646 397.902, 646 419.582 C 646 460.104, 646.041 460.531, 649.737 458.184 C 650.674 457.589, 651.038 448.754, 651.237 421.804 L 651.500 386.209 678.018 422.355 C 702.609 455.874, 704.752 458.500, 707.518 458.500 L 710.500 458.500 711.028 418 C 711.319 395.725, 711.657 377.423, 711.778 377.329 C 711.900 377.236, 713.462 376.865, 715.250 376.505 C 720.954 375.357, 721.908 374.924, 721.438 373.699 C 720.722 371.832, 696.500 372.193, 696.500 374.071 C 696.500 374.911, 698.011 375.712, 700.301 376.084 C 702.391 376.424, 704.535 377.135, 705.065 377.665 C 705.654 378.254, 705.926 390.924, 705.764 410.238 L 705.500 441.848 680.683 407.424 L 655.866 373 648.683 372.986 C 644.732 372.979, 640.538 372.715, 639.363 372.399 C 638.187 372.084, 636.923 372.315, 636.554 372.913 M 411.486 374.696 C 411.893 375.688, 412.430 377.196, 412.677 378.048 C 412.925 378.899, 405.485 397.348, 396.145 419.045 C 386.805 440.743, 379.330 458.663, 379.535 458.868 C 379.739 459.073, 381.390 458.961, 383.203 458.621 C 386.380 458.024, 386.701 457.503, 392 444.358 C 395.025 436.855, 398.175 429.317, 399 427.608 L 400.500 424.500 416.290 424.224 L 432.081 423.949 433.404 427.224 C 446.580 459.837, 446.158 459.001, 449.434 458.986 C 451.120 458.979, 453.470 458.712, 454.656 458.394 C 457.062 457.749, 459.443 464.171, 432.640 399 L 422.153 373.500 416.449 373.196 C 411.286 372.921, 410.815 373.064, 411.486 374.696 M 531 374.646 C 531 375.303, 532.349 376.137, 533.999 376.500 C 540.026 377.824, 540 377.634, 540 420.223 L 540 459 543.418 459 C 550.483 459, 550 461.973, 550 418.515 C 550 376.379, 549.807 377.919, 555.250 376.619 C 556.763 376.258, 558 375.408, 558 374.731 C 558 373.818, 554.508 373.494, 544.500 373.475 C 534.683 373.457, 531 373.777, 531 374.646 M 728.453 374.500 C 727.679 377.163, 727.344 380.996, 727.889 380.965 C 728.225 380.945, 729.625 380.286, 731 379.500 C 732.945 378.388, 738.213 378.063, 754.750 378.035 C 766.438 378.016, 776 378.197, 776 378.437 C 776 378.677, 773.907 381.940, 771.349 385.687 C 758.807 404.059, 749.459 417.794, 740.509 431 C 735.103 438.975, 729.178 447.585, 727.341 450.134 C 725.503 452.683, 724 455.158, 723.999 455.634 C 723.999 456.110, 734.237 456.500, 746.749 456.500 C 759.262 456.500, 774.900 456.843, 781.500 457.262 L 793.500 458.024 800.414 441.012 L 807.327 424 823.027 424 L 838.728 424 843.506 435.750 C 846.135 442.212, 849.441 450.350, 850.854 453.833 C 853.315 459.899, 853.545 460.141, 856.336 459.583 C 857.939 459.262, 860.094 459, 861.125 459 C 862.156 459, 863 458.390, 863 457.645 C 863 456.900, 860.586 450.487, 857.636 443.395 C 854.686 436.303, 847.183 418.125, 840.962 403 C 834.741 387.875, 829.225 374.938, 828.703 374.250 C 828.153 373.525, 825.517 373, 822.429 373 L 817.102 373 818.556 376.479 C 819.996 379.927, 819.919 380.168, 810.121 402.729 C 804.683 415.253, 797.862 431.125, 794.963 438 C 792.065 444.875, 789.200 450.993, 788.596 451.595 C 787.847 452.343, 784.491 452.453, 778 451.942 C 772.775 451.530, 762.051 451.047, 754.168 450.868 C 746.285 450.689, 739.697 450.308, 739.528 450.022 C 739.358 449.735, 745.972 439.600, 754.225 427.500 C 784.561 383.025, 789.236 375.836, 788.374 374.987 C 787.097 373.731, 728.814 373.257, 728.453 374.500 M 409.256 403.250 L 402.283 419.500 415.779 419.779 C 423.202 419.933, 429.463 419.870, 429.693 419.641 C 430.260 419.074, 417.665 387.049, 416.865 387.021 C 416.515 387.010, 413.091 394.313, 409.256 403.250 M 819.474 395.693 C 817.377 400.537, 814.178 407.988, 812.364 412.250 L 809.067 420 823.140 420 C 833.996 420, 837.101 419.714, 836.720 418.750 C 828.365 397.610, 824.569 388.344, 823.996 387.693 C 823.606 387.249, 821.571 390.849, 819.474 395.693 M 104.257 402.852 C 97.481 406.812, 96.478 409.329, 101.508 409.752 C 104.852 410.033, 113.677 405.572, 115.415 402.722 C 116.247 401.358, 116.150 400.720, 115 399.987 C 112.649 398.488, 110.948 398.942, 104.257 402.852 M 119.667 399.667 C 118.064 401.270, 119.347 403.180, 124.237 406.473 C 129.796 410.217, 134.871 411.066, 136.922 408.594 C 137.876 407.445, 136.738 406.444, 130.671 403.094 C 123.398 399.079, 121.001 398.333, 119.667 399.667 M 108.500 412.055 C 103.553 414.396, 98.188 414.521, 95.114 412.367 C 93.160 410.998, 92.641 410.958, 91.906 412.117 C 89.486 415.938, 92.322 419.281, 99 420.481 C 105.447 421.638, 116 416.265, 116 411.826 C 116 409.519, 113.711 409.589, 108.500 412.055 M 119 411.911 C 119 412.962, 120.298 414.914, 121.884 416.249 C 130.218 423.262, 145.421 421.151, 143.360 413.267 C 142.866 411.378, 142.606 411.324, 140.161 412.599 C 136.451 414.535, 131.270 414.305, 126.141 411.978 C 120.680 409.500, 119 409.484, 119 411.911 M 25 413.932 C 25 415.244, 29.973 418.631, 35.171 420.859 C 41.141 423.418, 54.603 426.584, 65.430 427.975 C 70.342 428.606, 75.067 429.504, 75.930 429.969 C 79.144 431.703, 82.076 435.816, 84.490 441.975 C 87.479 449.600, 89.081 451.497, 95.128 454.563 C 100.437 457.256, 105.932 462.375, 106.145 464.827 C 106.225 465.747, 106.175 473.501, 106.034 482.057 C 105.763 498.531, 106.847 506.774, 110.136 513.250 C 111.995 516.909, 114.844 518.642, 113.578 515.343 C 113.228 514.431, 112.432 509.338, 111.809 504.025 C 110.866 495.995, 110.957 492.099, 112.348 480.932 C 114.720 461.881, 113.025 457.467, 101.202 451.901 C 91.904 447.524, 90.251 445.764, 88.877 438.780 C 86.468 426.534, 81.069 422.672, 64.808 421.562 C 52.594 420.728, 42.980 418.894, 32.968 415.489 C 24.559 412.629, 25 412.715, 25 413.932 M 205.500 414.373 C 198.647 417.332, 185.285 420.141, 172.167 421.382 C 161.919 422.351, 157.301 423.224, 154.847 424.657 C 151.062 426.868, 147.455 432.629, 146.537 437.930 C 145.190 445.708, 144.140 446.951, 135.317 451.202 C 128.217 454.623, 126.550 455.912, 124.336 459.689 C 121.883 463.876, 121.766 464.660, 122.386 472.821 C 124.172 496.348, 124.233 499.602, 123.033 507.663 C 122.342 512.309, 122.016 516.349, 122.308 516.642 C 123.290 517.623, 125.884 512.554, 127.498 506.500 C 128.993 500.893, 129.158 495.689, 128.706 468.221 C 128.637 464.017, 131.387 460.318, 137.572 456.294 C 146.324 450.599, 147.705 449.157, 150.027 443.280 C 152.539 436.926, 156.131 431.535, 158.812 430.101 C 159.763 429.591, 165.726 428.458, 172.062 427.582 C 190.800 424.990, 204.658 420.362, 209.405 415.108 C 211.654 412.619, 210.198 412.345, 205.500 414.373 M 113.945 420.189 C 112.050 421.772, 108.700 423.593, 106.500 424.235 C 104.300 424.877, 102.169 425.875, 101.765 426.451 C 100.351 428.471, 100.962 440.118, 102.672 443.721 C 104.601 447.786, 113.527 454, 117.437 454 C 121.388 454, 129.315 448.564, 131.792 444.156 C 133.523 441.077, 134 438.610, 134 432.742 L 134 425.256 130.077 424.628 C 127.920 424.283, 124.183 422.496, 121.772 420.656 L 117.390 417.311 113.945 420.189 M 140.703 423.865 C 137.720 425.853, 136.969 426.944, 137.203 428.948 C 137.426 430.861, 138.001 431.425, 139.500 431.199 C 143.407 430.610, 147.945 423.134, 145.250 421.726 C 144.838 421.511, 142.791 422.473, 140.703 423.865 M 89 424.326 C 89 426.916, 92.308 430.409, 95.750 431.452 C 97.713 432.048, 97.999 431.776, 97.992 429.317 C 97.986 427.089, 97.161 426.030, 94.044 424.250 C 89.162 421.462, 89 421.465, 89 424.326 M 30.978 425.397 C 35.793 430.677, 50.372 437.536, 63 440.464 C 69.211 441.903, 77 442.506, 77 441.547 C 77 439.591, 74.267 435.873, 72.579 435.531 C 71.435 435.299, 65.550 434.161, 59.500 433.001 C 53.450 431.841, 44.675 429.322, 40 427.403 C 35.325 425.483, 30.825 423.635, 30 423.296 C 29.175 422.957, 29.615 423.902, 30.978 425.397 M 198.496 426.156 C 190.169 429.722, 176.237 433.587, 168.249 434.548 C 162.108 435.286, 159 437.170, 159 440.155 C 159 441.573, 159.752 441.997, 162.250 441.985 C 169.743 441.951, 185.136 437.200, 195 431.878 C 201.017 428.631, 206.691 424.357, 205.957 423.624 C 205.702 423.369, 202.344 424.508, 198.496 426.156 M 106.750 429.080 C 103.733 430.837, 104.828 432, 109.500 432 C 114.461 432, 115.426 430.493, 111.435 428.975 C 108.418 427.828, 108.919 427.817, 106.750 429.080 M 122.750 429.080 C 119.733 430.837, 120.828 432, 125.500 432 C 130.461 432, 131.426 430.493, 127.435 428.975 C 124.418 427.828, 124.919 427.817, 122.750 429.080 M 141.091 434.390 C 140.356 435.276, 139.186 436, 138.491 436 C 137.360 436, 135.720 441.931, 136.587 442.885 C 137.445 443.830, 142.028 439.736, 142.582 437.530 C 143.468 434.001, 142.720 432.427, 141.091 434.390 M 38 434.997 C 38 435.438, 40.476 438.063, 43.503 440.829 C 51.515 448.151, 60.229 451.937, 77.098 455.425 C 79.621 455.946, 79.714 456.239, 80.326 465.560 C 81.084 477.096, 85.117 489.811, 90.129 496.464 C 91.983 498.925, 93.806 500.952, 94.180 500.969 C 94.554 500.986, 93.722 498.199, 92.331 494.776 C 88.558 485.491, 87.037 476.772, 87.017 464.323 C 87.001 453.618, 86.895 453.063, 84.514 451.190 C 82.952 449.961, 78.958 448.786, 73.764 448.027 C 62.852 446.433, 54.532 443.616, 45.450 438.440 C 41.353 436.105, 38 434.556, 38 434.997 M 92 436.474 C 92 437.863, 92.900 439.900, 94 441 C 96.435 443.435, 99.487 443.712, 98.607 441.418 C 98.273 440.548, 98 439.210, 98 438.444 C 98 437.678, 96.650 436.353, 95 435.500 C 92.049 433.974, 92 433.990, 92 436.474 M 195.486 435.022 C 194.639 436.393, 183.963 441.732, 176.513 444.511 C 173.206 445.745, 166.514 447.339, 161.642 448.054 C 148.494 449.984, 148.630 449.790, 147.861 467.660 C 147.321 480.203, 146.806 483.661, 144.537 490 C 140.447 501.425, 140.373 501.979, 143.402 498.500 C 147.042 494.318, 152.593 482.531, 153.903 476.201 C 154.506 473.286, 155 467.557, 155 463.470 C 155 455.163, 153.957 456.183, 164.596 454.090 C 172.383 452.558, 180.355 449.278, 186.872 444.926 C 192.493 441.173, 199.214 434, 197.110 434 C 196.564 434, 195.834 434.460, 195.486 435.022 M 115 439 C 115 439.550, 115.873 440, 116.941 440 C 118.009 440, 119.160 439.550, 119.500 439 C 119.851 438.433, 119.010 438, 117.559 438 C 116.152 438, 115 438.450, 115 439 M 115.500 443.990 C 111.732 444.500, 111.626 444.603, 113.684 445.766 C 116.520 447.368, 119.166 447.330, 121.457 445.655 C 123.236 444.354, 123.234 444.297, 121.398 443.879 C 120.354 443.642, 117.700 443.692, 115.500 443.990 M 93.264 474.250 C 93.543 480.988, 94.507 489.200, 95.407 492.500 C 97.194 499.052, 102.670 511, 103.885 511 C 104.304 511, 103.816 507.738, 102.802 503.750 C 100.296 493.896, 98.684 478.687, 99.433 471.966 C 99.960 467.239, 99.749 466.108, 97.986 464.216 C 96.851 462.997, 95.210 462, 94.340 462 C 92.957 462, 92.822 463.533, 93.264 474.250 M 137.782 463.750 C 136.638 465.060, 136.109 469.016, 135.674 479.500 C 135.303 488.448, 134.347 496.530, 133.027 501.897 C 131.890 506.515, 131.170 510.503, 131.426 510.760 C 133.025 512.358, 140.017 494.325, 141.415 485 C 142.789 475.829, 142.998 472.100, 142.408 467.250 C 141.734 461.710, 140.427 460.721, 137.782 463.750 M 183.607 466.582 C 182.607 469.189, 182.919 473.519, 184.200 474.800 C 186.178 476.778, 188.727 476.179, 192.524 472.845 C 195.751 470.011, 196.274 469.846, 197.649 471.220 C 199.024 472.595, 199.018 473.065, 197.590 475.826 C 195.442 479.979, 195.640 481.012, 198.033 478.139 C 200.500 475.178, 200.563 470.820, 198.171 468.655 C 195.639 466.364, 194.578 466.554, 190.653 470 C 187.054 473.159, 185.523 473.655, 184.494 471.991 C 183.534 470.437, 184.961 467, 186.567 467 C 187.355 467, 188 466.550, 188 466 C 188 464.369, 184.266 464.863, 183.607 466.582 M 43.493 468.416 C 41.916 469.993, 41 472.040, 41 473.986 C 41 477.799, 38.336 479.176, 36.308 476.412 C 35.536 475.361, 35.109 473.713, 35.358 472.751 C 35.921 470.582, 34.419 469.465, 33.647 471.478 C 32.727 473.874, 34.922 478.644, 37.482 479.810 C 40.983 481.405, 44.781 478.165, 45.191 473.232 C 45.400 470.721, 46.040 469.414, 47.165 469.201 C 49.300 468.797, 50.577 472.599, 48.960 474.548 C 47.989 475.718, 48.077 476, 49.409 476 C 53.208 476, 52.179 469.236, 48.043 467.023 C 46.336 466.110, 45.563 466.346, 43.493 468.416 M 51.250 476.662 C 49.564 477.342, 49.659 479, 51.383 479 C 52.765 479, 54.238 482.429, 53.271 483.396 C 52.990 483.677, 49.889 485.291, 46.380 486.984 C 42.871 488.676, 40 490.471, 40 490.971 C 40 493.203, 42.398 492.825, 48.854 489.574 L 55.791 486.080 57.017 489.040 C 57.691 490.668, 58.638 492, 59.121 492 C 59.605 492, 60 491.838, 60 491.641 C 60 491.048, 52.957 475.994, 52.720 476.079 C 52.599 476.122, 51.938 476.385, 51.250 476.662 M 178.982 479.547 C 177.712 482.888, 177.743 483.257, 179.250 482.725 C 179.938 482.482, 183.526 483.794, 187.225 485.642 C 195.071 489.560, 195 489.546, 195 487.184 C 195 485.919, 193.280 484.655, 189.337 483.021 C 186.222 481.730, 182.839 479.839, 181.819 478.819 C 180.013 477.013, 179.938 477.032, 178.982 479.547 M 591 479.257 C 591 480.680, 599.934 486.400, 600.801 485.532 C 601.110 485.223, 599.843 483.402, 597.985 481.485 C 594.624 478.017, 591 476.861, 591 479.257 M 702 480.139 C 702 480.536, 703.013 481.005, 704.250 481.180 C 706.491 481.499, 706.501 481.582, 706.771 502.349 C 707.010 520.765, 707.223 523.128, 708.602 522.599 C 709.461 522.270, 710.577 522, 711.082 522 C 711.587 522, 712 517.950, 712 513 C 712 505.897, 712.299 504, 713.418 504 C 714.198 504, 715.436 503.774, 716.168 503.499 C 717.018 503.179, 719.663 506.428, 723.480 512.481 C 727.839 519.393, 730.243 522.238, 732.345 522.970 C 736.512 524.423, 737.417 523.264, 734.523 520.180 C 733.141 518.706, 729.962 514.202, 727.460 510.171 L 722.910 502.842 726.399 498.981 C 728.317 496.857, 730.177 493.572, 730.532 491.681 C 731.341 487.371, 728.903 482.294, 725.384 480.956 C 722.380 479.814, 702 479.102, 702 480.139 M 307.663 481.477 C 309.598 482.832, 309.804 484.087, 310.160 496.727 C 310.509 509.104, 310.800 510.956, 313.029 515 C 317.259 522.670, 327.449 525.462, 334.818 520.970 C 340.258 517.653, 342.158 511.851, 342.773 496.677 C 343.213 485.836, 343.604 483.396, 345.150 481.850 C 346.950 480.050, 346.845 480.002, 341.250 480.068 C 336.374 480.125, 335.842 480.300, 337.750 481.220 C 339.877 482.247, 340 482.894, 340 493.104 C 340 499.042, 339.490 506.278, 338.867 509.184 C 336.112 522.031, 323.395 525.422, 317.840 514.790 C 315.905 511.087, 315.543 508.577, 315.193 496.450 C 314.791 482.499, 314.804 482.392, 317.144 481.268 C 319.151 480.303, 318.468 480.125, 312.527 480.068 C 306.103 480.005, 305.721 480.116, 307.663 481.477 M 712.461 482.242 C 712.162 483.021, 712.048 487.673, 712.209 492.579 L 712.500 501.500 716.500 501.269 C 722.279 500.935, 725 497.519, 725 490.599 C 725 484.320, 723.483 482.543, 717.252 481.521 C 714.029 480.993, 712.873 481.167, 712.461 482.242 M 173.048 491.430 C 170.012 495.843, 168.991 498.409, 171.118 496.282 C 171.942 495.458, 174.049 496.326, 179.128 499.582 C 182.919 502.012, 186.138 504, 186.281 504 C 186.424 504, 187.625 502.018, 188.948 499.595 C 191.288 495.312, 191.305 495.115, 189.584 492.489 C 188.171 490.332, 187.269 489.896, 185.107 490.329 C 183.124 490.725, 182.077 490.353, 181.191 488.935 C 179.202 485.749, 176.357 486.620, 173.048 491.430 M 353 488.823 C 353 489.342, 353.854 489.990, 354.897 490.263 C 356.647 490.721, 356.799 491.903, 356.866 505.629 C 356.905 513.808, 356.952 520.837, 356.969 521.250 C 356.986 521.663, 357.437 522, 357.972 522 C 358.539 522, 359.059 516.352, 359.222 508.417 L 359.500 494.834 369.853 508.846 C 376.726 518.148, 380.676 522.678, 381.603 522.322 C 382.718 521.894, 383 518.575, 383 505.893 C 383 490.667, 383.084 490, 385 490 C 386.100 490, 387 489.550, 387 489 C 387 488.450, 384.637 488.014, 381.750 488.032 C 377.170 488.060, 376.723 488.233, 378.250 489.392 C 379.749 490.530, 380 492.476, 380 502.958 L 380 515.196 370.229 501.848 C 360.985 489.222, 360.256 488.483, 356.729 488.190 C 354.678 488.019, 353 488.304, 353 488.823 M 393 489 C 393 489.550, 393.627 490, 394.393 490 C 396.644 490, 397.101 492.715, 396.994 505.456 C 396.838 523.916, 396.716 522.887, 399 522.290 C 400.891 521.795, 401 520.926, 401 506.290 C 401 491.654, 401.109 490.784, 403 490.290 C 407.015 489.240, 404.848 488, 399 488 C 395.667 488, 393 488.444, 393 489 M 409.500 489.567 C 410.605 490.398, 414.240 497.876, 417.626 506.285 C 425.837 526.678, 425.924 526.683, 433.457 507.300 C 436.620 499.160, 440.062 491.753, 441.104 490.840 C 443.876 488.413, 443.497 488, 438.500 488 C 436.025 488, 434 488.450, 434 489 C 434 489.550, 434.675 490, 435.500 490 C 436.325 490, 437 490.305, 437 490.679 C 437 492.065, 427.484 516, 426.933 516 C 426.618 516, 423.980 509.700, 421.071 502 L 415.781 488 411.641 488.032 C 407.733 488.062, 407.613 488.148, 409.500 489.567 M 444.500 489 C 444.840 489.550, 445.755 490, 446.534 490 C 447.686 490, 448.002 493.002, 448.225 506.052 L 448.500 522.103 458 522.302 L 467.500 522.500 467.600 519.250 C 467.716 515.478, 466.892 515.068, 465.487 518.199 C 464.431 520.552, 459.715 521.647, 455.355 520.553 C 453.163 520.003, 453 519.479, 453 512.981 L 453 506 457.094 506 C 460.346 506, 461.295 506.411, 461.710 508 C 462.647 511.584, 464 510.107, 464 505.500 C 464 503.025, 463.550 501, 463 501 C 462.450 501, 462 501.675, 462 502.500 C 462 503.611, 460.833 504, 457.500 504 L 453 504 453 497 L 453 490 458.025 490 C 462.464 490, 463.160 490.291, 464 492.500 C 465.317 495.965, 466 495.624, 466 491.500 L 466 488 454.941 488 C 447.823 488, 444.102 488.356, 444.500 489 M 475.663 489.182 C 478.542 490.574, 478.647 491.268, 478.434 507.500 C 478.333 515.200, 478.419 521.795, 478.626 522.156 C 478.833 522.517, 479.883 522.582, 480.959 522.300 C 482.634 521.862, 482.959 520.760, 483.208 514.655 C 483.597 505.154, 485.195 504.899, 490.811 513.442 C 496.233 521.689, 497.575 523, 500.594 523 C 502.931 523, 502.782 522.624, 497.392 514.932 L 491.739 506.865 495.069 503.428 C 499.464 498.895, 499.686 493.847, 495.644 490.370 C 493.140 488.216, 492.004 488.006, 483.194 488.068 C 475.698 488.120, 473.990 488.373, 475.663 489.182 M 511.923 490.923 C 510.315 492.531, 509.002 494.893, 509.004 496.173 C 509.010 499.981, 512.457 504.495, 517.637 507.478 C 524.707 511.548, 525.782 512.691, 525.234 515.554 C 524.276 520.570, 518.919 522.247, 512.468 519.551 C 509.603 518.354, 509 518.337, 509 519.453 C 509 520.945, 513.992 523, 517.615 523 C 521.451 523, 526.813 519.866, 528.038 516.907 C 529.501 513.377, 528.452 508.509, 525.661 505.867 C 524.472 504.743, 521.379 502.738, 518.786 501.413 C 513.341 498.629, 511.434 495.925, 512.937 493.118 C 515.242 488.812, 525 488.803, 525 493.107 C 525 494.148, 525.450 495, 526 495 C 526.550 495, 527 493.425, 527 491.500 L 527 488 520.923 488 C 515.540 488, 514.512 488.334, 511.923 490.923 M 535 488.883 C 535 489.369, 535.900 490.002, 537 490.290 C 538.892 490.785, 539 491.654, 539 506.406 C 539 521.333, 539.086 522, 541 522 C 542.914 522, 543 521.333, 543 506.406 C 543 491.654, 543.108 490.785, 545 490.290 C 549.015 489.240, 546.848 488, 541 488 C 537.700 488, 535 488.398, 535 488.883 M 551 491.559 C 551 493.677, 551.405 494.868, 552 494.500 C 552.550 494.160, 553 493.242, 553 492.460 C 553 490.785, 556.584 489.710, 560.629 490.172 L 563.500 490.500 564 506.500 C 564.275 515.300, 564.837 522.388, 565.250 522.250 C 565.663 522.112, 566.675 522, 567.500 522 C 568.771 522, 569 519.540, 569 505.863 L 569 489.726 575.500 490.248 C 580.622 490.659, 582 490.476, 582 489.385 C 582 488.265, 579.038 488, 566.500 488 L 551 488 551 491.559 M 595.226 490.250 C 595.205 492.206, 589.021 506.968, 582.238 521.250 C 582.042 521.663, 582.758 522, 583.828 522 C 585.274 522, 586.486 520.328, 588.538 515.500 L 591.300 509 597.400 509.003 L 603.500 509.007 606.391 516.056 C 608.470 521.126, 609.687 522.950, 610.723 522.553 C 611.515 522.249, 612.566 522, 613.057 522 C 614.122 522, 614.023 521.729, 606.006 502.750 C 600.591 489.932, 599.479 488, 597.512 488 C 595.840 488, 595.244 488.587, 595.226 490.250 M 632 488.883 C 632 489.369, 632.917 490.006, 634.037 490.299 C 635.981 490.808, 636.068 491.526, 635.946 505.991 C 635.875 514.329, 636.050 521.383, 636.333 521.667 C 637.467 522.801, 649.747 523.021, 653.500 521.975 C 668.279 517.854, 670.596 497.448, 657.093 490.325 C 653.303 488.326, 651.237 488, 642.343 488 C 636.654 488, 632 488.398, 632 488.883 M 673 489 C 673 489.550, 673.675 490, 674.500 490 C 675.771 490, 676 492.444, 676 506 L 676 522 678.500 522 L 681 522 681 506 C 681 492.444, 681.229 490, 682.500 490 C 683.325 490, 684 489.550, 684 489 C 684 488.450, 681.525 488, 678.500 488 C 675.475 488, 673 488.450, 673 489 M 750.500 489.412 C 743.894 492.348, 739.398 500.497, 740.463 507.603 C 742.268 519.641, 755.058 526.274, 766.288 520.995 C 772.962 517.858, 775.377 514.063, 775.818 506.022 C 776.149 500.010, 775.930 499.161, 773.026 495.173 C 771.294 492.793, 768.343 490.206, 766.470 489.423 C 762.233 487.653, 754.470 487.647, 750.500 489.412 M 784.500 489 C 784.840 489.550, 785.758 490, 786.540 490 C 787.624 490, 787.843 491.008, 787.462 494.250 C 786.613 501.470, 785.036 522.370, 785.319 522.653 C 785.467 522.800, 786.543 522.671, 787.712 522.365 C 789.606 521.870, 789.904 520.871, 790.458 513.155 C 790.800 508.395, 791.399 502.530, 791.790 500.123 L 792.500 495.745 798.387 508.373 C 801.625 515.318, 804.652 521, 805.114 521 C 806.386 521, 808.267 517.515, 813.089 506.217 C 815.503 500.561, 817.632 496.396, 817.820 496.959 C 818.008 497.523, 818.688 503.276, 819.331 509.742 C 820.500 521.497, 820.501 521.500, 823.250 521.816 C 826.493 522.190, 826.431 522.843, 824.511 508.500 C 822.411 492.807, 822.504 490.406, 825.250 489.450 C 827.101 488.805, 826.722 488.596, 823.114 488.269 C 820.702 488.051, 818.378 488.238, 817.950 488.686 C 817.521 489.134, 815.379 493.775, 813.188 499 C 810.998 504.225, 808.424 510.300, 807.468 512.500 L 805.729 516.500 798.931 502.250 L 792.134 488 788.008 488 C 785.512 488, 784.126 488.395, 784.500 489 M 845.337 489.436 C 845.684 490.341, 843.120 497.566, 839.414 506.122 C 835.820 514.422, 833.112 521.445, 833.397 521.730 C 834.826 523.159, 837.075 520.501, 839.074 515.018 L 841.299 508.915 847.723 509.208 L 854.146 509.500 856.879 516 C 859.070 521.210, 859.998 522.432, 861.556 522.155 C 862.625 521.965, 863.632 521.683, 863.793 521.529 C 863.954 521.374, 861.012 513.880, 857.255 504.874 C 850.853 489.527, 850.246 488.479, 847.575 488.170 C 845.307 487.908, 844.850 488.166, 845.337 489.436 M 175.473 491.044 C 174.666 492.349, 176.777 495, 178.622 495 C 180.530 495, 180.360 491.352, 178.418 490.607 C 176.336 489.808, 176.227 489.824, 175.473 491.044 M 483.208 497.750 L 483.500 505.500 486.371 505.295 C 490.977 504.967, 493 502.398, 493 496.880 C 493 491.491, 491.488 490, 486.024 490 L 482.916 490 483.208 497.750 M 640.481 492.250 C 640.174 493.488, 640.053 500.350, 640.212 507.500 L 640.500 520.500 645.702 520.801 C 655.554 521.370, 660.304 516.419, 660.381 505.500 C 660.456 494.925, 655.908 490, 646.069 490 C 641.684 490, 640.967 490.289, 640.481 492.250 M 750.844 492.255 C 747.012 495.495, 746 498.112, 746 504.785 C 746 512.642, 747.320 516.015, 751.517 518.880 C 756.428 522.232, 763.290 521.478, 767.147 517.162 C 772.547 511.118, 771.921 498.226, 765.962 492.750 C 762.004 489.114, 754.837 488.879, 750.844 492.255 M 59.452 495.258 C 58.876 496.491, 56.891 500.330, 55.042 503.790 C 52.952 507.698, 52.034 510.434, 52.616 511.016 C 53.198 511.598, 56.003 511.201, 60.026 509.967 C 63.587 508.875, 67.513 507.888, 68.750 507.773 C 71.392 507.527, 71.505 507.049, 69.532 504.441 C 68.334 502.858, 68.058 502.792, 68.032 504.085 C 68.010 505.153, 66.128 506.192, 62.265 507.267 C 59.111 508.145, 56.415 508.748, 56.274 508.608 C 56.134 508.467, 57.598 505.729, 59.528 502.523 C 61.703 498.912, 62.815 495.992, 62.452 494.847 C 61.674 492.398, 60.728 492.527, 59.452 495.258 M 182.441 494.501 C 180.538 495.972, 180.546 496.041, 182.901 498.034 C 185.541 500.268, 186.837 500.206, 188.371 497.774 C 189.087 496.638, 188.999 495.704, 188.070 494.584 C 186.426 492.604, 184.924 492.581, 182.441 494.501 M 595.208 499.739 C 593.993 502.561, 593 505.350, 593 505.935 C 593 506.533, 595.004 507, 597.567 507 C 602.674 507, 602.681 506.963, 599.097 498.553 L 597.416 494.607 595.208 499.739 M 845.448 500.222 C 844.376 503.094, 843.350 505.794, 843.167 506.222 C 842.983 506.650, 844.896 507, 847.417 507 C 850.123 507, 852 506.543, 852 505.884 C 852 504.160, 848.602 495, 847.963 495 C 847.651 495, 846.519 497.350, 845.448 500.222 M 161.959 506.211 C 157.457 511.060, 156.481 512.649, 157.503 513.461 C 158.725 514.430, 161.276 524.057, 160.513 524.820 C 160.323 525.010, 157.773 523.554, 154.847 521.583 C 149.420 517.928, 147.541 517.315, 146.572 518.883 C 145.883 519.998, 161.574 530.381, 162.802 529.622 C 163.321 529.302, 162.923 525.365, 161.874 520.428 C 160.527 514.089, 160.319 511.273, 161.090 509.832 C 162.314 507.545, 162.787 507.806, 170.214 514.870 C 174.199 518.661, 175.030 519.086, 175.590 517.626 C 176.008 516.537, 175.467 515.062, 174.127 513.635 C 172.957 512.390, 172 511.156, 172 510.893 C 172 510.630, 174.319 510.434, 177.153 510.457 C 180.411 510.484, 182.464 510.041, 182.736 509.250 C 183.018 508.432, 182.129 508, 180.165 508 C 175.945 508, 174 507.068, 174 505.048 C 174 503.064, 170.985 500, 169.033 500 C 168.313 500, 165.130 502.795, 161.959 506.211 M 166.135 504.337 C 165.287 505.359, 165.595 506.211, 167.438 507.942 C 171.148 511.427, 174.032 508.175, 170.429 504.571 C 168.508 502.650, 167.577 502.600, 166.135 504.337 M 72.425 509.878 C 72.723 510.362, 70.772 513.694, 68.089 517.284 L 63.210 523.811 66.440 526.942 C 68.334 528.778, 71.166 530.315, 73.288 530.659 C 76.396 531.164, 77.338 530.816, 79.954 528.200 C 82.268 525.886, 83 524.251, 83 521.397 C 83 518.215, 82.290 516.979, 78.361 513.320 C 74.187 509.433, 71.012 507.592, 72.425 509.878 M 71.517 518.237 C 66.911 524.407, 66.707 525.909, 70.204 527.911 C 72.716 529.349, 73.107 529.312, 75.704 527.390 C 81.361 523.202, 82.193 517.667, 77.616 514.668 C 75.393 513.211, 75.173 513.340, 71.517 518.237 M 87.474 521.959 C 87.800 522.486, 86.498 526.032, 84.581 529.839 C 81.351 536.254, 81.045 538, 83.154 538 C 83.606 538, 85.561 534.850, 87.500 531 C 89.439 527.150, 91.582 523.986, 92.263 523.968 C 93.936 523.925, 89.981 521, 88.250 521 C 87.498 521, 87.149 521.431, 87.474 521.959 M 94.759 525.250 C 95.311 525.938, 96.313 530.438, 96.985 535.250 C 97.742 540.672, 98.660 544, 99.398 544 C 100.054 544, 102.956 540.597, 105.848 536.437 C 110.036 530.414, 111.553 528.938, 113.303 529.187 C 114.936 529.420, 115.565 530.270, 115.754 532.500 C 116.697 543.664, 117.202 546, 118.670 546 C 119.946 546, 120.082 545.017, 119.500 540 C 119.117 536.700, 119.026 534, 119.298 534 C 119.569 534, 121.247 536.268, 123.026 539.040 C 124.804 541.812, 126.718 543.927, 127.279 543.740 C 127.839 543.554, 128.919 540.972, 129.678 538.004 C 130.438 535.036, 131.242 532.425, 131.464 532.203 C 131.687 531.980, 132.370 533.756, 132.984 536.149 C 134.662 542.699, 134.816 543, 136.469 543 C 138.401 543, 138.395 542.871, 136.055 533.957 C 134.613 528.463, 134.412 526.364, 135.276 525.829 C 137.017 524.754, 135.722 523.998, 133.246 524.646 C 131.662 525.060, 130.667 526.634, 129.540 530.510 C 128.693 533.424, 128 536.451, 128 537.237 C 128 540.603, 126.415 539.602, 122.488 533.756 L 118.300 527.522 112.731 527.511 C 108.396 527.502, 107.186 527.832, 107.269 529 C 107.328 529.825, 106.088 532.441, 104.513 534.813 C 101.233 539.756, 100.614 539.282, 99.566 531.019 C 98.883 525.643, 97.871 524.046, 95.128 524.015 C 94.160 524.005, 94.052 524.369, 94.759 525.250" stroke="none" fill="#830c2c" fill-rule="evenodd"/></svg>