<?xml version="1.0" standalone="no"?>
<!DOCTYPE svg PUBLIC "-//W3C//DTD SVG 20010904//EN"
 "http://www.w3.org/TR/2001/REC-SVG-20010904/DTD/svg10.dtd">
<svg version="1.0" xmlns="http://www.w3.org/2000/svg"
 width="225.000000pt" height="225.000000pt" viewBox="0 0 225.000000 225.000000"
 preserveAspectRatio="xMidYMid meet">

<g transform="translate(0.000000,225.000000) scale(0.100000,-0.100000)"
fill="#000000" stroke="none">
<path d="M0 1125 l0 -1125 1125 0 1125 0 0 1125 0 1125 -1125 0 -1125 0 0
-1125z m520 0 l0 -225 -165 0 -165 0 0 48 0 47 64 0 c74 0 107 18 137 75 16
28 19 57 19 157 l0 123 55 0 55 0 0 -225z m-190 185 c0 -6 -30 -10 -70 -10
-40 0 -70 4 -70 10 0 6 30 10 70 10 40 0 70 -4 70 -10z m0 -40 c0 -6 -30 -10
-70 -10 -40 0 -70 4 -70 10 0 6 30 10 70 10 40 0 70 -4 70 -10z m0 -30 c0 -6
-30 -10 -70 -10 -40 0 -70 4 -70 10 0 6 30 10 70 10 40 0 70 -4 70 -10z m400
-20 c0 -11 -4 -20 -10 -20 -5 0 -10 5 -10 10 0 6 -7 10 -15 10 -19 0 -21 -100
-3 -118 9 -9 4 -12 -25 -12 -20 0 -37 5 -37 10 0 6 5 10 10 10 6 0 10 25 10
55 0 56 -12 69 -38 43 -9 -9 -12 -7 -12 10 0 20 5 22 65 22 58 0 65 -2 65 -20z
m135 0 c11 -12 19 -36 19 -57 0 -65 -73 -96 -121 -51 -29 27 -31 80 -3 108 27
27 81 26 105 0z m139 -2 c7 -12 6 -24 -4 -42 -12 -24 -11 -28 8 -49 26 -27 28
-37 8 -37 -8 0 -24 14 -36 30 -25 35 -40 39 -40 10 0 -11 5 -20 10 -20 6 0 10
-4 10 -10 0 -5 -13 -10 -30 -10 -16 0 -30 5 -30 10 0 6 5 10 10 10 14 0 12
104 -2 119 -11 10 -3 12 36 9 33 -2 52 -9 60 -20z m132 13 c-3 -4 2 -27 11
-51 l17 -43 17 39 c11 27 13 43 6 52 -7 9 -3 12 17 12 14 0 26 -4 26 -10 0 -5
-4 -10 -8 -10 -4 0 -19 -29 -32 -65 -13 -36 -27 -65 -31 -65 -3 0 -16 28 -29
63 -12 34 -27 68 -32 75 -8 9 -4 12 16 12 15 0 25 -4 22 -9z m214 -12 c0 -16
-3 -19 -12 -12 -7 6 -21 13 -30 16 -14 5 -18 1 -18 -19 0 -23 3 -25 25 -20 21
5 25 3 25 -14 0 -17 -4 -19 -25 -14 -22 5 -25 3 -25 -20 0 -21 5 -26 24 -26
13 0 26 6 29 13 2 6 8 9 12 5 4 -4 5 -14 2 -23 -5 -10 -20 -15 -54 -15 l-48 0
0 75 0 75 48 0 c41 0 47 -3 47 -21z m124 -1 c8 -13 7 -23 -2 -39 -12 -19 -11
-25 8 -51 12 -16 20 -32 17 -35 -9 -9 -46 17 -52 37 -10 32 -28 24 -21 -10 5
-28 3 -30 -24 -30 -17 0 -30 5 -30 10 0 6 5 10 10 10 14 0 12 104 -2 119 -11
10 -3 12 36 9 33 -2 52 -9 60 -20z m166 0 c0 -20 -1 -20 -20 -3 -41 37 -88 -2
-78 -66 3 -25 42 -51 64 -42 19 7 18 43 -2 43 -8 0 -12 5 -9 10 3 6 17 10 31
10 25 0 26 -11 8 -67 -6 -20 -69 -15 -98 8 -58 46 -19 129 61 129 37 0 43 -3
43 -22z m125 -39 c10 -34 25 -63 32 -66 24 -9 14 -23 -17 -23 -25 0 -29 4 -27
23 2 17 -3 22 -23 22 -20 0 -25 -5 -23 -22 2 -18 -2 -23 -22 -23 -27 0 -34 14
-11 23 7 3 16 16 19 29 11 41 37 98 46 98 4 0 16 -27 26 -61z m165 39 c0 -17
-3 -19 -12 -10 -26 26 -38 13 -38 -43 0 -30 5 -55 10 -55 6 0 10 -4 10 -10 0
-5 -16 -10 -35 -10 -19 0 -35 5 -35 10 0 6 5 10 10 10 6 0 10 25 10 55 0 42
-3 55 -15 55 -8 0 -15 -4 -15 -10 0 -5 -4 -10 -10 -10 -5 0 -10 9 -10 20 0 18
7 20 65 20 60 0 65 -2 65 -22z m95 -39 c10 -34 25 -63 32 -66 24 -9 14 -23
-17 -23 -25 0 -29 4 -27 23 2 17 -3 22 -23 22 -20 0 -25 -5 -23 -22 2 -18 -2
-23 -22 -23 -14 0 -25 5 -25 10 0 6 4 10 9 10 8 0 20 26 52 108 14 36 25 26
44 -39z m-1695 21 c0 -6 -30 -10 -70 -10 -40 0 -70 4 -70 10 0 6 30 10 70 10
40 0 70 -4 70 -10z m0 -30 c0 -6 -30 -10 -70 -10 -40 0 -70 4 -70 10 0 6 30
10 70 10 40 0 70 -4 70 -10z m-7 -35 c-2 -5 -32 -11 -68 -13 -54 -2 -65 0 -65
13 0 13 11 15 68 13 38 -2 66 -7 65 -13z m7 -35 c0 -6 -30 -10 -70 -10 -40 0
-70 4 -70 10 0 6 30 10 70 10 40 0 70 -4 70 -10z m754 -62 c8 -32 8 -35 -8
-35 -10 0 -14 10 -13 29 2 34 12 36 21 6z m-463 -10 c1 -22 1 -22 9 2 7 23 8
23 9 3 1 -27 -18 -41 -30 -22 -12 19 -11 39 1 39 6 0 10 -10 11 -22z m59 10
c0 -9 4 -8 10 2 8 12 10 10 10 -9 0 -17 -4 -22 -16 -17 -8 3 -12 2 -9 -4 3 -6
1 -10 -4 -10 -6 0 -11 11 -11 25 0 14 5 25 10 25 6 0 10 -6 10 -12z m60 -13
c0 -14 -4 -25 -10 -25 -5 0 -10 11 -10 25 0 14 5 25 10 25 6 0 10 -11 10 -25z
m60 15 c0 -3 -5 -12 -10 -20 -9 -13 -11 -13 -20 0 -15 22 -12 29 10 27 11 -1
20 -4 20 -7z m50 -15 c0 -16 -6 -25 -15 -25 -9 0 -15 9 -15 25 0 16 6 25 15
25 9 0 15 -9 15 -25z m50 0 c0 -16 -6 -25 -15 -25 -9 0 -15 9 -15 25 0 16 6
25 15 25 9 0 15 -9 15 -25z m46 5 c-1 -22 -21 -28 -22 -7 -1 16 5 27 15 27 5
0 8 -9 7 -20z m42 -5 c0 -14 -4 -25 -9 -25 -5 0 -9 11 -9 25 0 14 4 25 9 25 5
0 9 -11 9 -25z m44 -2 c-4 -20 -7 -23 -10 -10 -2 9 -8 17 -13 17 -6 0 -7 5 -4
10 14 22 32 10 27 -17z m151 13 c6 -16 -11 -36 -30 -36 -7 0 -13 11 -13 25 0
18 5 25 19 25 10 0 21 -6 24 -14z m42 5 c-3 -5 -1 -12 5 -16 13 -8 3 -25 -16
-25 -8 0 -14 10 -14 25 0 16 6 25 16 25 8 0 13 -4 9 -9z m65 -16 c0 -14 -5
-25 -11 -25 -5 0 -7 4 -4 10 3 6 -1 7 -9 4 -16 -6 -23 16 -9 29 15 16 33 6 33
-18z m40 10 c0 -8 5 -15 11 -15 5 0 7 -4 4 -10 -12 -20 -35 -10 -35 15 0 14 5
25 10 25 6 0 10 -7 10 -15z m50 -10 c0 -14 -4 -25 -10 -25 -5 0 -10 11 -10 25
0 14 5 25 10 25 6 0 10 -11 10 -25z m75 0 c0 -10 -6 -20 -12 -22 -8 -3 -13 5
-13 22 0 17 5 25 13 23 6 -3 12 -13 12 -23z m49 3 c-7 -26 -12 -33 -18 -27 -2
2 -7 14 -10 27 -6 18 -4 22 14 22 18 0 20 -4 14 -22z m64 0 c-2 -13 -10 -23
-18 -23 -8 0 -16 10 -18 23 -3 17 2 22 18 22 16 0 21 -5 18 -22z m59 6 c3 -9
0 -20 -8 -25 -23 -14 -29 -11 -29 16 0 28 27 35 37 9z m35 -9 c3 -14 1 -25 -3
-25 -5 0 -9 11 -9 25 0 14 2 25 4 25 2 0 6 -11 8 -25z m95 9 c3 -9 0 -20 -8
-25 -25 -16 -36 -10 -31 16 5 28 29 34 39 9z m30 -21 c-3 -10 -5 -4 -5 12 0
17 2 24 5 18 2 -7 2 -21 0 -30z m89 12 c2 -14 -3 -21 -14 -22 -12 -1 -17 6
-17 23 0 30 27 29 31 -1z m61 9 c8 -21 -13 -42 -28 -27 -13 13 -5 43 11 43 6
0 13 -7 17 -16z m53 7 c0 11 2 11 10 -1 16 -25 11 -38 -15 -36 -19 1 -25 6
-25 25 0 20 2 21 15 11 12 -10 15 -10 15 1z m68 -17 c10 -19 9 -21 -13 -21
-21 0 -22 2 -13 23 6 13 12 23 13 22 1 -2 7 -13 13 -24z"/>
<path d="M786 1217 c-25 -18 -18 -85 11 -104 19 -13 24 -12 43 7 17 17 21 29
16 54 -6 27 -29 56 -46 56 -3 0 -14 -6 -24 -13z"/>
<path d="M940 1194 c0 -33 33 -30 38 4 3 17 -2 22 -17 22 -16 0 -21 -6 -21
-26z"/>
<path d="M1420 1200 c0 -20 5 -30 15 -30 9 0 15 9 15 24 0 13 -7 26 -15 30
-11 4 -15 -2 -15 -24z"/>
<path d="M1726 1181 c-4 -7 -5 -15 -2 -18 9 -9 19 4 14 18 -4 11 -6 11 -12 0z"/>
<path d="M1980 1175 c0 -8 5 -15 10 -15 6 0 10 7 10 15 0 8 -4 15 -10 15 -5 0
-10 -7 -10 -15z"/>
<path d="M1161 1024 c0 -11 3 -14 6 -6 3 7 2 16 -1 19 -3 4 -6 -2 -5 -13z"/>
<path d="M1731 1024 c0 -11 3 -14 6 -6 3 7 2 16 -1 19 -3 4 -6 -2 -5 -13z"/>
<path d="M1910 1030 c0 -5 5 -10 11 -10 5 0 7 5 4 10 -3 6 -8 10 -11 10 -2 0
-4 -4 -4 -10z"/>
</g>
</svg>
