<svg xmlns="http://www.w3.org/2000/svg" width="1859" height="484" viewBox="0 0 1859 484" version="1.1"><path d="M 80 152.369 C 80 261.207, 79.881 258.898, 86.488 278.660 C 95.895 306.800, 114.972 331.759, 139.141 347.549 C 144.993 351.372, 151.181 355.267, 152.891 356.203 L 156 357.907 156 401.453 L 156 445 298 445 L 440 445 440 249.500 L 440 54 291.500 54 L 143 54 143 59.500 L 143 65 136.500 65 L 130 65 130 59.500 L 130 54 105 54 L 80 54 80 152.369 M 81.004 151.750 C 81.008 258.931, 80.970 258.181, 87.486 277.660 C 94.401 298.332, 104.316 314.303, 120 330.028 C 139.468 349.547, 161.272 361.403, 188.266 367.146 C 202.770 370.232, 226.249 370.228, 240.778 367.137 C 294.460 355.718, 333.730 316.781, 346.311 262.500 C 348.338 253.756, 348.407 250.679, 348.740 154.250 L 349.082 55 300.041 55 L 251 55 251 60.500 L 251 66 243.500 66 L 236 66 236 60.500 L 236 55 230 55 L 224 55 224 60.500 L 224 66 216.500 66 L 209 66 209 60.500 L 209 55 203 55 L 197 55 197 60.500 L 197 66 189.500 66 L 182 66 182 60.500 L 182 55 176.500 55 L 171 55 171 60.500 L 171 66 163.500 66 L 156 66 156 60.500 L 156 55 150 55 L 144 55 144 60.500 L 144 66 136.500 66 L 129 66 129 60.500 L 129 55 105 55 L 81 55 81.004 151.750 M 129 90 L 129 99 190 99 L 251 99 251 90 L 251 81 190 81 L 129 81 129 90 M 130 90 L 130 98 143 98 L 156 98 156 90 L 156 82 143 82 L 130 82 130 90 M 129 120 L 129 129 190 129 L 251 129 251 120 L 251 111 190 111 L 129 111 129 120 M 130.696 112.637 C 130.313 113.020, 130 116.633, 130 120.667 L 130 128 143.042 128 L 156.084 128 155.792 120.250 L 155.500 112.500 143.446 112.221 C 136.816 112.067, 131.079 112.255, 130.696 112.637 M 521.641 131.750 C 521.356 133.262, 520.843 140.125, 520.502 147 C 520.160 153.875, 519.653 160.287, 519.373 161.250 C 518.970 162.640, 519.481 163, 521.862 163 C 524.647 163, 524.975 162.597, 526.521 157.280 C 529.105 148.391, 531.717 144.012, 535.309 142.547 C 537.064 141.831, 544.237 140.931, 551.250 140.546 L 564 139.847 564 190.973 C 564 247.328, 564.062 246.737, 557.881 248.892 C 556.132 249.501, 553.456 250, 551.933 250 C 547.646 250, 546 251, 546 253.607 L 546 256 573 256 L 600 256 600 253.545 C 600 250.975, 600.421 251.141, 589.716 249.495 C 584.968 248.765, 582.222 246.462, 581.044 242.221 C 580.399 239.896, 580.009 220.202, 580.006 189.719 C 580.001 147.084, 580.191 140.864, 581.513 140.356 C 582.346 140.037, 588.938 140.199, 596.162 140.716 L 609.297 141.656 612.433 145.078 C 614.244 147.055, 616.328 151.035, 617.367 154.500 C 618.356 157.800, 619.338 161.063, 619.551 161.750 C 619.763 162.438, 621.121 163, 622.567 163 L 625.197 163 624.572 151.250 C 623.291 127.166, 622.961 126.331, 616.781 131.531 L 613.773 134.062 571.297 133.781 L 528.822 133.500 527.001 131.250 C 524.526 128.193, 522.271 128.404, 521.641 131.750 M 1572.547 130.250 C 1572.332 130.938, 1571.879 137.125, 1571.539 144 C 1571.200 150.875, 1570.665 157.963, 1570.350 159.750 C 1569.812 162.804, 1569.953 163, 1572.692 163 C 1575.430 163, 1575.740 162.570, 1577.838 155.855 C 1580.590 147.047, 1583.071 143.440, 1587.267 142.150 C 1589.045 141.603, 1596.013 140.856, 1602.750 140.490 L 1615 139.825 1615 190.263 C 1615 223.498, 1614.635 241.748, 1613.930 243.770 C 1612.724 247.231, 1607.946 250, 1603.181 250 C 1598.644 250, 1597 250.959, 1597 253.607 L 1597 256 1623.500 256 L 1650 256 1650 253.519 C 1650 250.910, 1649.478 250.668, 1641.523 249.591 C 1636.752 248.945, 1632.795 246.205, 1631.873 242.910 C 1631.503 241.584, 1631.155 218.098, 1631.100 190.719 C 1631.012 147.133, 1631.188 140.865, 1632.513 140.356 C 1633.346 140.037, 1639.867 140.194, 1647.004 140.705 C 1658.419 141.522, 1660.274 141.908, 1662.410 143.915 C 1665.160 146.499, 1668.486 153.669, 1669.525 159.250 C 1670.147 162.593, 1670.548 163, 1673.215 163 L 1676.208 163 1675.626 155.250 C 1675.306 150.988, 1674.761 143.338, 1674.416 138.250 C 1673.712 127.881, 1672.989 127.149, 1667.781 131.531 L 1664.773 134.062 1622.466 133.781 L 1580.159 133.500 1577.765 131.250 C 1575.096 128.741, 1573.135 128.366, 1572.547 130.250 M 691.347 132.095 C 668.209 135.960, 648.101 155.448, 642.431 179.500 C 640.457 187.875, 640.225 202.213, 641.931 210.500 C 642.610 213.800, 644.992 220.325, 647.224 225 C 652.692 236.451, 663.149 247.107, 674 252.286 C 702.932 266.095, 737.023 256.961, 753.996 230.852 C 759.831 221.877, 763.154 210.475, 763.717 197.500 C 764.614 176.849, 759.285 162.229, 746.028 148.972 C 731.492 134.436, 712.471 128.565, 691.347 132.095 M 1369.834 132.496 C 1342.370 137.719, 1322.538 154.571, 1316.552 177.772 C 1307.767 211.821, 1324.188 243.685, 1356.028 254.373 C 1372.233 259.813, 1390.553 260.016, 1412 254.992 C 1416.675 253.897, 1421.400 252.796, 1422.500 252.545 C 1424.435 252.104, 1424.489 251.410, 1424.164 231.131 C 1423.841 211.029, 1423.912 210.088, 1425.900 208.100 C 1427.039 206.961, 1429.802 205.735, 1432.039 205.378 C 1435.702 204.792, 1436.076 204.468, 1435.803 202.114 L 1435.500 199.500 1412 199.500 L 1388.500 199.500 1388.500 201.999 C 1388.500 204.325, 1388.948 204.553, 1395 205.299 C 1402.326 206.202, 1405.648 207.945, 1407.045 211.617 C 1408.615 215.748, 1408.235 239.501, 1406.534 243.573 C 1404.553 248.313, 1398.054 251.188, 1387.967 251.786 C 1356.892 253.627, 1333.658 228.658, 1333.731 193.500 C 1333.779 169.900, 1343.233 152.025, 1360.139 143.567 C 1369.057 139.105, 1376.479 137.635, 1387 138.247 C 1403.654 139.214, 1412.866 145.896, 1417.914 160.669 C 1419.613 165.641, 1420.235 166.460, 1422.141 166.228 C 1423.371 166.079, 1424.518 165.815, 1424.692 165.641 C 1424.988 165.345, 1422.027 136.672, 1421.667 136.353 C 1421.575 136.271, 1416.780 135.231, 1411.012 134.041 C 1397.384 131.230, 1379.934 130.575, 1369.834 132.496 M 1510.063 131.880 C 1507.961 132.467, 1506.404 135.658, 1498.766 155.030 C 1460.101 253.090, 1462.999 247.047, 1453.500 249.446 C 1449.230 250.524, 1448.454 251.095, 1448.184 253.354 L 1447.867 256 1468 256 L 1488.133 256 1487.816 253.250 C 1487.543 250.874, 1486.956 250.425, 1483.500 249.945 C 1477.437 249.104, 1475 247.408, 1475 244.030 C 1475 240.890, 1483.557 214.298, 1485.226 212.250 C 1485.977 211.328, 1491.311 211, 1505.525 211 L 1524.804 211 1525.800 213.750 C 1536.703 243.871, 1537.191 245.766, 1534.607 247.911 C 1533.840 248.548, 1531.253 249.400, 1528.857 249.806 C 1525.077 250.447, 1524.458 250.906, 1524.184 253.272 L 1523.867 256 1547 256 L 1570.133 256 1569.816 253.272 C 1569.542 250.904, 1568.924 250.447, 1565.120 249.802 C 1558.777 248.727, 1556.481 246.802, 1553.154 239.765 C 1550.413 233.970, 1538.877 202.535, 1520.859 151.765 C 1516.811 140.360, 1513.275 131.068, 1513 131.114 C 1512.725 131.161, 1511.403 131.506, 1510.063 131.880 M 1737.017 131.942 C 1734.810 132.511, 1733.063 136.309, 1721.329 166.041 C 1714.066 184.443, 1704.430 208.838, 1699.916 220.252 C 1690.501 244.057, 1688.212 247.498, 1680.500 249.446 C 1676.230 250.524, 1675.454 251.095, 1675.184 253.354 L 1674.867 256 1695 256 L 1715.133 256 1714.816 253.250 C 1714.543 250.874, 1713.956 250.425, 1710.500 249.945 C 1699.808 248.462, 1699.641 246.433, 1708.218 222.250 L 1712.208 211 1731.482 211 C 1745.712 211, 1751.011 211.327, 1751.733 212.250 C 1753.298 214.252, 1763 242.022, 1763 244.501 C 1763 247.507, 1761.101 248.917, 1755.857 249.806 C 1752.077 250.447, 1751.458 250.906, 1751.184 253.272 L 1750.867 256 1774 256 L 1797.133 256 1796.816 253.272 C 1796.544 250.923, 1795.917 250.446, 1792.297 249.833 C 1781.749 248.045, 1783.691 252.082, 1755.428 173.205 C 1747.407 150.817, 1740.541 132.231, 1740.172 131.901 C 1739.802 131.572, 1738.383 131.591, 1737.017 131.942 M 782 136.455 C 782 138.517, 782.599 139.006, 785.750 139.512 C 792.435 140.587, 793.470 140.891, 795.500 142.375 C 797.447 143.799, 797.507 145.157, 797.777 193.832 L 798.054 243.826 795.777 246.447 C 794.284 248.165, 792.122 249.250, 789.500 249.599 C 781.548 250.654, 781 250.907, 781 253.519 L 781 256 806 256 L 831 256 831 253.607 C 831 250.967, 829.356 250, 824.869 250 C 819.943 250, 816.215 247.436, 815.052 243.248 C 814.480 241.187, 814.009 231.240, 814.006 221.144 L 814 202.788 821.924 203.148 C 831.780 203.596, 832.569 204.254, 842.129 220.009 C 860.731 250.666, 868.177 257, 885.614 257 C 891.063 257, 891.950 256.734, 892.524 254.925 C 892.886 253.783, 893.029 252.771, 892.841 252.675 C 892.654 252.579, 890.302 251.393, 887.616 250.040 C 882.225 247.325, 874.872 239.355, 865.898 226.500 C 860.281 218.454, 848 198.761, 848 197.800 C 848 197.516, 850.669 195.637, 853.932 193.623 C 865.732 186.339, 871 177.505, 871 165 C 871 148.978, 862.613 138.932, 846.364 135.489 C 841.283 134.412, 832.033 134.030, 810.750 134.017 L 782 134 782 136.455 M 944.184 136.750 C 944.461 139.163, 945.023 139.570, 948.770 140.070 C 953.683 140.726, 957.745 143.420, 960.238 147.676 C 962.344 151.272, 976.256 186.789, 991.504 227.500 C 1002.548 256.986, 1002.790 257.505, 1005.672 257.799 C 1008.578 258.095, 1008.648 257.977, 1013.981 243.799 C 1020.847 225.544, 1037.929 182.777, 1045.859 163.988 C 1054.081 144.505, 1056.275 142.001, 1067.250 139.571 C 1069.347 139.106, 1070 138.373, 1070 136.481 L 1070 134 1049 134 L 1028 134 1028 136.481 C 1028 138.389, 1028.635 139.087, 1030.750 139.504 C 1032.263 139.802, 1035.300 140.598, 1037.500 141.273 C 1042.925 142.937, 1043.049 145.324, 1038.437 159.288 C 1035.571 167.965, 1018.400 213.583, 1011.820 230 C 1010.902 232.289, 1010.487 231.656, 1006.895 222.500 C 996.847 196.890, 978 146.153, 978 144.717 C 978 142.680, 981.774 140, 984.641 140 C 988.353 140, 990 138.892, 990 136.393 L 990 134 966.934 134 L 943.867 134 944.184 136.750 M 1085 136.421 C 1085 138.315, 1085.653 138.967, 1088 139.421 C 1101.569 142.041, 1100.443 137.396, 1100.788 192.206 C 1100.980 222.682, 1100.716 239.341, 1099.999 242.004 C 1098.761 246.602, 1095.892 248.865, 1090.356 249.610 C 1082.545 250.662, 1082 250.917, 1082 253.519 L 1082 256 1127.500 256 C 1152.525 256, 1173 255.881, 1173 255.735 C 1173 255.589, 1174.350 249.482, 1176 242.165 C 1177.650 234.847, 1179 228.216, 1179 227.430 C 1179 226.530, 1177.980 226.010, 1176.250 226.027 C 1173.841 226.050, 1173.144 226.852, 1170.623 232.495 C 1166.828 240.991, 1162.153 246.350, 1157.327 247.736 C 1151.182 249.501, 1138.100 250.165, 1130.097 249.118 C 1124.236 248.351, 1122.153 247.608, 1120.097 245.554 L 1117.500 242.958 1117.198 219.324 L 1116.895 195.690 1131.239 196.271 C 1139.127 196.591, 1146.752 197.385, 1148.181 198.037 C 1151.121 199.376, 1152.884 202.183, 1153.885 207.121 C 1154.438 209.841, 1155.100 210.562, 1157.286 210.816 L 1160 211.133 1160 193 L 1160 174.867 1157.348 175.184 C 1155.152 175.446, 1154.469 176.285, 1153.369 180.077 C 1151.064 188.020, 1150.032 188.451, 1132.379 188.840 L 1116.963 189.180 1117.232 165.340 L 1117.500 141.500 1133.723 141.225 C 1155.988 140.848, 1158.447 142.102, 1162.710 156 C 1163.637 159.025, 1164.479 161.634, 1164.580 161.799 C 1164.681 161.963, 1165.929 161.805, 1167.353 161.448 L 1169.942 160.798 1169.407 149.649 C 1169.113 143.517, 1168.668 137.488, 1168.417 136.250 L 1167.962 134 1126.481 134 L 1085 134 1085 136.421 M 1195 136.346 C 1195 138.323, 1195.623 138.961, 1198 139.421 C 1199.650 139.739, 1202.303 140.251, 1203.896 140.557 C 1205.489 140.863, 1207.627 142.035, 1208.646 143.161 C 1210.387 145.083, 1210.518 148.088, 1210.796 192.354 C 1210.959 218.284, 1210.822 240.984, 1210.492 242.798 C 1209.779 246.711, 1205.151 249.991, 1200.332 249.996 C 1195.640 250.002, 1194 250.937, 1194 253.607 L 1194 256 1218.566 256 L 1243.133 256 1242.816 253.250 C 1242.526 250.728, 1242.055 250.446, 1237.121 249.844 C 1227.644 248.687, 1227.551 248.444, 1227.194 223.974 L 1226.888 203 1233.694 203.004 C 1242.746 203.009, 1245.520 204.819, 1251.546 214.657 C 1273.810 251.001, 1278.943 255.800, 1296.603 256.784 C 1304.291 257.212, 1304.735 257.123, 1305.280 255.036 C 1305.750 253.240, 1305.225 252.574, 1302.405 251.396 C 1295.834 248.650, 1286.972 239.021, 1276.194 222.914 C 1268.772 211.823, 1261 198.840, 1261 197.534 C 1261 196.910, 1262.912 195.455, 1265.250 194.303 C 1271.942 191.003, 1277.636 185.441, 1280.689 179.224 C 1283.101 174.313, 1283.500 172.293, 1283.500 165 C 1283.500 154.061, 1280.235 146.642, 1273.165 141.510 C 1264.176 134.987, 1261.983 134.643, 1226.750 134.227 L 1195 133.851 1195 136.346 M 688.419 139.822 C 675.089 144.430, 664.977 157.182, 661.447 173.837 C 659.342 183.769, 659.606 200.799, 662.022 210.876 C 666.302 228.731, 677.723 243.969, 690.683 249.117 C 699.450 252.599, 712.437 252.416, 720.112 248.702 C 730.490 243.679, 738.818 232.672, 742.641 218.929 C 745.387 209.053, 745.151 186.100, 742.196 175.701 C 736.739 156.501, 727.143 145.101, 712.199 140.067 C 704.654 137.525, 695.340 137.429, 688.419 139.822 M 819.259 140.643 C 814.316 141.732, 814 143.539, 814 170.723 L 814 196 823.374 196 C 834.904 196, 840.058 194.331, 845.745 188.755 C 851.464 183.148, 853.512 177.499, 853.451 167.500 C 853.375 155.047, 848.776 147.065, 839.218 142.792 C 834.996 140.905, 823.625 139.680, 819.259 140.643 M 1231.585 140.980 C 1229.982 141.494, 1228.302 142.497, 1227.851 143.208 C 1227.400 143.918, 1227.024 156.137, 1227.015 170.361 L 1227 196.221 1237.750 195.811 C 1250.195 195.337, 1254.604 193.617, 1260.232 187.042 C 1264.572 181.972, 1266.202 176.577, 1266.166 167.405 C 1266.119 155.359, 1260.701 146.280, 1251.189 142.305 C 1246.878 140.504, 1235.471 139.733, 1231.585 140.980 M 129 149.992 L 129 159 190.039 159 L 251.078 159 250.789 150.250 L 250.500 141.500 189.750 141.242 L 129 140.985 129 149.992 M 130 150.500 L 130 158 143 158 L 156 158 156 150.500 L 156 143 143 143 L 130 143 130 150.500 M 1496.775 179.236 L 1488.244 202.500 1504.764 202.775 C 1513.850 202.926, 1521.442 202.891, 1521.635 202.698 C 1522.044 202.289, 1506.698 157.365, 1505.865 156.531 C 1505.558 156.224, 1501.467 166.441, 1496.775 179.236 M 1732.030 156.073 C 1732.004 156.564, 1717.457 196.276, 1715.481 201.250 C 1714.835 202.876, 1716.008 203, 1732 203 C 1745.360 203, 1749.107 202.720, 1748.736 201.750 C 1748.472 201.063, 1744.999 191.050, 1741.017 179.500 C 1734.489 160.567, 1732.120 154.390, 1732.030 156.073 M 129.674 171.659 C 129.303 172.030, 129 176.083, 129 180.667 L 129 189 190.039 189 L 251.078 189 250.789 180.250 L 250.500 171.500 190.424 171.242 C 157.383 171.101, 130.045 171.288, 129.674 171.659 M 130 180.500 L 130 188 143 188 L 156 188 156 180.500 L 156 173 143 173 L 130 173 130 180.500 M 129 210.500 L 129 219 190 219 L 251 219 251 210.500 L 251 202 190 202 L 129 202 129 210.500 M 130 210.500 L 130 218 143 218 L 156 218 156 210.500 L 156 203 143 203 L 130 203 130 210.500 M 129.211 240.750 L 129.500 249.500 190 249.500 L 250.500 249.500 250.789 240.750 L 251.078 232 190 232 L 128.922 232 129.211 240.750 M 130 240.500 L 130 248 143 248 L 156 248 156 240.500 L 156 233 143 233 L 130 233 130 240.500 M 129.211 270.750 L 129.500 279.500 190 279.500 L 250.500 279.500 250.789 270.750 L 251.078 262 190 262 L 128.922 262 129.211 270.750 M 130 270.500 L 130 278 143 278 L 156 278 156 270.500 L 156 263 143 263 L 130 263 130 270.500 M 925.042 293.922 C 924.469 294.992, 924 296.089, 924 296.359 C 924 297.130, 934.364 299.970, 934.964 299.363 C 935.508 298.813, 930.918 294.701, 927.792 292.938 C 926.497 292.207, 925.832 292.445, 925.042 293.922 M 873 305.250 C 873 307.863, 873.450 310, 874 310 C 874.550 310, 875 309.357, 875 308.571 C 875 306.220, 877.949 304, 881.071 304 L 884 304 884 317.594 C 884 330.346, 883.876 331.220, 882 331.710 C 877.533 332.878, 880.472 334, 888 334 C 892.400 334, 896 333.581, 896 333.070 C 896 332.558, 894.987 331.995, 893.750 331.820 C 891.557 331.508, 891.493 331.151, 891.222 317.750 L 890.944 304 894.559 304 C 897.657 304, 898.336 304.429, 899.306 307 C 900.952 311.361, 902 310.681, 902 305.250 L 902 300.500 887.500 300.500 L 873 300.500 873 305.250 M 1282 305.250 C 1282 310.681, 1283.048 311.361, 1284.694 307 C 1285.664 304.429, 1286.343 304, 1289.441 304 L 1293.056 304 1292.778 317.750 C 1292.507 331.151, 1292.443 331.508, 1290.250 331.820 C 1289.013 331.995, 1288 332.558, 1288 333.070 C 1288 333.581, 1291.825 334, 1296.500 334 C 1301.175 334, 1305 333.764, 1305 333.475 C 1305 333.187, 1303.875 332.523, 1302.500 332 C 1300.003 331.051, 1300 331.031, 1300 317.525 L 1300 304 1303.587 304 C 1306.654 304, 1307.338 304.435, 1308.306 307 C 1309.952 311.361, 1311 310.681, 1311 305.250 L 1311 300.500 1296.500 300.500 L 1282 300.500 1282 305.250 M 623.544 301.928 C 623.229 302.438, 623.824 303.127, 624.866 303.458 C 627.210 304.202, 628 307.866, 628 318 C 628 327.482, 627.172 332, 625.434 332 C 624.710 332, 623.840 332.450, 623.500 333 C 623.109 333.633, 625.656 334, 630.441 334 C 634.814 334, 638 333.578, 638 333 C 638 332.450, 637.373 332, 636.607 332 C 634.408 332, 634 329.644, 634 316.953 C 634 306.094, 634.172 304.978, 636 304 C 637.100 303.411, 638 302.495, 638 301.965 C 638 300.728, 624.308 300.693, 623.544 301.928 M 656 301.712 C 656 302.104, 657.120 303.342, 658.488 304.462 C 660.156 305.828, 662.731 311.115, 666.300 320.500 C 669.501 328.919, 672.159 334.500, 672.968 334.500 C 673.761 334.500, 676.428 329.166, 679.467 321.500 C 685.752 305.649, 686.465 304.305, 689.013 303.496 C 692.563 302.369, 690.055 301, 684.441 301 C 679.261 301, 677.208 302.375, 680.500 303.638 C 682.675 304.473, 682.380 306.753, 678.845 316.457 C 676.773 322.144, 675.412 324.668, 674.879 323.809 C 674.433 323.089, 672.629 318.509, 670.869 313.632 C 667.965 305.584, 667.824 304.678, 669.335 303.832 C 672.726 301.935, 670.800 301, 663.500 301 C 659.375 301, 656 301.321, 656 301.712 M 803.923 303.923 C 798.930 308.916, 800.077 315.087, 806.737 319.072 C 812.793 322.695, 815 325.117, 815 328.139 C 815 334.438, 806.899 333.942, 803.391 327.428 C 800.877 322.759, 799.603 323.113, 800.423 328.250 C 801.271 333.556, 801.571 333.842, 807.070 334.596 C 813.470 335.473, 818.629 333.131, 820.580 328.463 C 823.094 322.446, 821.100 318.940, 812.360 314.008 C 807.883 311.481, 807 310.523, 807 308.191 C 807 302.407, 812.282 301.169, 816.347 306 C 819.404 309.634, 820 309.727, 820 306.571 C 820 302.728, 817.473 301, 811.852 301 C 807.653 301, 806.375 301.471, 803.923 303.923 M 839.500 302 C 839.160 302.550, 839.326 303, 839.870 303 C 840.413 303, 841.564 303.707, 842.429 304.571 C 843.680 305.823, 843.997 308.523, 843.985 317.821 C 843.969 330.082, 843.728 331.097, 840.500 332.540 C 838.870 333.268, 839.287 333.497, 842.750 333.774 C 845.087 333.962, 848.912 333.962, 851.250 333.774 C 854.713 333.497, 855.130 333.268, 853.500 332.540 C 850.272 331.097, 850.031 330.082, 850.015 317.821 C 850.003 308.523, 850.320 305.823, 851.571 304.571 C 852.436 303.707, 853.587 303, 854.130 303 C 854.674 303, 854.840 302.550, 854.500 302 C 854.160 301.450, 850.785 301, 847 301 C 843.215 301, 839.840 301.450, 839.500 302 M 925.316 315.750 C 920.957 326.645, 918.838 330.758, 917.207 331.487 C 913.547 333.124, 914.694 334, 920.500 334 C 926.275 334, 927.062 333.497, 924.367 331.527 C 922.965 330.501, 922.905 329.817, 923.945 326.667 C 925.099 323.171, 925.364 323, 929.629 323 C 933.788 323, 934.204 323.243, 935.551 326.468 C 937.386 330.859, 937.375 332, 935.500 332 C 934.675 332, 934 332.450, 934 333 C 934 333.578, 937.167 334, 941.500 334 C 949.163 334, 950.748 333.241, 946.750 331.487 C 945.009 330.723, 943.279 327.164, 939.104 315.750 C 936.098 307.533, 933.156 301, 932.462 301 C 931.777 301, 928.561 307.637, 925.316 315.750 M 1100.231 302.252 C 1095.904 303.639, 1090.279 309.996, 1089.445 314.440 C 1088.015 322.067, 1091.376 329.499, 1097.632 332.541 C 1101.643 334.492, 1112.126 335.170, 1117 333.794 C 1119.314 333.141, 1119.474 332.708, 1119.149 327.984 C 1118.887 324.161, 1119.239 322.393, 1120.554 320.940 C 1122.278 319.035, 1122.167 319.001, 1114.405 319.068 C 1107.622 319.126, 1106.855 319.299, 1109 320.290 C 1112.302 321.815, 1112.966 322.880, 1112.985 326.679 C 1113.001 330.144, 1110.827 333.002, 1108.179 332.996 C 1105.093 332.989, 1099.895 328.994, 1098.440 325.510 C 1095.237 317.844, 1097.453 307.368, 1102.872 304.566 C 1108.952 301.422, 1113.674 303.013, 1117.691 309.559 C 1118.724 311.241, 1118.890 310.883, 1118.941 306.867 C 1118.992 302.882, 1118.685 302.149, 1116.750 301.630 C 1113.341 300.717, 1103.913 301.072, 1100.231 302.252 M 1140 301.933 C 1140 302.446, 1140.900 303.151, 1142 303.500 C 1143.869 304.093, 1144 305.013, 1144 317.592 L 1144 331.050 1141.250 332.275 C 1138.864 333.338, 1140.140 333.537, 1150.885 333.782 C 1157.696 333.937, 1163.473 333.860, 1163.722 333.611 C 1164.739 332.595, 1165.730 325.951, 1164.938 325.462 C 1164.469 325.172, 1163.383 326.293, 1162.524 327.953 C 1160.910 331.074, 1157.926 332.410, 1153.852 331.833 C 1151.535 331.505, 1151.496 331.304, 1151.221 318.301 C 1150.960 305.912, 1151.067 305.034, 1152.971 304.015 C 1156.784 301.975, 1155.015 301, 1147.500 301 C 1143.375 301, 1140 301.420, 1140 301.933 M 1183 301.965 C 1183 302.495, 1183.900 303.411, 1185 304 C 1186.843 304.986, 1187 306.094, 1187 318.129 C 1187 330.346, 1186.871 331.221, 1185 331.710 C 1180.636 332.852, 1183.394 334, 1190.500 334 C 1197.606 334, 1200.364 332.852, 1196 331.710 C 1194.124 331.220, 1194 330.346, 1194 317.661 C 1194 304.981, 1194.126 304.095, 1196.015 303.495 C 1197.123 303.144, 1197.771 302.438, 1197.456 301.928 C 1196.692 300.693, 1183 300.728, 1183 301.965 M 1248.110 302.396 C 1245.369 303.915, 1243.087 307.571, 1243.035 310.527 C 1242.981 313.632, 1245.703 316.835, 1251.605 320.610 C 1257.980 324.689, 1259.406 328.038, 1256.153 331.292 C 1253.306 334.139, 1249.334 332.743, 1246.103 327.760 C 1243.210 323.298, 1242.091 323.625, 1242.915 328.692 C 1244.665 339.456, 1264.085 335.614, 1263.968 324.527 C 1263.926 320.517, 1261.980 318.120, 1255.816 314.490 C 1249.385 310.702, 1248.227 308.991, 1249.783 305.578 C 1251.893 300.947, 1258.313 302.610, 1260.341 308.313 C 1260.696 309.311, 1261.364 309.893, 1261.826 309.607 C 1262.964 308.904, 1262.001 302.683, 1260.612 301.765 C 1258.790 300.561, 1250.682 300.970, 1248.110 302.396 M 1433.544 301.928 C 1433.229 302.438, 1433.877 303.144, 1434.985 303.495 C 1436.874 304.095, 1437 304.981, 1437 317.661 C 1437 330.346, 1436.876 331.220, 1435 331.710 C 1430.636 332.852, 1433.394 334, 1440.500 334 C 1447.606 334, 1450.364 332.852, 1446 331.710 C 1444.129 331.221, 1444 330.346, 1444 318.129 C 1444 306.094, 1444.157 304.986, 1446 304 C 1447.100 303.411, 1448 302.495, 1448 301.965 C 1448 300.728, 1434.308 300.693, 1433.544 301.928 M 1545.544 301.928 C 1545.229 302.438, 1545.877 303.144, 1546.985 303.495 C 1548.874 304.095, 1549 304.981, 1549 317.661 C 1549 330.346, 1548.876 331.220, 1547 331.710 C 1542.636 332.852, 1545.394 334, 1552.500 334 C 1559.606 334, 1562.364 332.852, 1558 331.710 C 1556.129 331.221, 1556 330.346, 1556 318.129 C 1556 306.094, 1556.157 304.986, 1558 304 C 1559.100 303.411, 1560 302.495, 1560 301.965 C 1560 300.728, 1546.308 300.693, 1545.544 301.928 M 1660.753 303.279 C 1656.144 306.069, 1654.010 309.010, 1652.850 314.172 C 1649.219 330.331, 1669.475 341.760, 1681.114 330.121 C 1689.530 321.705, 1687.990 308.152, 1678.016 302.852 C 1673.083 300.230, 1665.477 300.418, 1660.753 303.279 M 1705.576 301.877 C 1705.243 302.415, 1705.836 303.131, 1706.893 303.466 C 1709.799 304.388, 1710.026 306.039, 1708.926 318.252 C 1708.103 327.392, 1707.547 329.811, 1705.957 331.160 C 1704.881 332.073, 1704 333.086, 1704 333.410 C 1704 333.735, 1706.700 334, 1710 334 C 1713.333 334, 1716 333.556, 1716 333 C 1716 332.450, 1715.148 332, 1714.107 332 C 1711.565 332, 1710.978 330.070, 1711.118 322.168 C 1711.363 308.351, 1711.981 308.315, 1717.343 321.811 C 1720.007 328.515, 1722.497 334, 1722.877 334 C 1723.257 334, 1726.122 328.038, 1729.243 320.750 L 1734.917 307.500 1734.958 319.344 C 1734.997 330.364, 1734.861 331.224, 1733 331.710 C 1728.636 332.852, 1731.394 334, 1738.500 334 C 1745.497 334, 1748.378 332.855, 1744.158 331.752 C 1742.645 331.356, 1742.199 329.880, 1741.658 323.484 C 1740.467 309.399, 1740.757 305.201, 1743 304 C 1746.377 302.193, 1745.237 301, 1740.132 301 L 1735.264 301 1730.392 312.144 L 1725.521 323.287 1721.763 314.894 C 1715.503 300.913, 1716.002 301.537, 1710.808 301.199 C 1708.263 301.033, 1705.909 301.338, 1705.576 301.877 M 1773.316 315.750 C 1768.957 326.645, 1766.838 330.758, 1765.207 331.487 C 1761.547 333.124, 1762.694 334, 1768.500 334 C 1774.275 334, 1775.062 333.497, 1772.367 331.527 C 1770.965 330.501, 1770.905 329.817, 1771.945 326.667 C 1773.094 323.184, 1773.376 323, 1777.552 323 C 1781.409 323, 1782.136 323.362, 1783.474 325.950 C 1785.410 329.694, 1785.420 332, 1783.500 332 C 1782.675 332, 1782 332.450, 1782 333 C 1782 333.578, 1785.167 334, 1789.500 334 C 1797.163 334, 1798.748 333.241, 1794.750 331.487 C 1793.009 330.723, 1791.279 327.164, 1787.104 315.750 C 1784.098 307.533, 1781.156 301, 1780.462 301 C 1779.777 301, 1776.561 307.637, 1773.316 315.750 M 520.663 303.182 C 523.504 304.556, 523.970 306.638, 523.986 318.027 C 524.002 328.795, 525.061 331.292, 530.599 333.606 C 534.978 335.436, 538.425 335.367, 542.643 333.365 C 547.585 331.020, 549.001 327.462, 549.667 315.715 C 550.167 306.909, 550.540 305.262, 552.373 303.772 C 554.441 302.093, 554.324 302.044, 548.191 302.022 C 544.234 302.008, 542.112 302.373, 542.500 303 C 542.840 303.550, 543.718 304, 544.452 304 C 546.450 304, 547 306.359, 547 314.933 C 547 327.220, 544.907 331, 538.105 331 C 532.197 331, 530.033 326.131, 530.011 312.789 C 530.002 307.165, 530.354 305.748, 532.189 304.039 L 534.377 302 526.439 302.068 C 520.167 302.121, 518.954 302.355, 520.663 303.182 M 572.250 303.572 L 575 305.064 575 318.126 C 575 330.346, 574.871 331.221, 573 331.710 C 568.985 332.760, 571.152 334, 577 334 C 583.280 334, 584.545 333.152, 580.750 331.487 C 578.656 330.568, 578.480 329.787, 578.215 320.208 L 577.929 309.916 581.277 313.708 C 583.119 315.794, 587.908 321.438, 591.920 326.250 C 595.933 331.063, 599.617 335, 600.108 335 C 600.598 335, 601.005 329.712, 601.011 323.250 C 601.025 308.199, 601.645 304.486, 604.364 303.169 C 606.046 302.355, 605.012 302.144, 599.500 302.174 C 593.469 302.207, 592.876 302.362, 595.216 303.287 C 598.329 304.519, 599.360 308.704, 598.818 317.904 L 598.500 323.309 589.220 312.654 L 579.939 302 574.720 302.040 C 569.523 302.080, 569.512 302.087, 572.250 303.572 M 709.926 303.750 C 711.953 305.402, 712.058 306.231, 711.787 318.500 C 711.508 331.120, 711.434 331.509, 709.250 331.820 C 708.013 331.995, 707 332.558, 707 333.070 C 707 333.596, 712.630 334, 719.955 334 L 732.909 334 733.575 330.453 C 734.229 326.965, 733.192 324.188, 732.238 326.875 C 731.018 330.311, 727.900 332.110, 723.695 331.805 L 719.500 331.500 719.202 325.250 L 718.905 319 722.484 319 C 724.743 319, 726.275 319.553, 726.638 320.500 C 727.848 323.653, 728.998 321.787, 728.948 316.750 C 728.897 311.685, 728.840 311.579, 727.326 313.750 C 726.224 315.330, 724.749 316, 722.378 316 L 719 316 719 310 L 719 304 723.521 304 C 727.374 304, 728.211 304.370, 729.182 306.500 C 730.791 310.031, 732 309.602, 732 305.500 L 732 302 719.889 302 C 708.204 302, 707.854 302.061, 709.926 303.750 M 753.750 303.674 C 755.887 305.165, 756 305.895, 756 318.216 C 756 330.346, 755.870 331.221, 754 331.710 C 749.636 332.852, 752.394 334, 759.500 334 C 766.606 334, 769.364 332.852, 765 331.710 C 763.301 331.266, 763 330.346, 763 325.594 C 763 322.517, 763.380 320, 763.845 320 C 765.051 320, 767.249 322.777, 770.367 328.240 C 772.998 332.849, 773.422 333.116, 780.249 334.466 C 782.699 334.951, 783.298 333.490, 781.316 331.863 C 780.402 331.113, 777.974 327.849, 775.919 324.609 L 772.183 318.717 775.091 316.270 C 779.077 312.916, 779.207 307.095, 775.365 304.073 C 773.064 302.262, 771.388 302.007, 762.115 302.052 C 752.174 302.102, 751.643 302.205, 753.750 303.674 M 993.750 303.220 C 995.918 304.266, 996 304.796, 996 317.746 C 996 330.346, 995.875 331.220, 994 331.710 C 992.900 331.998, 992 332.671, 992 333.205 C 992 333.795, 996.219 334.041, 1002.750 333.830 C 1014.870 333.438, 1019.582 331.800, 1023.201 326.718 C 1026.252 322.433, 1026.865 313.762, 1024.436 309.251 C 1021.332 303.487, 1016.923 301.989, 1003.290 302.068 C 994.062 302.121, 991.989 302.371, 993.750 303.220 M 1046.750 303.674 C 1048.867 305.151, 1049 305.939, 1049 317.040 C 1049 330.196, 1048.625 332, 1045.893 332 C 1044.852 332, 1044 332.450, 1044 333 C 1044 333.615, 1048.985 334, 1056.955 334 L 1069.909 334 1070.575 330.453 C 1071.319 326.487, 1070.354 324.615, 1068.903 327.209 C 1066.786 330.991, 1064.779 332.105, 1060.627 331.801 L 1056.500 331.500 1056.202 325.250 L 1055.905 319 1059.484 319 C 1061.743 319, 1063.275 319.553, 1063.638 320.500 C 1064.848 323.653, 1065.998 321.787, 1065.948 316.750 C 1065.897 311.685, 1065.840 311.579, 1064.326 313.750 C 1063.224 315.330, 1061.749 316, 1059.378 316 L 1056 316 1056 310 L 1056 304 1059.977 304 C 1063.116 304, 1064.299 304.527, 1065.592 306.500 C 1067.859 309.960, 1069 309.626, 1069 305.500 L 1069 302 1056.750 302.052 C 1045.323 302.101, 1044.651 302.210, 1046.750 303.674 M 1330.750 303.674 C 1332.826 305.123, 1333 306.009, 1333 315.154 C 1333 327.508, 1334.421 331.442, 1339.678 333.639 C 1344.215 335.534, 1350.262 334.936, 1353.913 332.230 C 1357.511 329.563, 1358.875 324.906, 1358.959 315 C 1359.035 305.990, 1359.335 304.990, 1362.500 303.195 C 1364.136 302.267, 1363.224 302.063, 1357.500 302.070 C 1350.637 302.080, 1350.555 302.110, 1353.336 303.617 L 1356.173 305.154 1355.836 315.975 C 1355.442 328.649, 1354.216 331, 1348 331 C 1341.732 331, 1340.556 328.686, 1340.169 315.587 C 1339.846 304.682, 1339.900 304.348, 1342.169 303.257 C 1344.103 302.326, 1343.137 302.133, 1336.500 302.120 C 1328.944 302.106, 1328.625 302.192, 1330.750 303.674 M 1382.750 303.674 C 1384.886 305.164, 1385 305.898, 1385 318.147 L 1385 331.050 1382.250 332.275 C 1379.795 333.369, 1380.493 333.531, 1388.754 333.788 C 1393.843 333.946, 1399.891 333.568, 1402.193 332.948 C 1413.152 329.997, 1418.459 315.938, 1411.806 307.480 C 1408.354 303.092, 1404.304 301.994, 1391.782 302.052 C 1381.235 302.101, 1380.647 302.207, 1382.750 303.674 M 1494.777 303.557 C 1496.881 305.030, 1497 305.812, 1497 318.150 C 1497 330.346, 1496.871 331.221, 1495 331.710 C 1490.387 332.916, 1493.588 334, 1501.750 333.994 C 1512.983 333.987, 1517.578 332.657, 1522.145 328.091 C 1529.891 320.344, 1527.906 307.365, 1518.364 303.379 C 1516.223 302.484, 1511.112 302, 1503.810 302 C 1493.338 302, 1492.710 302.108, 1494.777 303.557 M 1606.777 303.557 C 1608.881 305.030, 1609 305.812, 1609 318.150 C 1609 330.346, 1608.871 331.221, 1607 331.710 C 1602.636 332.852, 1605.394 334, 1612.500 334 C 1619.606 334, 1622.364 332.852, 1618 331.710 C 1616.301 331.266, 1616 330.346, 1616 325.594 C 1616 322.517, 1616.380 320, 1616.845 320 C 1618.057 320, 1620.355 322.866, 1622.979 327.649 C 1625.391 332.047, 1627.487 333.494, 1632.750 334.394 C 1636.309 335.003, 1636.931 334.009, 1634.327 331.872 C 1633.407 331.118, 1630.974 327.849, 1628.919 324.609 L 1625.183 318.717 1628.091 316.270 C 1632.077 312.916, 1632.207 307.095, 1628.365 304.073 C 1626.076 302.272, 1624.340 302, 1615.143 302 C 1605.275 302, 1604.706 302.106, 1606.777 303.557 M 1664.241 305.250 C 1659.471 310.342, 1658.651 318.901, 1662.250 326.038 C 1667.616 336.680, 1677.154 333.967, 1678.640 321.376 C 1680.184 308.294, 1671.012 298.021, 1664.241 305.250 M 763 311 C 763 317.333, 763.190 318, 765 318 C 768.128 318, 771 314.445, 771 310.571 C 771 306.551, 768.838 304, 765.429 304 C 763.088 304, 763 304.255, 763 311 M 1003.667 304.667 C 1003.300 305.033, 1003 310.828, 1003 317.544 C 1003 331.412, 1003.579 332.677, 1009.429 331.579 C 1016.325 330.286, 1020.321 321.621, 1017.999 312.998 C 1016.406 307.081, 1013.055 304, 1008.212 304 C 1006.079 304, 1004.033 304.300, 1003.667 304.667 M 1392.222 317.750 L 1392.500 331.500 1395.184 331.810 C 1401.761 332.570, 1407 326.247, 1407 317.549 C 1407 309.208, 1402.675 304, 1395.749 304 L 1391.944 304 1392.222 317.750 M 1504.222 317.750 L 1504.500 331.500 1507.184 331.810 C 1514.608 332.668, 1519.517 325.820, 1518.780 315.634 C 1518.408 310.496, 1517.924 309.321, 1515.160 306.851 C 1512.774 304.720, 1510.955 304, 1507.956 304 L 1503.944 304 1504.222 317.750 M 1616 311 C 1616 317.677, 1616.108 318, 1618.345 318 C 1621.545 318, 1624 315.006, 1624 311.106 C 1624 306.255, 1622.402 304, 1618.965 304 L 1616 304 1616 311 M 928.093 314.750 C 927.421 316.813, 926.637 319.063, 926.352 319.750 C 925.993 320.614, 926.940 321, 929.417 321 C 931.421 321, 933 320.500, 933 319.866 C 933 317.807, 930.697 311, 930 311 C 929.624 311, 928.766 312.688, 928.093 314.750 M 1776.093 314.750 C 1775.421 316.813, 1774.637 319.063, 1774.352 319.750 C 1773.993 320.614, 1774.940 321, 1777.417 321 C 1779.421 321, 1781 320.500, 1781 319.866 C 1781 317.807, 1778.697 311, 1778 311 C 1777.624 311, 1776.766 312.688, 1776.093 314.750" stroke="none" fill="#07823d" fill-rule="evenodd"/><path d="M 0 242.001 L 0 484.001 929.750 483.751 L 1859.500 483.500 1859.752 241.750 L 1860.004 0 930.002 0 L 0 0 0 242.001 M 0.492 242.500 C 0.492 375.600, 0.608 430.199, 0.750 363.830 C 0.892 297.462, 0.892 188.562, 0.750 121.830 C 0.608 55.099, 0.492 109.400, 0.492 242.500 M 80 152.369 C 80 261.207, 79.881 258.898, 86.488 278.660 C 95.895 306.800, 114.972 331.759, 139.141 347.549 C 144.993 351.372, 151.181 355.267, 152.891 356.203 L 156 357.907 156 401.453 L 156 445 298 445 L 440 445 440 249.500 L 440 54 291.500 54 L 143 54 143 59.500 L 143 65 136.500 65 L 130 65 130 59.500 L 130 54 105 54 L 80 54 80 152.369 M 81.004 151.750 C 81.008 258.931, 80.970 258.181, 87.486 277.660 C 94.401 298.332, 104.316 314.303, 120 330.028 C 139.468 349.547, 161.272 361.403, 188.266 367.146 C 202.770 370.232, 226.249 370.228, 240.778 367.137 C 294.460 355.718, 333.730 316.781, 346.311 262.500 C 348.338 253.756, 348.407 250.679, 348.740 154.250 L 349.082 55 300.041 55 L 251 55 251 60.500 L 251 66 243.500 66 L 236 66 236 60.500 L 236 55 230 55 L 224 55 224 60.500 L 224 66 216.500 66 L 209 66 209 60.500 L 209 55 203 55 L 197 55 197 60.500 L 197 66 189.500 66 L 182 66 182 60.500 L 182 55 176.500 55 L 171 55 171 60.500 L 171 66 163.500 66 L 156 66 156 60.500 L 156 55 150 55 L 144 55 144 60.500 L 144 66 136.500 66 L 129 66 129 60.500 L 129 55 105 55 L 81 55 81.004 151.750 M 129 90 L 129 99 190 99 L 251 99 251 90 L 251 81 190 81 L 129 81 129 90 M 130 90 L 130 98 143 98 L 156 98 156 90 L 156 82 143 82 L 130 82 130 90 M 129 120 L 129 129 190 129 L 251 129 251 120 L 251 111 190 111 L 129 111 129 120 M 130.696 112.637 C 130.313 113.020, 130 116.633, 130 120.667 L 130 128 143.042 128 L 156.084 128 155.792 120.250 L 155.500 112.500 143.446 112.221 C 136.816 112.067, 131.079 112.255, 130.696 112.637 M 521.641 131.750 C 521.356 133.262, 520.843 140.125, 520.502 147 C 520.160 153.875, 519.653 160.287, 519.373 161.250 C 518.970 162.640, 519.481 163, 521.862 163 C 524.647 163, 524.975 162.597, 526.521 157.280 C 529.105 148.391, 531.717 144.012, 535.309 142.547 C 537.064 141.831, 544.237 140.931, 551.250 140.546 L 564 139.847 564 190.973 C 564 247.328, 564.062 246.737, 557.881 248.892 C 556.132 249.501, 553.456 250, 551.933 250 C 547.646 250, 546 251, 546 253.607 L 546 256 573 256 L 600 256 600 253.545 C 600 250.975, 600.421 251.141, 589.716 249.495 C 584.968 248.765, 582.222 246.462, 581.044 242.221 C 580.399 239.896, 580.009 220.202, 580.006 189.719 C 580.001 147.084, 580.191 140.864, 581.513 140.356 C 582.346 140.037, 588.938 140.199, 596.162 140.716 L 609.297 141.656 612.433 145.078 C 614.244 147.055, 616.328 151.035, 617.367 154.500 C 618.356 157.800, 619.338 161.063, 619.551 161.750 C 619.763 162.438, 621.121 163, 622.567 163 L 625.197 163 624.572 151.250 C 623.291 127.166, 622.961 126.331, 616.781 131.531 L 613.773 134.062 571.297 133.781 L 528.822 133.500 527.001 131.250 C 524.526 128.193, 522.271 128.404, 521.641 131.750 M 1572.547 130.250 C 1572.332 130.938, 1571.879 137.125, 1571.539 144 C 1571.200 150.875, 1570.665 157.963, 1570.350 159.750 C 1569.812 162.804, 1569.953 163, 1572.692 163 C 1575.430 163, 1575.740 162.570, 1577.838 155.855 C 1580.590 147.047, 1583.071 143.440, 1587.267 142.150 C 1589.045 141.603, 1596.013 140.856, 1602.750 140.490 L 1615 139.825 1615 190.263 C 1615 223.498, 1614.635 241.748, 1613.930 243.770 C 1612.724 247.231, 1607.946 250, 1603.181 250 C 1598.644 250, 1597 250.959, 1597 253.607 L 1597 256 1623.500 256 L 1650 256 1650 253.519 C 1650 250.910, 1649.478 250.668, 1641.523 249.591 C 1636.752 248.945, 1632.795 246.205, 1631.873 242.910 C 1631.503 241.584, 1631.155 218.098, 1631.100 190.719 C 1631.012 147.133, 1631.188 140.865, 1632.513 140.356 C 1633.346 140.037, 1639.867 140.194, 1647.004 140.705 C 1658.419 141.522, 1660.274 141.908, 1662.410 143.915 C 1665.160 146.499, 1668.486 153.669, 1669.525 159.250 C 1670.147 162.593, 1670.548 163, 1673.215 163 L 1676.208 163 1675.626 155.250 C 1675.306 150.988, 1674.761 143.338, 1674.416 138.250 C 1673.712 127.881, 1672.989 127.149, 1667.781 131.531 L 1664.773 134.062 1622.466 133.781 L 1580.159 133.500 1577.765 131.250 C 1575.096 128.741, 1573.135 128.366, 1572.547 130.250 M 691.347 132.095 C 668.209 135.960, 648.101 155.448, 642.431 179.500 C 640.457 187.875, 640.225 202.213, 641.931 210.500 C 642.610 213.800, 644.992 220.325, 647.224 225 C 652.692 236.451, 663.149 247.107, 674 252.286 C 702.932 266.095, 737.023 256.961, 753.996 230.852 C 759.831 221.877, 763.154 210.475, 763.717 197.500 C 764.614 176.849, 759.285 162.229, 746.028 148.972 C 731.492 134.436, 712.471 128.565, 691.347 132.095 M 1369.834 132.496 C 1342.370 137.719, 1322.538 154.571, 1316.552 177.772 C 1307.767 211.821, 1324.188 243.685, 1356.028 254.373 C 1372.233 259.813, 1390.553 260.016, 1412 254.992 C 1416.675 253.897, 1421.400 252.796, 1422.500 252.545 C 1424.435 252.104, 1424.489 251.410, 1424.164 231.131 C 1423.841 211.029, 1423.912 210.088, 1425.900 208.100 C 1427.039 206.961, 1429.802 205.735, 1432.039 205.378 C 1435.702 204.792, 1436.076 204.468, 1435.803 202.114 L 1435.500 199.500 1412 199.500 L 1388.500 199.500 1388.500 201.999 C 1388.500 204.325, 1388.948 204.553, 1395 205.299 C 1402.326 206.202, 1405.648 207.945, 1407.045 211.617 C 1408.615 215.748, 1408.235 239.501, 1406.534 243.573 C 1404.553 248.313, 1398.054 251.188, 1387.967 251.786 C 1356.892 253.627, 1333.658 228.658, 1333.731 193.500 C 1333.779 169.900, 1343.233 152.025, 1360.139 143.567 C 1369.057 139.105, 1376.479 137.635, 1387 138.247 C 1403.654 139.214, 1412.866 145.896, 1417.914 160.669 C 1419.613 165.641, 1420.235 166.460, 1422.141 166.228 C 1423.371 166.079, 1424.518 165.815, 1424.692 165.641 C 1424.988 165.345, 1422.027 136.672, 1421.667 136.353 C 1421.575 136.271, 1416.780 135.231, 1411.012 134.041 C 1397.384 131.230, 1379.934 130.575, 1369.834 132.496 M 1510.063 131.880 C 1507.961 132.467, 1506.404 135.658, 1498.766 155.030 C 1460.101 253.090, 1462.999 247.047, 1453.500 249.446 C 1449.230 250.524, 1448.454 251.095, 1448.184 253.354 L 1447.867 256 1468 256 L 1488.133 256 1487.816 253.250 C 1487.543 250.874, 1486.956 250.425, 1483.500 249.945 C 1477.437 249.104, 1475 247.408, 1475 244.030 C 1475 240.890, 1483.557 214.298, 1485.226 212.250 C 1485.977 211.328, 1491.311 211, 1505.525 211 L 1524.804 211 1525.800 213.750 C 1536.703 243.871, 1537.191 245.766, 1534.607 247.911 C 1533.840 248.548, 1531.253 249.400, 1528.857 249.806 C 1525.077 250.447, 1524.458 250.906, 1524.184 253.272 L 1523.867 256 1547 256 L 1570.133 256 1569.816 253.272 C 1569.542 250.904, 1568.924 250.447, 1565.120 249.802 C 1558.777 248.727, 1556.481 246.802, 1553.154 239.765 C 1550.413 233.970, 1538.877 202.535, 1520.859 151.765 C 1516.811 140.360, 1513.275 131.068, 1513 131.114 C 1512.725 131.161, 1511.403 131.506, 1510.063 131.880 M 1737.017 131.942 C 1734.810 132.511, 1733.063 136.309, 1721.329 166.041 C 1714.066 184.443, 1704.430 208.838, 1699.916 220.252 C 1690.501 244.057, 1688.212 247.498, 1680.500 249.446 C 1676.230 250.524, 1675.454 251.095, 1675.184 253.354 L 1674.867 256 1695 256 L 1715.133 256 1714.816 253.250 C 1714.543 250.874, 1713.956 250.425, 1710.500 249.945 C 1699.808 248.462, 1699.641 246.433, 1708.218 222.250 L 1712.208 211 1731.482 211 C 1745.712 211, 1751.011 211.327, 1751.733 212.250 C 1753.298 214.252, 1763 242.022, 1763 244.501 C 1763 247.507, 1761.101 248.917, 1755.857 249.806 C 1752.077 250.447, 1751.458 250.906, 1751.184 253.272 L 1750.867 256 1774 256 L 1797.133 256 1796.816 253.272 C 1796.544 250.923, 1795.917 250.446, 1792.297 249.833 C 1781.749 248.045, 1783.691 252.082, 1755.428 173.205 C 1747.407 150.817, 1740.541 132.231, 1740.172 131.901 C 1739.802 131.572, 1738.383 131.591, 1737.017 131.942 M 782 136.455 C 782 138.517, 782.599 139.006, 785.750 139.512 C 792.435 140.587, 793.470 140.891, 795.500 142.375 C 797.447 143.799, 797.507 145.157, 797.777 193.832 L 798.054 243.826 795.777 246.447 C 794.284 248.165, 792.122 249.250, 789.500 249.599 C 781.548 250.654, 781 250.907, 781 253.519 L 781 256 806 256 L 831 256 831 253.607 C 831 250.967, 829.356 250, 824.869 250 C 819.943 250, 816.215 247.436, 815.052 243.248 C 814.480 241.187, 814.009 231.240, 814.006 221.144 L 814 202.788 821.924 203.148 C 831.780 203.596, 832.569 204.254, 842.129 220.009 C 860.731 250.666, 868.177 257, 885.614 257 C 891.063 257, 891.950 256.734, 892.524 254.925 C 892.886 253.783, 893.029 252.771, 892.841 252.675 C 892.654 252.579, 890.302 251.393, 887.616 250.040 C 882.225 247.325, 874.872 239.355, 865.898 226.500 C 860.281 218.454, 848 198.761, 848 197.800 C 848 197.516, 850.669 195.637, 853.932 193.623 C 865.732 186.339, 871 177.505, 871 165 C 871 148.978, 862.613 138.932, 846.364 135.489 C 841.283 134.412, 832.033 134.030, 810.750 134.017 L 782 134 782 136.455 M 944.184 136.750 C 944.461 139.163, 945.023 139.570, 948.770 140.070 C 953.683 140.726, 957.745 143.420, 960.238 147.676 C 962.344 151.272, 976.256 186.789, 991.504 227.500 C 1002.548 256.986, 1002.790 257.505, 1005.672 257.799 C 1008.578 258.095, 1008.648 257.977, 1013.981 243.799 C 1020.847 225.544, 1037.929 182.777, 1045.859 163.988 C 1054.081 144.505, 1056.275 142.001, 1067.250 139.571 C 1069.347 139.106, 1070 138.373, 1070 136.481 L 1070 134 1049 134 L 1028 134 1028 136.481 C 1028 138.389, 1028.635 139.087, 1030.750 139.504 C 1032.263 139.802, 1035.300 140.598, 1037.500 141.273 C 1042.925 142.937, 1043.049 145.324, 1038.437 159.288 C 1035.571 167.965, 1018.400 213.583, 1011.820 230 C 1010.902 232.289, 1010.487 231.656, 1006.895 222.500 C 996.847 196.890, 978 146.153, 978 144.717 C 978 142.680, 981.774 140, 984.641 140 C 988.353 140, 990 138.892, 990 136.393 L 990 134 966.934 134 L 943.867 134 944.184 136.750 M 1085 136.421 C 1085 138.315, 1085.653 138.967, 1088 139.421 C 1101.569 142.041, 1100.443 137.396, 1100.788 192.206 C 1100.980 222.682, 1100.716 239.341, 1099.999 242.004 C 1098.761 246.602, 1095.892 248.865, 1090.356 249.610 C 1082.545 250.662, 1082 250.917, 1082 253.519 L 1082 256 1127.500 256 C 1152.525 256, 1173 255.881, 1173 255.735 C 1173 255.589, 1174.350 249.482, 1176 242.165 C 1177.650 234.847, 1179 228.216, 1179 227.430 C 1179 226.530, 1177.980 226.010, 1176.250 226.027 C 1173.841 226.050, 1173.144 226.852, 1170.623 232.495 C 1166.828 240.991, 1162.153 246.350, 1157.327 247.736 C 1151.182 249.501, 1138.100 250.165, 1130.097 249.118 C 1124.236 248.351, 1122.153 247.608, 1120.097 245.554 L 1117.500 242.958 1117.198 219.324 L 1116.895 195.690 1131.239 196.271 C 1139.127 196.591, 1146.752 197.385, 1148.181 198.037 C 1151.121 199.376, 1152.884 202.183, 1153.885 207.121 C 1154.438 209.841, 1155.100 210.562, 1157.286 210.816 L 1160 211.133 1160 193 L 1160 174.867 1157.348 175.184 C 1155.152 175.446, 1154.469 176.285, 1153.369 180.077 C 1151.064 188.020, 1150.032 188.451, 1132.379 188.840 L 1116.963 189.180 1117.232 165.340 L 1117.500 141.500 1133.723 141.225 C 1155.988 140.848, 1158.447 142.102, 1162.710 156 C 1163.637 159.025, 1164.479 161.634, 1164.580 161.799 C 1164.681 161.963, 1165.929 161.805, 1167.353 161.448 L 1169.942 160.798 1169.407 149.649 C 1169.113 143.517, 1168.668 137.488, 1168.417 136.250 L 1167.962 134 1126.481 134 L 1085 134 1085 136.421 M 1195 136.346 C 1195 138.323, 1195.623 138.961, 1198 139.421 C 1199.650 139.739, 1202.303 140.251, 1203.896 140.557 C 1205.489 140.863, 1207.627 142.035, 1208.646 143.161 C 1210.387 145.083, 1210.518 148.088, 1210.796 192.354 C 1210.959 218.284, 1210.822 240.984, 1210.492 242.798 C 1209.779 246.711, 1205.151 249.991, 1200.332 249.996 C 1195.640 250.002, 1194 250.937, 1194 253.607 L 1194 256 1218.566 256 L 1243.133 256 1242.816 253.250 C 1242.526 250.728, 1242.055 250.446, 1237.121 249.844 C 1227.644 248.687, 1227.551 248.444, 1227.194 223.974 L 1226.888 203 1233.694 203.004 C 1242.746 203.009, 1245.520 204.819, 1251.546 214.657 C 1273.810 251.001, 1278.943 255.800, 1296.603 256.784 C 1304.291 257.212, 1304.735 257.123, 1305.280 255.036 C 1305.750 253.240, 1305.225 252.574, 1302.405 251.396 C 1295.834 248.650, 1286.972 239.021, 1276.194 222.914 C 1268.772 211.823, 1261 198.840, 1261 197.534 C 1261 196.910, 1262.912 195.455, 1265.250 194.303 C 1271.942 191.003, 1277.636 185.441, 1280.689 179.224 C 1283.101 174.313, 1283.500 172.293, 1283.500 165 C 1283.500 154.061, 1280.235 146.642, 1273.165 141.510 C 1264.176 134.987, 1261.983 134.643, 1226.750 134.227 L 1195 133.851 1195 136.346 M 688.419 139.822 C 675.089 144.430, 664.977 157.182, 661.447 173.837 C 659.342 183.769, 659.606 200.799, 662.022 210.876 C 666.302 228.731, 677.723 243.969, 690.683 249.117 C 699.450 252.599, 712.437 252.416, 720.112 248.702 C 730.490 243.679, 738.818 232.672, 742.641 218.929 C 745.387 209.053, 745.151 186.100, 742.196 175.701 C 736.739 156.501, 727.143 145.101, 712.199 140.067 C 704.654 137.525, 695.340 137.429, 688.419 139.822 M 819.259 140.643 C 814.316 141.732, 814 143.539, 814 170.723 L 814 196 823.374 196 C 834.904 196, 840.058 194.331, 845.745 188.755 C 851.464 183.148, 853.512 177.499, 853.451 167.500 C 853.375 155.047, 848.776 147.065, 839.218 142.792 C 834.996 140.905, 823.625 139.680, 819.259 140.643 M 1231.585 140.980 C 1229.982 141.494, 1228.302 142.497, 1227.851 143.208 C 1227.400 143.918, 1227.024 156.137, 1227.015 170.361 L 1227 196.221 1237.750 195.811 C 1250.195 195.337, 1254.604 193.617, 1260.232 187.042 C 1264.572 181.972, 1266.202 176.577, 1266.166 167.405 C 1266.119 155.359, 1260.701 146.280, 1251.189 142.305 C 1246.878 140.504, 1235.471 139.733, 1231.585 140.980 M 129 149.992 L 129 159 190.039 159 L 251.078 159 250.789 150.250 L 250.500 141.500 189.750 141.242 L 129 140.985 129 149.992 M 130 150.500 L 130 158 143 158 L 156 158 156 150.500 L 156 143 143 143 L 130 143 130 150.500 M 1496.775 179.236 L 1488.244 202.500 1504.764 202.775 C 1513.850 202.926, 1521.442 202.891, 1521.635 202.698 C 1522.044 202.289, 1506.698 157.365, 1505.865 156.531 C 1505.558 156.224, 1501.467 166.441, 1496.775 179.236 M 1732.030 156.073 C 1732.004 156.564, 1717.457 196.276, 1715.481 201.250 C 1714.835 202.876, 1716.008 203, 1732 203 C 1745.360 203, 1749.107 202.720, 1748.736 201.750 C 1748.472 201.063, 1744.999 191.050, 1741.017 179.500 C 1734.489 160.567, 1732.120 154.390, 1732.030 156.073 M 129.674 171.659 C 129.303 172.030, 129 176.083, 129 180.667 L 129 189 190.039 189 L 251.078 189 250.789 180.250 L 250.500 171.500 190.424 171.242 C 157.383 171.101, 130.045 171.288, 129.674 171.659 M 130 180.500 L 130 188 143 188 L 156 188 156 180.500 L 156 173 143 173 L 130 173 130 180.500 M 129 210.500 L 129 219 190 219 L 251 219 251 210.500 L 251 202 190 202 L 129 202 129 210.500 M 130 210.500 L 130 218 143 218 L 156 218 156 210.500 L 156 203 143 203 L 130 203 130 210.500 M 129.211 240.750 L 129.500 249.500 190 249.500 L 250.500 249.500 250.789 240.750 L 251.078 232 190 232 L 128.922 232 129.211 240.750 M 130 240.500 L 130 248 143 248 L 156 248 156 240.500 L 156 233 143 233 L 130 233 130 240.500 M 129.211 270.750 L 129.500 279.500 190 279.500 L 250.500 279.500 250.789 270.750 L 251.078 262 190 262 L 128.922 262 129.211 270.750 M 130 270.500 L 130 278 143 278 L 156 278 156 270.500 L 156 263 143 263 L 130 263 130 270.500 M 925.042 293.922 C 924.469 294.992, 924 296.089, 924 296.359 C 924 297.130, 934.364 299.970, 934.964 299.363 C 935.508 298.813, 930.918 294.701, 927.792 292.938 C 926.497 292.207, 925.832 292.445, 925.042 293.922 M 873 305.250 C 873 307.863, 873.450 310, 874 310 C 874.550 310, 875 309.357, 875 308.571 C 875 306.220, 877.949 304, 881.071 304 L 884 304 884 317.594 C 884 330.346, 883.876 331.220, 882 331.710 C 877.533 332.878, 880.472 334, 888 334 C 892.400 334, 896 333.581, 896 333.070 C 896 332.558, 894.987 331.995, 893.750 331.820 C 891.557 331.508, 891.493 331.151, 891.222 317.750 L 890.944 304 894.559 304 C 897.657 304, 898.336 304.429, 899.306 307 C 900.952 311.361, 902 310.681, 902 305.250 L 902 300.500 887.500 300.500 L 873 300.500 873 305.250 M 1282 305.250 C 1282 310.681, 1283.048 311.361, 1284.694 307 C 1285.664 304.429, 1286.343 304, 1289.441 304 L 1293.056 304 1292.778 317.750 C 1292.507 331.151, 1292.443 331.508, 1290.250 331.820 C 1289.013 331.995, 1288 332.558, 1288 333.070 C 1288 333.581, 1291.825 334, 1296.500 334 C 1301.175 334, 1305 333.764, 1305 333.475 C 1305 333.187, 1303.875 332.523, 1302.500 332 C 1300.003 331.051, 1300 331.031, 1300 317.525 L 1300 304 1303.587 304 C 1306.654 304, 1307.338 304.435, 1308.306 307 C 1309.952 311.361, 1311 310.681, 1311 305.250 L 1311 300.500 1296.500 300.500 L 1282 300.500 1282 305.250 M 623.544 301.928 C 623.229 302.438, 623.824 303.127, 624.866 303.458 C 627.210 304.202, 628 307.866, 628 318 C 628 327.482, 627.172 332, 625.434 332 C 624.710 332, 623.840 332.450, 623.500 333 C 623.109 333.633, 625.656 334, 630.441 334 C 634.814 334, 638 333.578, 638 333 C 638 332.450, 637.373 332, 636.607 332 C 634.408 332, 634 329.644, 634 316.953 C 634 306.094, 634.172 304.978, 636 304 C 637.100 303.411, 638 302.495, 638 301.965 C 638 300.728, 624.308 300.693, 623.544 301.928 M 656 301.712 C 656 302.104, 657.120 303.342, 658.488 304.462 C 660.156 305.828, 662.731 311.115, 666.300 320.500 C 669.501 328.919, 672.159 334.500, 672.968 334.500 C 673.761 334.500, 676.428 329.166, 679.467 321.500 C 685.752 305.649, 686.465 304.305, 689.013 303.496 C 692.563 302.369, 690.055 301, 684.441 301 C 679.261 301, 677.208 302.375, 680.500 303.638 C 682.675 304.473, 682.380 306.753, 678.845 316.457 C 676.773 322.144, 675.412 324.668, 674.879 323.809 C 674.433 323.089, 672.629 318.509, 670.869 313.632 C 667.965 305.584, 667.824 304.678, 669.335 303.832 C 672.726 301.935, 670.800 301, 663.500 301 C 659.375 301, 656 301.321, 656 301.712 M 803.923 303.923 C 798.930 308.916, 800.077 315.087, 806.737 319.072 C 812.793 322.695, 815 325.117, 815 328.139 C 815 334.438, 806.899 333.942, 803.391 327.428 C 800.877 322.759, 799.603 323.113, 800.423 328.250 C 801.271 333.556, 801.571 333.842, 807.070 334.596 C 813.470 335.473, 818.629 333.131, 820.580 328.463 C 823.094 322.446, 821.100 318.940, 812.360 314.008 C 807.883 311.481, 807 310.523, 807 308.191 C 807 302.407, 812.282 301.169, 816.347 306 C 819.404 309.634, 820 309.727, 820 306.571 C 820 302.728, 817.473 301, 811.852 301 C 807.653 301, 806.375 301.471, 803.923 303.923 M 839.500 302 C 839.160 302.550, 839.326 303, 839.870 303 C 840.413 303, 841.564 303.707, 842.429 304.571 C 843.680 305.823, 843.997 308.523, 843.985 317.821 C 843.969 330.082, 843.728 331.097, 840.500 332.540 C 838.870 333.268, 839.287 333.497, 842.750 333.774 C 845.087 333.962, 848.912 333.962, 851.250 333.774 C 854.713 333.497, 855.130 333.268, 853.500 332.540 C 850.272 331.097, 850.031 330.082, 850.015 317.821 C 850.003 308.523, 850.320 305.823, 851.571 304.571 C 852.436 303.707, 853.587 303, 854.130 303 C 854.674 303, 854.840 302.550, 854.500 302 C 854.160 301.450, 850.785 301, 847 301 C 843.215 301, 839.840 301.450, 839.500 302 M 925.316 315.750 C 920.957 326.645, 918.838 330.758, 917.207 331.487 C 913.547 333.124, 914.694 334, 920.500 334 C 926.275 334, 927.062 333.497, 924.367 331.527 C 922.965 330.501, 922.905 329.817, 923.945 326.667 C 925.099 323.171, 925.364 323, 929.629 323 C 933.788 323, 934.204 323.243, 935.551 326.468 C 937.386 330.859, 937.375 332, 935.500 332 C 934.675 332, 934 332.450, 934 333 C 934 333.578, 937.167 334, 941.500 334 C 949.163 334, 950.748 333.241, 946.750 331.487 C 945.009 330.723, 943.279 327.164, 939.104 315.750 C 936.098 307.533, 933.156 301, 932.462 301 C 931.777 301, 928.561 307.637, 925.316 315.750 M 1100.231 302.252 C 1095.904 303.639, 1090.279 309.996, 1089.445 314.440 C 1088.015 322.067, 1091.376 329.499, 1097.632 332.541 C 1101.643 334.492, 1112.126 335.170, 1117 333.794 C 1119.314 333.141, 1119.474 332.708, 1119.149 327.984 C 1118.887 324.161, 1119.239 322.393, 1120.554 320.940 C 1122.278 319.035, 1122.167 319.001, 1114.405 319.068 C 1107.622 319.126, 1106.855 319.299, 1109 320.290 C 1112.302 321.815, 1112.966 322.880, 1112.985 326.679 C 1113.001 330.144, 1110.827 333.002, 1108.179 332.996 C 1105.093 332.989, 1099.895 328.994, 1098.440 325.510 C 1095.237 317.844, 1097.453 307.368, 1102.872 304.566 C 1108.952 301.422, 1113.674 303.013, 1117.691 309.559 C 1118.724 311.241, 1118.890 310.883, 1118.941 306.867 C 1118.992 302.882, 1118.685 302.149, 1116.750 301.630 C 1113.341 300.717, 1103.913 301.072, 1100.231 302.252 M 1140 301.933 C 1140 302.446, 1140.900 303.151, 1142 303.500 C 1143.869 304.093, 1144 305.013, 1144 317.592 L 1144 331.050 1141.250 332.275 C 1138.864 333.338, 1140.140 333.537, 1150.885 333.782 C 1157.696 333.937, 1163.473 333.860, 1163.722 333.611 C 1164.739 332.595, 1165.730 325.951, 1164.938 325.462 C 1164.469 325.172, 1163.383 326.293, 1162.524 327.953 C 1160.910 331.074, 1157.926 332.410, 1153.852 331.833 C 1151.535 331.505, 1151.496 331.304, 1151.221 318.301 C 1150.960 305.912, 1151.067 305.034, 1152.971 304.015 C 1156.784 301.975, 1155.015 301, 1147.500 301 C 1143.375 301, 1140 301.420, 1140 301.933 M 1183 301.965 C 1183 302.495, 1183.900 303.411, 1185 304 C 1186.843 304.986, 1187 306.094, 1187 318.129 C 1187 330.346, 1186.871 331.221, 1185 331.710 C 1180.636 332.852, 1183.394 334, 1190.500 334 C 1197.606 334, 1200.364 332.852, 1196 331.710 C 1194.124 331.220, 1194 330.346, 1194 317.661 C 1194 304.981, 1194.126 304.095, 1196.015 303.495 C 1197.123 303.144, 1197.771 302.438, 1197.456 301.928 C 1196.692 300.693, 1183 300.728, 1183 301.965 M 1248.110 302.396 C 1245.369 303.915, 1243.087 307.571, 1243.035 310.527 C 1242.981 313.632, 1245.703 316.835, 1251.605 320.610 C 1257.980 324.689, 1259.406 328.038, 1256.153 331.292 C 1253.306 334.139, 1249.334 332.743, 1246.103 327.760 C 1243.210 323.298, 1242.091 323.625, 1242.915 328.692 C 1244.665 339.456, 1264.085 335.614, 1263.968 324.527 C 1263.926 320.517, 1261.980 318.120, 1255.816 314.490 C 1249.385 310.702, 1248.227 308.991, 1249.783 305.578 C 1251.893 300.947, 1258.313 302.610, 1260.341 308.313 C 1260.696 309.311, 1261.364 309.893, 1261.826 309.607 C 1262.964 308.904, 1262.001 302.683, 1260.612 301.765 C 1258.790 300.561, 1250.682 300.970, 1248.110 302.396 M 1433.544 301.928 C 1433.229 302.438, 1433.877 303.144, 1434.985 303.495 C 1436.874 304.095, 1437 304.981, 1437 317.661 C 1437 330.346, 1436.876 331.220, 1435 331.710 C 1430.636 332.852, 1433.394 334, 1440.500 334 C 1447.606 334, 1450.364 332.852, 1446 331.710 C 1444.129 331.221, 1444 330.346, 1444 318.129 C 1444 306.094, 1444.157 304.986, 1446 304 C 1447.100 303.411, 1448 302.495, 1448 301.965 C 1448 300.728, 1434.308 300.693, 1433.544 301.928 M 1545.544 301.928 C 1545.229 302.438, 1545.877 303.144, 1546.985 303.495 C 1548.874 304.095, 1549 304.981, 1549 317.661 C 1549 330.346, 1548.876 331.220, 1547 331.710 C 1542.636 332.852, 1545.394 334, 1552.500 334 C 1559.606 334, 1562.364 332.852, 1558 331.710 C 1556.129 331.221, 1556 330.346, 1556 318.129 C 1556 306.094, 1556.157 304.986, 1558 304 C 1559.100 303.411, 1560 302.495, 1560 301.965 C 1560 300.728, 1546.308 300.693, 1545.544 301.928 M 1660.753 303.279 C 1656.144 306.069, 1654.010 309.010, 1652.850 314.172 C 1649.219 330.331, 1669.475 341.760, 1681.114 330.121 C 1689.530 321.705, 1687.990 308.152, 1678.016 302.852 C 1673.083 300.230, 1665.477 300.418, 1660.753 303.279 M 1705.576 301.877 C 1705.243 302.415, 1705.836 303.131, 1706.893 303.466 C 1709.799 304.388, 1710.026 306.039, 1708.926 318.252 C 1708.103 327.392, 1707.547 329.811, 1705.957 331.160 C 1704.881 332.073, 1704 333.086, 1704 333.410 C 1704 333.735, 1706.700 334, 1710 334 C 1713.333 334, 1716 333.556, 1716 333 C 1716 332.450, 1715.148 332, 1714.107 332 C 1711.565 332, 1710.978 330.070, 1711.118 322.168 C 1711.363 308.351, 1711.981 308.315, 1717.343 321.811 C 1720.007 328.515, 1722.497 334, 1722.877 334 C 1723.257 334, 1726.122 328.038, 1729.243 320.750 L 1734.917 307.500 1734.958 319.344 C 1734.997 330.364, 1734.861 331.224, 1733 331.710 C 1728.636 332.852, 1731.394 334, 1738.500 334 C 1745.497 334, 1748.378 332.855, 1744.158 331.752 C 1742.645 331.356, 1742.199 329.880, 1741.658 323.484 C 1740.467 309.399, 1740.757 305.201, 1743 304 C 1746.377 302.193, 1745.237 301, 1740.132 301 L 1735.264 301 1730.392 312.144 L 1725.521 323.287 1721.763 314.894 C 1715.503 300.913, 1716.002 301.537, 1710.808 301.199 C 1708.263 301.033, 1705.909 301.338, 1705.576 301.877 M 1773.316 315.750 C 1768.957 326.645, 1766.838 330.758, 1765.207 331.487 C 1761.547 333.124, 1762.694 334, 1768.500 334 C 1774.275 334, 1775.062 333.497, 1772.367 331.527 C 1770.965 330.501, 1770.905 329.817, 1771.945 326.667 C 1773.094 323.184, 1773.376 323, 1777.552 323 C 1781.409 323, 1782.136 323.362, 1783.474 325.950 C 1785.410 329.694, 1785.420 332, 1783.500 332 C 1782.675 332, 1782 332.450, 1782 333 C 1782 333.578, 1785.167 334, 1789.500 334 C 1797.163 334, 1798.748 333.241, 1794.750 331.487 C 1793.009 330.723, 1791.279 327.164, 1787.104 315.750 C 1784.098 307.533, 1781.156 301, 1780.462 301 C 1779.777 301, 1776.561 307.637, 1773.316 315.750 M 520.663 303.182 C 523.504 304.556, 523.970 306.638, 523.986 318.027 C 524.002 328.795, 525.061 331.292, 530.599 333.606 C 534.978 335.436, 538.425 335.367, 542.643 333.365 C 547.585 331.020, 549.001 327.462, 549.667 315.715 C 550.167 306.909, 550.540 305.262, 552.373 303.772 C 554.441 302.093, 554.324 302.044, 548.191 302.022 C 544.234 302.008, 542.112 302.373, 542.500 303 C 542.840 303.550, 543.718 304, 544.452 304 C 546.450 304, 547 306.359, 547 314.933 C 547 327.220, 544.907 331, 538.105 331 C 532.197 331, 530.033 326.131, 530.011 312.789 C 530.002 307.165, 530.354 305.748, 532.189 304.039 L 534.377 302 526.439 302.068 C 520.167 302.121, 518.954 302.355, 520.663 303.182 M 572.250 303.572 L 575 305.064 575 318.126 C 575 330.346, 574.871 331.221, 573 331.710 C 568.985 332.760, 571.152 334, 577 334 C 583.280 334, 584.545 333.152, 580.750 331.487 C 578.656 330.568, 578.480 329.787, 578.215 320.208 L 577.929 309.916 581.277 313.708 C 583.119 315.794, 587.908 321.438, 591.920 326.250 C 595.933 331.063, 599.617 335, 600.108 335 C 600.598 335, 601.005 329.712, 601.011 323.250 C 601.025 308.199, 601.645 304.486, 604.364 303.169 C 606.046 302.355, 605.012 302.144, 599.500 302.174 C 593.469 302.207, 592.876 302.362, 595.216 303.287 C 598.329 304.519, 599.360 308.704, 598.818 317.904 L 598.500 323.309 589.220 312.654 L 579.939 302 574.720 302.040 C 569.523 302.080, 569.512 302.087, 572.250 303.572 M 709.926 303.750 C 711.953 305.402, 712.058 306.231, 711.787 318.500 C 711.508 331.120, 711.434 331.509, 709.250 331.820 C 708.013 331.995, 707 332.558, 707 333.070 C 707 333.596, 712.630 334, 719.955 334 L 732.909 334 733.575 330.453 C 734.229 326.965, 733.192 324.188, 732.238 326.875 C 731.018 330.311, 727.900 332.110, 723.695 331.805 L 719.500 331.500 719.202 325.250 L 718.905 319 722.484 319 C 724.743 319, 726.275 319.553, 726.638 320.500 C 727.848 323.653, 728.998 321.787, 728.948 316.750 C 728.897 311.685, 728.840 311.579, 727.326 313.750 C 726.224 315.330, 724.749 316, 722.378 316 L 719 316 719 310 L 719 304 723.521 304 C 727.374 304, 728.211 304.370, 729.182 306.500 C 730.791 310.031, 732 309.602, 732 305.500 L 732 302 719.889 302 C 708.204 302, 707.854 302.061, 709.926 303.750 M 753.750 303.674 C 755.887 305.165, 756 305.895, 756 318.216 C 756 330.346, 755.870 331.221, 754 331.710 C 749.636 332.852, 752.394 334, 759.500 334 C 766.606 334, 769.364 332.852, 765 331.710 C 763.301 331.266, 763 330.346, 763 325.594 C 763 322.517, 763.380 320, 763.845 320 C 765.051 320, 767.249 322.777, 770.367 328.240 C 772.998 332.849, 773.422 333.116, 780.249 334.466 C 782.699 334.951, 783.298 333.490, 781.316 331.863 C 780.402 331.113, 777.974 327.849, 775.919 324.609 L 772.183 318.717 775.091 316.270 C 779.077 312.916, 779.207 307.095, 775.365 304.073 C 773.064 302.262, 771.388 302.007, 762.115 302.052 C 752.174 302.102, 751.643 302.205, 753.750 303.674 M 993.750 303.220 C 995.918 304.266, 996 304.796, 996 317.746 C 996 330.346, 995.875 331.220, 994 331.710 C 992.900 331.998, 992 332.671, 992 333.205 C 992 333.795, 996.219 334.041, 1002.750 333.830 C 1014.870 333.438, 1019.582 331.800, 1023.201 326.718 C 1026.252 322.433, 1026.865 313.762, 1024.436 309.251 C 1021.332 303.487, 1016.923 301.989, 1003.290 302.068 C 994.062 302.121, 991.989 302.371, 993.750 303.220 M 1046.750 303.674 C 1048.867 305.151, 1049 305.939, 1049 317.040 C 1049 330.196, 1048.625 332, 1045.893 332 C 1044.852 332, 1044 332.450, 1044 333 C 1044 333.615, 1048.985 334, 1056.955 334 L 1069.909 334 1070.575 330.453 C 1071.319 326.487, 1070.354 324.615, 1068.903 327.209 C 1066.786 330.991, 1064.779 332.105, 1060.627 331.801 L 1056.500 331.500 1056.202 325.250 L 1055.905 319 1059.484 319 C 1061.743 319, 1063.275 319.553, 1063.638 320.500 C 1064.848 323.653, 1065.998 321.787, 1065.948 316.750 C 1065.897 311.685, 1065.840 311.579, 1064.326 313.750 C 1063.224 315.330, 1061.749 316, 1059.378 316 L 1056 316 1056 310 L 1056 304 1059.977 304 C 1063.116 304, 1064.299 304.527, 1065.592 306.500 C 1067.859 309.960, 1069 309.626, 1069 305.500 L 1069 302 1056.750 302.052 C 1045.323 302.101, 1044.651 302.210, 1046.750 303.674 M 1330.750 303.674 C 1332.826 305.123, 1333 306.009, 1333 315.154 C 1333 327.508, 1334.421 331.442, 1339.678 333.639 C 1344.215 335.534, 1350.262 334.936, 1353.913 332.230 C 1357.511 329.563, 1358.875 324.906, 1358.959 315 C 1359.035 305.990, 1359.335 304.990, 1362.500 303.195 C 1364.136 302.267, 1363.224 302.063, 1357.500 302.070 C 1350.637 302.080, 1350.555 302.110, 1353.336 303.617 L 1356.173 305.154 1355.836 315.975 C 1355.442 328.649, 1354.216 331, 1348 331 C 1341.732 331, 1340.556 328.686, 1340.169 315.587 C 1339.846 304.682, 1339.900 304.348, 1342.169 303.257 C 1344.103 302.326, 1343.137 302.133, 1336.500 302.120 C 1328.944 302.106, 1328.625 302.192, 1330.750 303.674 M 1382.750 303.674 C 1384.886 305.164, 1385 305.898, 1385 318.147 L 1385 331.050 1382.250 332.275 C 1379.795 333.369, 1380.493 333.531, 1388.754 333.788 C 1393.843 333.946, 1399.891 333.568, 1402.193 332.948 C 1413.152 329.997, 1418.459 315.938, 1411.806 307.480 C 1408.354 303.092, 1404.304 301.994, 1391.782 302.052 C 1381.235 302.101, 1380.647 302.207, 1382.750 303.674 M 1494.777 303.557 C 1496.881 305.030, 1497 305.812, 1497 318.150 C 1497 330.346, 1496.871 331.221, 1495 331.710 C 1490.387 332.916, 1493.588 334, 1501.750 333.994 C 1512.983 333.987, 1517.578 332.657, 1522.145 328.091 C 1529.891 320.344, 1527.906 307.365, 1518.364 303.379 C 1516.223 302.484, 1511.112 302, 1503.810 302 C 1493.338 302, 1492.710 302.108, 1494.777 303.557 M 1606.777 303.557 C 1608.881 305.030, 1609 305.812, 1609 318.150 C 1609 330.346, 1608.871 331.221, 1607 331.710 C 1602.636 332.852, 1605.394 334, 1612.500 334 C 1619.606 334, 1622.364 332.852, 1618 331.710 C 1616.301 331.266, 1616 330.346, 1616 325.594 C 1616 322.517, 1616.380 320, 1616.845 320 C 1618.057 320, 1620.355 322.866, 1622.979 327.649 C 1625.391 332.047, 1627.487 333.494, 1632.750 334.394 C 1636.309 335.003, 1636.931 334.009, 1634.327 331.872 C 1633.407 331.118, 1630.974 327.849, 1628.919 324.609 L 1625.183 318.717 1628.091 316.270 C 1632.077 312.916, 1632.207 307.095, 1628.365 304.073 C 1626.076 302.272, 1624.340 302, 1615.143 302 C 1605.275 302, 1604.706 302.106, 1606.777 303.557 M 1664.241 305.250 C 1659.471 310.342, 1658.651 318.901, 1662.250 326.038 C 1667.616 336.680, 1677.154 333.967, 1678.640 321.376 C 1680.184 308.294, 1671.012 298.021, 1664.241 305.250 M 763 311 C 763 317.333, 763.190 318, 765 318 C 768.128 318, 771 314.445, 771 310.571 C 771 306.551, 768.838 304, 765.429 304 C 763.088 304, 763 304.255, 763 311 M 1003.667 304.667 C 1003.300 305.033, 1003 310.828, 1003 317.544 C 1003 331.412, 1003.579 332.677, 1009.429 331.579 C 1016.325 330.286, 1020.321 321.621, 1017.999 312.998 C 1016.406 307.081, 1013.055 304, 1008.212 304 C 1006.079 304, 1004.033 304.300, 1003.667 304.667 M 1392.222 317.750 L 1392.500 331.500 1395.184 331.810 C 1401.761 332.570, 1407 326.247, 1407 317.549 C 1407 309.208, 1402.675 304, 1395.749 304 L 1391.944 304 1392.222 317.750 M 1504.222 317.750 L 1504.500 331.500 1507.184 331.810 C 1514.608 332.668, 1519.517 325.820, 1518.780 315.634 C 1518.408 310.496, 1517.924 309.321, 1515.160 306.851 C 1512.774 304.720, 1510.955 304, 1507.956 304 L 1503.944 304 1504.222 317.750 M 1616 311 C 1616 317.677, 1616.108 318, 1618.345 318 C 1621.545 318, 1624 315.006, 1624 311.106 C 1624 306.255, 1622.402 304, 1618.965 304 L 1616 304 1616 311 M 928.093 314.750 C 927.421 316.813, 926.637 319.063, 926.352 319.750 C 925.993 320.614, 926.940 321, 929.417 321 C 931.421 321, 933 320.500, 933 319.866 C 933 317.807, 930.697 311, 930 311 C 929.624 311, 928.766 312.688, 928.093 314.750 M 1776.093 314.750 C 1775.421 316.813, 1774.637 319.063, 1774.352 319.750 C 1773.993 320.614, 1774.940 321, 1777.417 321 C 1779.421 321, 1781 320.500, 1781 319.866 C 1781 317.807, 1778.697 311, 1778 311 C 1777.624 311, 1776.766 312.688, 1776.093 314.750" stroke="none" fill="#fbfbfb" fill-rule="evenodd"/></svg>