<svg xmlns="http://www.w3.org/2000/svg" width="841" height="955" viewBox="0 0 841 955" version="1.1"><path d="M 0 477.501 L 0 955.002 420.750 954.751 L 841.500 954.500 841.751 477.250 L 842.002 0 421.001 0 L 0 0 0 477.501 M 0.496 478 C 0.496 740.625, 0.610 848.062, 0.750 716.750 C 0.890 585.437, 0.890 370.562, 0.750 239.250 C 0.610 107.937, 0.496 215.375, 0.496 478 M 409.697 10.807 C 406.554 11.008, 404.693 11.635, 404.315 12.622 C 403.666 14.312, 411.192 25.894, 415.818 30.326 C 418.060 32.474, 419.538 33.068, 422.029 32.822 C 427.693 32.264, 427.835 30.278, 422.913 20.455 C 418.109 10.868, 417.355 10.318, 409.697 10.807 M 513.250 16.662 C 512.369 17.018, 512 20.070, 512 27.006 L 512 36.846 504.519 36.280 C 498.827 35.849, 495.975 36.120, 492.597 37.410 C 487.529 39.345, 480.625 46.290, 478.281 51.810 C 475.868 57.493, 475.386 73.377, 477.415 80.356 C 479.206 86.517, 484.267 93.052, 489.237 95.622 C 493.165 97.654, 500.959 97.563, 506.570 95.420 C 510.250 94.015, 511.597 93.892, 513.090 94.824 C 515.539 96.353, 522.262 96.338, 523.800 94.800 C 524.691 93.909, 525 83.779, 525 55.407 C 525 13.003, 525.507 15.921, 518.168 16.079 C 516.151 16.122, 513.938 16.385, 513.250 16.662 M 17.051 20.438 C 16.172 21.497, 15.942 29.201, 16.179 49.688 C 16.487 76.416, 16.590 77.683, 18.818 82.206 C 23.607 91.929, 33.099 97.459, 45 97.459 C 57.017 97.459, 65.714 92.171, 70.408 82.011 C 72.332 77.848, 72.518 75.358, 72.829 49.702 C 73.079 29.058, 72.856 21.531, 71.960 20.452 C 71.182 19.514, 68.864 19, 65.413 19 C 61.154 19, 59.860 19.392, 59.035 20.934 C 58.399 22.123, 58 32.733, 58 48.466 C 58 76.805, 57.508 79.652, 52.128 82.434 C 50.462 83.295, 46.650 84, 43.655 84 C 39.070 84, 37.738 83.557, 35.206 81.192 C 30.579 76.870, 30.012 72.961, 30.006 45.357 C 29.999 17.255, 30.494 19, 22.541 19 C 20.024 19, 17.750 19.596, 17.051 20.438 M 137.681 20.462 C 135.802 22.341, 135.503 26.562, 136.975 30.435 C 137.858 32.756, 138.470 33, 143.404 33 C 150.001 33, 152 31.384, 152 26.051 C 152 21.304, 150.302 19.832, 144.148 19.240 C 140.549 18.894, 138.946 19.197, 137.681 20.462 M 341.922 20.593 C 340.100 22.789, 340.262 28.690, 342.197 30.626 C 344.308 32.737, 352.503 33.657, 354.492 32.007 C 356.642 30.223, 356.583 20.438, 354.418 19.607 C 351.149 18.352, 343.266 18.975, 341.922 20.593 M 534.200 20.200 C 533.540 20.860, 533 23.470, 533 26 C 533 28.530, 533.540 31.140, 534.200 31.800 C 535.974 33.574, 544.543 33.314, 546.429 31.429 C 548.300 29.558, 548.551 21.951, 546.800 20.200 C 545.243 18.643, 535.757 18.643, 534.200 20.200 M 588.250 20.098 C 586.484 21.938, 586.436 93.036, 588.200 94.800 C 589.582 96.182, 596.840 96.387, 598.870 95.101 C 599.908 94.444, 600.272 90.986, 600.370 80.867 L 600.500 67.500 603.658 67.193 C 607.280 66.842, 608.194 67.661, 616.808 78.980 C 619.938 83.095, 624.573 88.607, 627.107 91.230 C 631.617 95.900, 631.843 96, 637.822 96 C 642.791 96, 644.118 95.647, 644.943 94.107 C 646.112 91.922, 646.202 92.054, 632.175 75.209 L 622.772 63.919 627.718 59.177 C 640.559 46.865, 637.947 27.957, 622.500 21.411 C 617.154 19.146, 590.158 18.111, 588.250 20.098 M 365.705 24.011 C 364.757 25.364, 364.453 27.660, 364.776 31.019 C 365.243 35.881, 365.172 36.044, 362.122 37.107 C 356.945 38.912, 356.536 47.113, 361.528 49.011 C 362.888 49.528, 363.994 50.524, 363.987 51.225 C 363.979 51.926, 364.172 59.395, 364.415 67.821 C 364.804 81.317, 365.133 83.698, 367.178 87.805 C 370.174 93.819, 374.248 96.142, 382.890 96.760 C 389.475 97.231, 389.676 97.173, 392.310 94.044 C 393.789 92.285, 395 89.893, 395 88.728 C 395 86.862, 395.388 87.032, 398.250 90.152 C 404.926 97.431, 414.399 99.388, 422.631 95.188 C 426.247 93.344, 426.969 93.262, 428.621 94.514 C 430.923 96.257, 438.158 96.442, 439.800 94.800 C 440.660 93.940, 441 87.413, 441 71.760 C 441 46.178, 440.442 44.108, 432.252 39.293 C 427.849 36.705, 426.729 36.503, 417 36.539 C 409.024 36.568, 405.621 37.005, 402.842 38.359 C 398.411 40.517, 396.376 44.645, 397.745 48.699 C 398.799 51.822, 401.114 52.130, 408.500 50.131 C 413.611 48.747, 422.562 48.695, 425.066 50.035 C 426.142 50.611, 427 52.121, 427 53.437 C 427 55.602, 426.469 55.860, 420.750 56.468 C 406.122 58.024, 398.627 62.174, 395.458 70.470 C 394.499 72.982, 393.939 76.691, 394.143 79.174 L 394.500 83.500 388.396 83.740 C 379.032 84.109, 378.594 83.304, 378.145 64.900 L 377.782 50 382.141 49.844 C 384.538 49.759, 387.511 49.776, 388.746 49.882 C 392.092 50.169, 394.692 48.392, 395.258 45.431 C 396.430 39.300, 393.181 37, 383.351 37 L 378 37 378 30.700 C 378 27.133, 377.479 23.879, 376.800 23.200 C 374.758 21.158, 367.322 21.702, 365.705 24.011 M 600.646 33.480 C 599.828 35.612, 599.797 51.308, 600.607 53.418 C 601.059 54.597, 602.525 54.975, 606.357 54.900 C 613.819 54.756, 616.202 53.824, 618.739 50.060 C 621.858 45.431, 621.801 39.043, 618.608 35.331 C 616.464 32.838, 615.442 32.511, 608.754 32.173 C 602.462 31.855, 601.191 32.060, 600.646 33.480 M 100.432 37.892 C 96.935 39.480, 96.101 39.547, 94.491 38.370 C 92.277 36.751, 86.667 36.573, 83.934 38.035 C 82.095 39.020, 82 40.403, 82 66.335 C 82 86.208, 82.325 93.925, 83.200 94.800 C 84.623 96.223, 91.861 96.372, 94 95.023 C 95.224 94.251, 95.592 90.367, 96 73.947 C 96.479 54.674, 96.594 53.742, 98.715 52.027 C 101.870 49.476, 107.464 48.635, 110.764 50.213 L 113.500 51.523 114 72.511 C 114.275 84.055, 114.864 94.063, 115.309 94.750 C 116.347 96.354, 125.208 96.392, 126.800 94.800 C 127.660 93.940, 128 87.413, 128 71.760 C 128 52.302, 127.793 49.516, 126.106 46.210 C 123.767 41.627, 121.496 39.523, 116.746 37.538 C 111.842 35.489, 105.415 35.629, 100.432 37.892 M 225.734 37.037 C 219.451 38.603, 214.516 41.647, 211.735 45.674 C 206.800 52.820, 205.637 56.847, 205.577 67.001 C 205.528 75.413, 205.839 77.150, 208.286 82.151 C 214.612 95.082, 230.350 100.224, 247.440 94.946 C 252.815 93.286, 254.290 92.375, 255.130 90.196 C 256.376 86.967, 255.638 80.013, 253.940 78.963 C 253.270 78.549, 249.992 79.508, 246.614 81.106 C 233.813 87.162, 220.882 83.432, 219.807 73.372 L 219.500 70.500 237.500 69.941 C 247.400 69.634, 255.669 69.297, 255.875 69.191 C 256.082 69.086, 256.056 65.282, 255.817 60.738 C 255.289 50.671, 251.769 43.199, 245.647 39.148 C 241.317 36.283, 232.510 35.349, 225.734 37.037 M 306.707 37.612 C 303.766 38.516, 300.386 40.614, 297.957 43.043 L 294 47 294 43.035 C 294 40.028, 293.492 38.798, 291.895 37.944 C 289.481 36.652, 284.118 37.404, 279.193 39.724 C 276.045 41.207, 275.814 41.179, 274.386 39.141 C 272.348 36.231, 265.823 36.177, 262.954 39.046 C 260.979 41.021, 260.918 42.020, 261.204 67.584 C 261.452 89.820, 261.741 94.227, 263 95.022 C 265.232 96.432, 272.592 96.196, 273.855 94.675 C 274.546 93.842, 275.056 86.319, 275.227 74.425 L 275.500 55.500 279 53.823 C 280.925 52.901, 285.028 51.844, 288.118 51.475 L 293.736 50.803 294.193 56.309 C 294.444 59.338, 295.423 62.997, 296.369 64.441 C 298.300 67.387, 305.747 71.180, 314 73.419 C 321.518 75.460, 323.465 77.012, 322.637 80.309 C 322.133 82.319, 321.032 83.184, 317.906 84.025 C 312.804 85.399, 309.030 84.620, 301.829 80.707 C 297.041 78.105, 295.911 77.829, 294.579 78.935 C 292.708 80.487, 292.515 85.843, 294.197 89.533 C 298.269 98.471, 323.253 99.609, 331.285 91.223 C 339.206 82.954, 338.658 69.985, 330.147 64.300 C 328.302 63.068, 324.252 61.555, 321.147 60.937 C 312.975 59.312, 308.569 56.977, 308.155 54.051 C 307.672 50.636, 310.397 49, 316.569 49 C 321.449 49, 326.364 50.520, 330.166 53.207 C 333.052 55.245, 335 52.542, 335 46.500 C 335 40.215, 334.151 39.333, 326.304 37.458 C 318.932 35.697, 312.782 35.745, 306.707 37.612 M 659.385 37.617 C 648.448 41.496, 643 51.126, 643 66.579 C 643 76.661, 645.104 83.593, 649.845 89.132 C 654.636 94.729, 659.856 96.951, 668.282 96.978 C 684.285 97.030, 693.535 87.539, 694.750 69.822 C 695.780 54.788, 690.625 43.884, 679.921 38.460 C 674.273 35.598, 666.033 35.260, 659.385 37.617 M 718.012 37.536 C 715.375 38.721, 713.960 38.847, 712.215 38.052 C 709.270 36.710, 704.424 36.702, 701.934 38.035 C 700.093 39.021, 700 40.409, 700 66.928 C 700 97.829, 699.573 96.015, 706.832 95.985 C 713.238 95.958, 713.149 96.249, 713.413 74.487 L 713.653 54.699 716.842 51.850 C 721.822 47.400, 726.883 48.357, 728.895 54.128 C 729.545 55.992, 730 64.776, 730 75.449 C 730 88.233, 730.355 93.955, 731.200 94.800 C 732.951 96.551, 740.558 96.300, 742.429 94.429 C 743.749 93.108, 744 89.761, 744 73.468 C 744 54.957, 744.097 53.988, 746.135 52.089 C 750.538 47.987, 757.398 48.285, 759.057 52.651 C 759.576 54.014, 760 63.455, 760 73.631 C 760 84.471, 760.429 92.932, 761.035 94.066 C 761.836 95.563, 763.148 96, 766.835 96 C 769.456 96, 772.140 95.460, 772.800 94.800 C 774.419 93.181, 774.474 52.716, 772.864 47.899 C 768.746 35.579, 753.912 32.340, 741.889 41.136 C 740.580 42.094, 739.580 41.781, 736.541 39.464 C 731.936 35.951, 723.493 35.073, 718.012 37.536 M 791 37.065 C 784.442 38.192, 782 40.614, 782 45.988 C 782 51.664, 783.787 52.604, 790.824 50.629 C 798.802 48.391, 807.141 48.484, 810.056 50.844 C 813.866 53.930, 812.044 55.733, 804.315 56.526 C 791.879 57.803, 783.723 61.739, 780.539 68 C 777.298 74.373, 777.688 83.756, 781.425 89.305 C 786.561 96.930, 799.544 99.827, 807.511 95.126 C 810.899 93.127, 811.413 93.064, 812.955 94.459 C 813.908 95.321, 816.470 96, 818.772 96 C 825.639 96, 826.007 94.771, 825.956 72.027 C 825.900 47.030, 824.796 43.514, 815.500 38.728 C 810.851 36.335, 799.664 35.575, 791 37.065 M 138.750 38.080 C 137.151 39.011, 137 41.452, 137 66.350 C 137 86.211, 137.325 93.925, 138.200 94.800 C 138.860 95.460, 141.544 96, 144.165 96 C 147.852 96, 149.164 95.563, 149.965 94.066 C 150.604 92.872, 151 81.977, 151 65.601 C 151 40.394, 150.903 39.019, 149.066 38.035 C 146.616 36.724, 141.036 36.749, 138.750 38.080 M 155.200 38.200 C 154.540 38.860, 154 40.106, 154 40.968 C 154 41.830, 158.275 53.734, 163.500 67.421 C 168.725 81.108, 173 92.431, 173 92.582 C 173 92.733, 173.707 93.564, 174.571 94.429 C 176.452 96.309, 182.975 96.506, 185.204 94.750 C 186.077 94.063, 191.199 81.407, 196.587 66.626 C 206.088 40.559, 206.324 39.709, 204.441 38.300 C 202.283 36.685, 195.825 37.070, 193.563 38.948 C 192.815 39.568, 189.616 47.507, 186.454 56.590 C 183.291 65.673, 180.376 72.743, 179.976 72.302 C 179.575 71.861, 177.659 67, 175.718 61.500 C 168.619 41.384, 167.995 40.049, 164.972 38.486 C 161.506 36.693, 156.843 36.557, 155.200 38.200 M 343.750 38.080 C 342.151 39.011, 342 41.452, 342 66.350 C 342 86.211, 342.325 93.925, 343.200 94.800 C 344.623 96.223, 351.862 96.372, 354 95.022 C 355.258 94.228, 355.548 89.858, 355.798 67.935 C 356.139 37.991, 355.923 36.976, 349.227 37.030 C 347.177 37.047, 344.712 37.519, 343.750 38.080 M 535.750 38.080 C 534.150 39.012, 534 41.480, 534 66.943 C 534 97.846, 533.563 96, 540.882 96 C 542.927 96, 545.140 95.460, 545.800 94.800 C 546.674 93.926, 547 86.244, 547 66.500 C 547 46.756, 546.674 39.074, 545.800 38.200 C 544.346 36.746, 538.168 36.672, 535.750 38.080 M 225.299 49.960 C 222.064 51.932, 218.551 57.217, 219.707 58.373 C 220.702 59.368, 241.820 59.100, 242.448 58.084 C 243.262 56.767, 241.421 52.421, 239.040 50.040 C 236.359 47.359, 229.629 47.319, 225.299 49.960 M 661.549 51.091 C 657.241 54.874, 655.601 60.283, 656.257 68.545 C 657.101 79.180, 661.404 85, 668.423 85 C 678.129 85, 683.769 73.836, 680.942 60.220 C 678.551 48.704, 669.253 44.327, 661.549 51.091 M 496.241 50.325 C 490.596 53.460, 488.109 62.479, 490.051 72.771 C 492.119 83.732, 497.637 86.618, 507.750 82.027 L 512 80.098 512 65.584 C 512 52.258, 511.842 50.986, 510.066 50.035 C 507.417 48.618, 498.998 48.794, 496.241 50.325 M 415.806 69.399 C 409.500 71.096, 407.997 72.538, 408.015 76.872 C 408.033 81.062, 408.663 82.260, 411.684 83.850 C 419.108 87.758, 428 81.081, 428 71.599 C 428 68.095, 427.901 68.002, 424.250 68.067 C 422.188 68.105, 418.388 68.704, 415.806 69.399 M 804.500 68.497 C 803.950 68.684, 801.787 69.123, 799.694 69.474 C 793.397 70.529, 790.372 75.593, 792.588 81.370 C 793.550 83.876, 799.288 85.269, 803.728 84.073 C 810.007 82.382, 812 79.826, 812 73.461 L 812 68 808.750 68.079 C 806.962 68.122, 805.050 68.311, 804.500 68.497 M 15.603 110.887 C 14.001 112.656, 13.917 126.158, 14.246 327.637 L 14.597 542.500 17.300 559.558 C 23.377 597.910, 32.653 626.329, 50.020 659.805 C 76.948 711.711, 120.977 756.696, 171.938 784.374 C 177.679 787.492, 182.629 790.295, 182.938 790.604 C 183.247 790.913, 183.725 823.191, 184 862.333 L 184.500 933.500 505.500 933.500 L 826.500 933.500 826.500 522 L 826.500 110.500 723.500 110.144 C 666.850 109.948, 573.025 109.601, 515 109.373 C 456.975 109.144, 400.050 109.372, 388.500 109.880 C 376.950 110.388, 367.050 110.438, 366.500 109.992 C 365.950 109.545, 339.625 109.406, 308 109.681 C 276.375 109.957, 249.488 110.099, 248.250 109.996 C 244.337 109.673, 217.105 109.493, 201 109.683 C 192.475 109.784, 178.977 109.646, 171.004 109.378 C 152.621 108.758, 153.121 108.349, 153.791 123.413 L 154.262 134 140.631 134 L 127 134 127 123.071 C 127 114.470, 126.665 111.808, 125.429 110.571 C 124.039 109.182, 117.681 109, 70.584 109 C 19.646 109, 17.235 109.083, 15.603 110.887 M 20.351 115.528 C 20.106 116.166, 20.075 212.271, 20.281 329.094 C 20.693 562.044, 20.315 547.211, 26.629 578 C 33.943 613.667, 49.984 651.915, 70.447 682.479 C 83.540 702.035, 91.091 711.200, 108.443 728.592 C 143.902 764.133, 175.729 783.637, 225 800.021 C 289.049 821.319, 348.451 821.156, 413.500 799.504 C 458.156 784.640, 493.092 762.972, 527.090 729.055 C 547.559 708.635, 560.989 691.307, 575.452 666.656 C 593.587 635.745, 607.271 595.949, 613.158 557 L 615.500 541.500 615.500 328 L 615.500 114.500 508.750 114.250 L 402 114.001 402 125.500 C 402 141.520, 402.671 141, 382 141 C 361.368 141, 362 141.482, 362 125.750 L 362 114.500 351.500 114.500 L 341 114.500 341 126.095 C 341 141.676, 341.883 141.004, 321.421 140.985 C 312.665 140.976, 304.825 140.544, 304 140.024 C 302.850 139.299, 302.383 136.239, 302 126.911 L 301.500 114.744 291.500 114.745 L 281.500 114.747 281.215 126.083 C 280.823 141.703, 281.743 141.004, 261.595 140.985 C 252.743 140.976, 244.825 140.544, 244 140.024 C 242.851 139.300, 242.383 136.243, 242 126.943 L 241.500 114.808 231.328 114.654 L 221.155 114.500 220.828 126.333 C 220.541 136.670, 220.255 138.344, 218.559 139.583 C 217.072 140.668, 212.811 141, 200.366 141 C 180.208 141, 181 141.633, 181 125.527 L 181 114.500 170.250 114.605 L 159.500 114.709 159.216 126.566 C 159.026 134.512, 158.532 138.678, 157.716 139.196 C 157.047 139.622, 148.978 139.976, 139.785 139.985 C 119.727 140.003, 120.805 140.854, 121.074 125.213 L 121.258 114.500 71.027 114.434 C 33.782 114.385, 20.681 114.668, 20.351 115.528 M 154.861 167.749 C 127.902 167.995, 124.058 168.226, 122.861 169.668 C 121.812 170.932, 121.504 175.862, 121.519 191.138 C 121.536 208.265, 121.765 211.193, 123.199 212.628 C 124.729 214.157, 135.615 214.296, 261.773 214.394 C 376.462 214.483, 398.956 214.277, 400.343 213.128 C 401.791 211.928, 402 209.061, 402 190.413 C 402 170.336, 401.885 169.009, 400.066 168.035 C 398.288 167.084, 247.190 166.908, 154.861 167.749 M 126.228 191.750 L 126.500 210.500 154.378 210.766 C 174.111 210.954, 182.657 210.699, 183.628 209.894 C 184.688 209.014, 185 205.048, 185 192.459 C 185 183.497, 184.727 175.452, 184.393 174.582 C 183.859 173.190, 180.315 173, 154.871 173 L 125.956 173 126.228 191.750 M 153.500 235.741 C 126.731 235.984, 123.365 236.195, 122.250 237.698 C 121.354 238.905, 121 244.709, 121 258.191 C 121 275.101, 121.185 277.185, 122.834 278.834 C 124.549 280.549, 128.071 280.712, 176.584 281.333 C 205.138 281.699, 266.588 281.998, 313.139 281.999 C 393.226 282, 397.898 281.903, 400.006 280.196 C 402.173 278.441, 402.236 277.840, 402.288 258.254 C 402.328 243.188, 402.016 237.724, 401.049 236.558 C 399.890 235.162, 388.509 235.024, 291.628 235.235 C 232.157 235.364, 170 235.592, 153.500 235.741 M 126.682 240.651 C 126.307 241.026, 126 249.358, 126 259.167 L 126 277 155.023 277 L 184.045 277 183.773 258.750 L 183.500 240.500 155.432 240.235 C 139.994 240.089, 127.057 240.276, 126.682 240.651 M 176.285 301.932 C 128.912 302.457, 124.936 302.634, 123.285 304.284 C 121.711 305.858, 121.469 308.414, 121.237 325.901 C 121.016 342.667, 121.211 345.930, 122.498 346.999 C 123.703 347.998, 152.448 348.371, 259.859 348.778 C 334.570 349.061, 396.860 349.001, 398.282 348.644 C 399.712 348.285, 401.201 346.991, 401.616 345.748 C 402.857 342.021, 402.031 304.677, 400.677 303.323 C 399.264 301.910, 257.437 301.031, 176.285 301.932 M 127.227 326.250 L 127.500 344.500 156 344.500 L 184.500 344.500 184.773 326.250 L 185.045 308 156 308 L 126.955 308 127.227 326.250 M 153.712 369.972 C 127.833 370.416, 122.774 370.739, 121.978 372 C 121.457 372.825, 121.024 382.163, 121.015 392.750 C 121.002 410.100, 121.181 412.181, 122.835 413.835 C 124.539 415.539, 127.876 415.716, 169.999 416.335 C 194.930 416.701, 256.585 417, 307.009 417 C 397.730 417, 398.709 416.979, 400.519 414.980 C 402.159 413.166, 402.355 410.848, 402.424 392.400 C 402.495 373.155, 402.376 371.751, 400.559 370.421 C 398.906 369.211, 382.739 369.033, 291.559 369.222 C 232.676 369.343, 170.646 369.681, 153.712 369.972 M 126.667 375.667 C 126.300 376.033, 126 384.583, 126 394.667 L 126 413 154.300 413 C 174.978 413, 182.923 412.677, 183.800 411.800 C 185.066 410.534, 185.585 379.688, 184.393 376.582 C 183.859 375.191, 180.376 375, 155.560 375 C 140.035 375, 127.033 375.300, 126.667 375.667 M 122.979 439.021 C 121.068 440.932, 120.973 442.112, 121.229 460.758 L 121.500 480.475 124.430 481.878 C 126.884 483.054, 149.336 483.364, 262.581 483.785 L 397.802 484.289 400.478 481.613 L 403.154 478.937 402.451 459.218 C 402.064 448.373, 401.299 438.938, 400.751 438.250 C 399.963 437.261, 371.082 437, 262.378 437 C 125.856 437, 124.987 437.013, 122.979 439.021 M 127.227 461.250 L 127.500 479.500 156 479.500 L 184.500 479.500 184.773 461.250 L 185.045 443 156 443 L 126.955 443 127.227 461.250 M 189 503.734 C 124.649 503.981, 124.496 503.987, 122.750 506.102 C 121.218 507.958, 121 510.610, 121 527.420 C 121 541.849, 121.332 547.071, 122.335 548.443 C 123.612 550.190, 129.513 550.288, 261.085 550.739 C 383.146 551.157, 398.723 551.040, 400.500 549.686 C 402.388 548.247, 402.500 546.986, 402.500 527.164 C 402.500 515.615, 402.198 505.865, 401.829 505.496 C 399.266 502.933, 398.489 502.926, 189 503.734 M 127 528.500 L 127 547 156 547 L 185 547 185 528.500 L 185 510 156 510 L 127 510 127 528.500 M 154.332 571.972 C 137.189 572.262, 122.801 572.863, 122.358 573.308 C 121.914 573.752, 121.377 582.977, 121.164 593.809 C 120.805 612.061, 120.917 613.675, 122.694 615.871 L 124.613 618.240 260.145 618.769 C 334.687 619.060, 396.797 619.017, 398.167 618.673 C 402.356 617.622, 403 614.388, 403 594.407 C 403 576.101, 402.975 575.884, 400.545 573.455 L 398.091 571 291.795 571.222 C 233.333 571.344, 171.474 571.681, 154.332 571.972 M 126 595.393 C 126 611.243, 126.219 613.870, 127.582 614.393 C 129.646 615.185, 180.354 615.185, 182.418 614.393 C 183.781 613.870, 184 611.243, 184 595.393 L 184 577 155 577 L 126 577 126 595.393 M 292.681 831.652 C 292.307 832.027, 292 834.050, 292 836.148 C 292 840.736, 292.438 840.896, 306 841.251 L 315.500 841.500 316 873.500 L 316.500 905.500 321.260 905.805 C 325.008 906.045, 326.160 905.747, 326.675 904.404 C 327.035 903.466, 327.368 889.305, 327.415 872.935 C 327.462 856.565, 327.873 842.796, 328.329 842.336 C 328.785 841.876, 334.185 841.275, 340.329 841 L 351.500 840.500 351.500 836 L 351.500 831.500 322.431 831.235 C 306.444 831.090, 293.056 831.277, 292.681 831.652 M 473.079 831.930 C 471.912 832.669, 473.840 839.151, 483.855 868.165 C 490.705 888.007, 496.783 904.048, 497.718 904.750 C 499.918 906.403, 506.464 906.351, 507.859 904.670 C 509.667 902.491, 533.104 833.714, 532.540 832.243 C 532.179 831.303, 530.565 830.983, 527.260 831.195 L 522.500 831.500 518.812 842.500 C 516.783 848.550, 512.719 860.925, 509.779 870 C 506.642 879.687, 503.919 886.500, 503.185 886.500 C 502.437 886.500, 498.486 876.059, 493.347 860.500 C 488.623 846.200, 484.068 833.712, 483.224 832.750 C 481.575 830.869, 475.528 830.380, 473.079 831.930 M 737.250 833.662 C 736.418 833.998, 736 836.492, 736 841.115 C 736 846.859, 735.697 848.156, 734.250 848.604 C 730.508 849.760, 729.546 850.800, 729.392 853.856 C 729.221 857.265, 730.066 858.225, 733.386 858.393 C 735.442 858.497, 735.514 859.026, 736 877.500 C 736.275 887.950, 736.904 897.175, 737.399 898 C 739.256 901.099, 742.584 904.245, 745 905.184 C 748.434 906.520, 759.894 906.333, 761.604 904.914 C 762.372 904.277, 763 901.968, 763 899.784 L 763 895.812 758.087 896.488 C 753.230 897.156, 749.429 896.093, 747.765 893.600 C 746.795 892.148, 746.781 859.022, 747.750 858.924 C 748.163 858.883, 751.500 858.770, 755.167 858.674 C 758.834 858.578, 762.060 858.274, 762.336 857.998 C 762.612 857.722, 763.132 856.324, 763.491 854.892 C 764.493 850.899, 761.920 849, 755.510 849 C 747.325 849, 747 848.717, 747 841.593 C 747 838.110, 746.475 834.875, 745.800 834.200 C 744.608 833.008, 739.644 832.696, 737.250 833.662 M 369.921 849.367 C 362.675 851.958, 358.886 856.048, 355.922 864.482 C 353.730 870.718, 353.375 881.632, 355.136 888.625 C 356.650 894.638, 364.486 903.257, 370.542 905.569 C 379.115 908.843, 392.044 905.410, 397.901 898.304 C 401.959 893.381, 403.515 887.077, 403.408 876 C 403.334 868.428, 402.887 865.664, 401.205 862.384 C 396.010 852.246, 389.616 848.029, 379.500 848.066 C 376.200 848.078, 371.890 848.663, 369.921 849.367 M 549.375 850.943 C 542.887 854.214, 538.930 858.729, 536.444 865.698 C 534.626 870.794, 534.652 882.466, 536.495 888.672 C 538.490 895.388, 544.675 902.323, 550.768 904.674 C 559.045 907.868, 573.789 906.732, 580.750 902.365 C 582.587 901.213, 583 900.051, 583 896.036 C 583 893.331, 582.639 890.895, 582.197 890.622 C 581.756 890.349, 579.240 891.527, 576.606 893.240 C 572.277 896.056, 571.037 896.362, 563.659 896.427 C 553.769 896.515, 551.149 895.099, 548.103 888.017 C 545.727 882.495, 545.402 879.034, 547.250 878.928 C 547.938 878.889, 555.863 878.704, 564.861 878.517 C 574.015 878.327, 581.666 877.734, 582.229 877.171 C 583.854 875.546, 582.663 862.953, 580.468 858.564 C 579.386 856.400, 576.773 853.251, 574.661 851.568 C 571.259 848.855, 569.951 848.470, 563.161 848.181 C 556.241 847.886, 554.908 848.154, 549.375 850.943 M 640 849.247 C 635.047 850.894, 626.710 859.560, 625.216 864.616 C 623.756 869.559, 623.626 883.115, 624.993 888.035 C 626.650 893.998, 631.407 900.488, 635.615 902.525 C 640.700 904.987, 649.282 904.996, 654.343 902.545 C 657.593 900.971, 658.330 900.901, 659.114 902.092 C 660.566 904.294, 659.109 910.250, 656.458 912.951 C 653.323 916.146, 643.718 916.947, 635.931 914.664 C 633.015 913.810, 630.263 913.337, 629.815 913.614 C 629.367 913.891, 629 916.101, 629 918.524 C 629 924.667, 630.798 925.475, 644.500 925.489 C 654.326 925.499, 655.952 925.241, 659.736 923.074 C 664.862 920.138, 668.543 915.053, 669.924 909 C 670.489 906.525, 670.962 892.518, 670.976 877.872 C 670.995 856.392, 670.732 851.023, 669.616 850.096 C 668.855 849.464, 665.817 849.009, 662.866 849.083 C 659.915 849.158, 654.350 848.964, 650.500 848.652 C 646.278 848.309, 642.111 848.546, 640 849.247 M 687.367 849.088 C 684.109 850.033, 683.039 852.065, 683.014 857.359 C 683.001 860.109, 683.144 860.195, 686.750 859.598 C 688.813 859.257, 694.178 858.703, 698.674 858.367 C 706.510 857.782, 706.954 857.864, 709.424 860.333 C 710.843 861.752, 712 864.053, 712 865.455 C 712 867.780, 711.632 868.002, 707.750 868.017 C 701.395 868.043, 690.306 870.648, 686.479 873.013 C 679.388 877.396, 676.297 887.252, 679.436 895.471 C 683.458 906.002, 695.909 909.898, 707.026 904.104 L 711.021 902.021 713.068 904.068 C 714.550 905.550, 716.132 906.029, 718.807 905.807 L 722.500 905.500 722.801 885 C 723.117 863.461, 722.571 859.267, 718.829 854.510 C 715.160 849.845, 709.691 848.035, 699.500 848.112 C 694.550 848.150, 689.090 848.589, 687.367 849.088 M 774.121 848.949 C 770.151 849.949, 769.036 851.390, 769.015 855.550 C 768.991 860.334, 770.346 860.981, 776.833 859.285 C 785.046 857.137, 794.702 857.913, 797.134 860.917 C 798.160 862.184, 799 864.232, 799 865.466 C 799 867.533, 798.423 867.758, 791.750 868.296 C 773.274 869.786, 765 876.131, 765 888.811 C 765 895.498, 768.410 901.732, 773.540 904.423 C 779.136 907.358, 788.215 907.251, 793.406 904.188 L 797.272 901.907 799.580 904.075 C 801.443 905.825, 802.584 906.113, 805.495 905.567 L 809.102 904.890 808.801 881.516 C 808.518 859.569, 808.371 857.969, 806.395 855.321 C 802.429 850.005, 798.518 848.554, 787.507 848.316 C 782.003 848.196, 775.979 848.482, 774.121 848.949 M 412.200 850.200 C 411.327 851.073, 411 858.665, 411 878.093 C 411 907.043, 410.795 906, 416.500 906 C 422.082 906, 422 906.297, 422 885.964 C 422 865.395, 421.936 865.636, 428.248 862.372 C 429.930 861.502, 433.368 860.496, 435.888 860.135 C 440.301 859.504, 440.494 859.333, 441.145 855.490 C 442.381 848.200, 437.630 847.165, 427.546 852.527 C 424.987 853.887, 422.749 855, 422.572 855 C 422.395 855, 421.980 853.650, 421.650 852 C 421.109 849.294, 420.675 849, 417.225 849 C 415.121 849, 412.860 849.540, 412.200 850.200 M 591.667 849.667 C 591.300 850.033, 591 862.419, 591 877.191 L 591 904.050 593.565 905.025 C 597.120 906.376, 598.607 906.250, 600.414 904.443 C 601.689 903.168, 601.858 901.308, 601.350 894.155 C 601.009 889.352, 601.060 881.030, 601.462 875.661 L 602.194 865.900 606.053 863.346 C 608.316 861.848, 612.102 860.525, 615.206 860.146 L 620.500 859.500 620.500 854.500 L 620.500 849.500 616.153 849.779 C 613.763 849.932, 609.957 851.002, 607.695 852.155 C 604.926 853.568, 603.460 853.879, 603.203 853.109 C 602.353 850.560, 599.655 849, 596.095 849 C 594.026 849, 592.033 849.300, 591.667 849.667 M 373 858.254 C 367.569 860.187, 364.511 867.157, 364.556 877.500 C 364.612 890.565, 369.379 897, 379 897 C 384.309 897, 388.562 894.747, 390.564 890.876 C 391.831 888.427, 392.094 885.319, 391.831 875.909 C 391.506 864.231, 391.450 863.983, 388.495 861.031 C 384.945 857.484, 378.439 856.318, 373 858.254 M 554.500 857.943 C 550.411 859.611, 546.884 864.198, 547.201 867.436 L 547.500 870.500 560 870.500 C 572.087 870.500, 572.510 870.428, 572.811 868.318 C 573.266 865.121, 570.398 860.257, 567.033 858.517 C 563.890 856.892, 557.764 856.611, 554.500 857.943 M 642.096 859.265 C 638.098 861.319, 635.919 865.301, 634.810 872.579 C 633.114 883.701, 637.001 892.963, 644.010 894.502 C 647.563 895.282, 657.189 892.683, 659.049 890.440 C 660.021 889.270, 660.302 885.184, 660.134 874.680 C 659.945 862.872, 659.632 860.291, 658.263 859.250 C 656.150 857.645, 645.229 857.655, 642.096 859.265 M 703 877.649 C 693.404 879.094, 689 882.564, 689 888.680 C 689 893.794, 692.663 897, 698.504 897 C 707.645 897, 712 892.337, 712 882.550 L 712 877 708.750 877.136 C 706.962 877.211, 704.375 877.442, 703 877.649 M 786.776 878.031 C 778.033 879.504, 773.528 884.997, 775.914 891.274 C 777.530 895.525, 781.243 897.327, 787.204 896.754 C 791.552 896.337, 792.903 895.682, 795.688 892.643 C 798.670 889.390, 799 888.429, 799 883.015 L 799 877 795.250 877.118 C 793.188 877.182, 789.374 877.593, 786.776 878.031" stroke="none" fill="#fafbfa" fill-rule="evenodd"/><path d="M 409.697 10.807 C 406.554 11.008, 404.693 11.635, 404.315 12.622 C 403.666 14.312, 411.192 25.894, 415.818 30.326 C 418.060 32.474, 419.538 33.068, 422.029 32.822 C 427.693 32.264, 427.835 30.278, 422.913 20.455 C 418.109 10.868, 417.355 10.318, 409.697 10.807 M 513.250 16.662 C 512.369 17.018, 512 20.070, 512 27.006 L 512 36.846 504.519 36.280 C 498.827 35.849, 495.975 36.120, 492.597 37.410 C 487.529 39.345, 480.625 46.290, 478.281 51.810 C 475.868 57.493, 475.386 73.377, 477.415 80.356 C 479.206 86.517, 484.267 93.052, 489.237 95.622 C 493.165 97.654, 500.959 97.563, 506.570 95.420 C 510.250 94.015, 511.597 93.892, 513.090 94.824 C 515.539 96.353, 522.262 96.338, 523.800 94.800 C 524.691 93.909, 525 83.779, 525 55.407 C 525 13.003, 525.507 15.921, 518.168 16.079 C 516.151 16.122, 513.938 16.385, 513.250 16.662 M 17.051 20.438 C 16.172 21.497, 15.942 29.201, 16.179 49.688 C 16.487 76.416, 16.590 77.683, 18.818 82.206 C 23.607 91.929, 33.099 97.459, 45 97.459 C 57.017 97.459, 65.714 92.171, 70.408 82.011 C 72.332 77.848, 72.518 75.358, 72.829 49.702 C 73.079 29.058, 72.856 21.531, 71.960 20.452 C 71.182 19.514, 68.864 19, 65.413 19 C 61.154 19, 59.860 19.392, 59.035 20.934 C 58.399 22.123, 58 32.733, 58 48.466 C 58 76.805, 57.508 79.652, 52.128 82.434 C 50.462 83.295, 46.650 84, 43.655 84 C 39.070 84, 37.738 83.557, 35.206 81.192 C 30.579 76.870, 30.012 72.961, 30.006 45.357 C 29.999 17.255, 30.494 19, 22.541 19 C 20.024 19, 17.750 19.596, 17.051 20.438 M 137.681 20.462 C 135.802 22.341, 135.503 26.562, 136.975 30.435 C 137.858 32.756, 138.470 33, 143.404 33 C 150.001 33, 152 31.384, 152 26.051 C 152 21.304, 150.302 19.832, 144.148 19.240 C 140.549 18.894, 138.946 19.197, 137.681 20.462 M 341.922 20.593 C 340.100 22.789, 340.262 28.690, 342.197 30.626 C 344.308 32.737, 352.503 33.657, 354.492 32.007 C 356.642 30.223, 356.583 20.438, 354.418 19.607 C 351.149 18.352, 343.266 18.975, 341.922 20.593 M 534.200 20.200 C 533.540 20.860, 533 23.470, 533 26 C 533 28.530, 533.540 31.140, 534.200 31.800 C 535.974 33.574, 544.543 33.314, 546.429 31.429 C 548.300 29.558, 548.551 21.951, 546.800 20.200 C 545.243 18.643, 535.757 18.643, 534.200 20.200 M 588.250 20.098 C 586.484 21.938, 586.436 93.036, 588.200 94.800 C 589.582 96.182, 596.840 96.387, 598.870 95.101 C 599.908 94.444, 600.272 90.986, 600.370 80.867 L 600.500 67.500 603.658 67.193 C 607.280 66.842, 608.194 67.661, 616.808 78.980 C 619.938 83.095, 624.573 88.607, 627.107 91.230 C 631.617 95.900, 631.843 96, 637.822 96 C 642.791 96, 644.118 95.647, 644.943 94.107 C 646.112 91.922, 646.202 92.054, 632.175 75.209 L 622.772 63.919 627.718 59.177 C 640.559 46.865, 637.947 27.957, 622.500 21.411 C 617.154 19.146, 590.158 18.111, 588.250 20.098 M 365.705 24.011 C 364.757 25.364, 364.453 27.660, 364.776 31.019 C 365.243 35.881, 365.172 36.044, 362.122 37.107 C 356.945 38.912, 356.536 47.113, 361.528 49.011 C 362.888 49.528, 363.994 50.524, 363.987 51.225 C 363.979 51.926, 364.172 59.395, 364.415 67.821 C 364.804 81.317, 365.133 83.698, 367.178 87.805 C 370.174 93.819, 374.248 96.142, 382.890 96.760 C 389.475 97.231, 389.676 97.173, 392.310 94.044 C 393.789 92.285, 395 89.893, 395 88.728 C 395 86.862, 395.388 87.032, 398.250 90.152 C 404.926 97.431, 414.399 99.388, 422.631 95.188 C 426.247 93.344, 426.969 93.262, 428.621 94.514 C 430.923 96.257, 438.158 96.442, 439.800 94.800 C 440.660 93.940, 441 87.413, 441 71.760 C 441 46.178, 440.442 44.108, 432.252 39.293 C 427.849 36.705, 426.729 36.503, 417 36.539 C 409.024 36.568, 405.621 37.005, 402.842 38.359 C 398.411 40.517, 396.376 44.645, 397.745 48.699 C 398.799 51.822, 401.114 52.130, 408.500 50.131 C 413.611 48.747, 422.562 48.695, 425.066 50.035 C 426.142 50.611, 427 52.121, 427 53.437 C 427 55.602, 426.469 55.860, 420.750 56.468 C 406.122 58.024, 398.627 62.174, 395.458 70.470 C 394.499 72.982, 393.939 76.691, 394.143 79.174 L 394.500 83.500 388.396 83.740 C 379.032 84.109, 378.594 83.304, 378.145 64.900 L 377.782 50 382.141 49.844 C 384.538 49.759, 387.511 49.776, 388.746 49.882 C 392.092 50.169, 394.692 48.392, 395.258 45.431 C 396.430 39.300, 393.181 37, 383.351 37 L 378 37 378 30.700 C 378 27.133, 377.479 23.879, 376.800 23.200 C 374.758 21.158, 367.322 21.702, 365.705 24.011 M 600.646 33.480 C 599.828 35.612, 599.797 51.308, 600.607 53.418 C 601.059 54.597, 602.525 54.975, 606.357 54.900 C 613.819 54.756, 616.202 53.824, 618.739 50.060 C 621.858 45.431, 621.801 39.043, 618.608 35.331 C 616.464 32.838, 615.442 32.511, 608.754 32.173 C 602.462 31.855, 601.191 32.060, 600.646 33.480 M 100.432 37.892 C 96.935 39.480, 96.101 39.547, 94.491 38.370 C 92.277 36.751, 86.667 36.573, 83.934 38.035 C 82.095 39.020, 82 40.403, 82 66.335 C 82 86.208, 82.325 93.925, 83.200 94.800 C 84.623 96.223, 91.861 96.372, 94 95.023 C 95.224 94.251, 95.592 90.367, 96 73.947 C 96.479 54.674, 96.594 53.742, 98.715 52.027 C 101.870 49.476, 107.464 48.635, 110.764 50.213 L 113.500 51.523 114 72.511 C 114.275 84.055, 114.864 94.063, 115.309 94.750 C 116.347 96.354, 125.208 96.392, 126.800 94.800 C 127.660 93.940, 128 87.413, 128 71.760 C 128 52.302, 127.793 49.516, 126.106 46.210 C 123.767 41.627, 121.496 39.523, 116.746 37.538 C 111.842 35.489, 105.415 35.629, 100.432 37.892 M 225.734 37.037 C 219.451 38.603, 214.516 41.647, 211.735 45.674 C 206.800 52.820, 205.637 56.847, 205.577 67.001 C 205.528 75.413, 205.839 77.150, 208.286 82.151 C 214.612 95.082, 230.350 100.224, 247.440 94.946 C 252.815 93.286, 254.290 92.375, 255.130 90.196 C 256.376 86.967, 255.638 80.013, 253.940 78.963 C 253.270 78.549, 249.992 79.508, 246.614 81.106 C 233.813 87.162, 220.882 83.432, 219.807 73.372 L 219.500 70.500 237.500 69.941 C 247.400 69.634, 255.669 69.297, 255.875 69.191 C 256.082 69.086, 256.056 65.282, 255.817 60.738 C 255.289 50.671, 251.769 43.199, 245.647 39.148 C 241.317 36.283, 232.510 35.349, 225.734 37.037 M 306.707 37.612 C 303.766 38.516, 300.386 40.614, 297.957 43.043 L 294 47 294 43.035 C 294 40.028, 293.492 38.798, 291.895 37.944 C 289.481 36.652, 284.118 37.404, 279.193 39.724 C 276.045 41.207, 275.814 41.179, 274.386 39.141 C 272.348 36.231, 265.823 36.177, 262.954 39.046 C 260.979 41.021, 260.918 42.020, 261.204 67.584 C 261.452 89.820, 261.741 94.227, 263 95.022 C 265.232 96.432, 272.592 96.196, 273.855 94.675 C 274.546 93.842, 275.056 86.319, 275.227 74.425 L 275.500 55.500 279 53.823 C 280.925 52.901, 285.028 51.844, 288.118 51.475 L 293.736 50.803 294.193 56.309 C 294.444 59.338, 295.423 62.997, 296.369 64.441 C 298.300 67.387, 305.747 71.180, 314 73.419 C 321.518 75.460, 323.465 77.012, 322.637 80.309 C 322.133 82.319, 321.032 83.184, 317.906 84.025 C 312.804 85.399, 309.030 84.620, 301.829 80.707 C 297.041 78.105, 295.911 77.829, 294.579 78.935 C 292.708 80.487, 292.515 85.843, 294.197 89.533 C 298.269 98.471, 323.253 99.609, 331.285 91.223 C 339.206 82.954, 338.658 69.985, 330.147 64.300 C 328.302 63.068, 324.252 61.555, 321.147 60.937 C 312.975 59.312, 308.569 56.977, 308.155 54.051 C 307.672 50.636, 310.397 49, 316.569 49 C 321.449 49, 326.364 50.520, 330.166 53.207 C 333.052 55.245, 335 52.542, 335 46.500 C 335 40.215, 334.151 39.333, 326.304 37.458 C 318.932 35.697, 312.782 35.745, 306.707 37.612 M 659.385 37.617 C 648.448 41.496, 643 51.126, 643 66.579 C 643 76.661, 645.104 83.593, 649.845 89.132 C 654.636 94.729, 659.856 96.951, 668.282 96.978 C 684.285 97.030, 693.535 87.539, 694.750 69.822 C 695.780 54.788, 690.625 43.884, 679.921 38.460 C 674.273 35.598, 666.033 35.260, 659.385 37.617 M 718.012 37.536 C 715.375 38.721, 713.960 38.847, 712.215 38.052 C 709.270 36.710, 704.424 36.702, 701.934 38.035 C 700.093 39.021, 700 40.409, 700 66.928 C 700 97.829, 699.573 96.015, 706.832 95.985 C 713.238 95.958, 713.149 96.249, 713.413 74.487 L 713.653 54.699 716.842 51.850 C 721.822 47.400, 726.883 48.357, 728.895 54.128 C 729.545 55.992, 730 64.776, 730 75.449 C 730 88.233, 730.355 93.955, 731.200 94.800 C 732.951 96.551, 740.558 96.300, 742.429 94.429 C 743.749 93.108, 744 89.761, 744 73.468 C 744 54.957, 744.097 53.988, 746.135 52.089 C 750.538 47.987, 757.398 48.285, 759.057 52.651 C 759.576 54.014, 760 63.455, 760 73.631 C 760 84.471, 760.429 92.932, 761.035 94.066 C 761.836 95.563, 763.148 96, 766.835 96 C 769.456 96, 772.140 95.460, 772.800 94.800 C 774.419 93.181, 774.474 52.716, 772.864 47.899 C 768.746 35.579, 753.912 32.340, 741.889 41.136 C 740.580 42.094, 739.580 41.781, 736.541 39.464 C 731.936 35.951, 723.493 35.073, 718.012 37.536 M 791 37.065 C 784.442 38.192, 782 40.614, 782 45.988 C 782 51.664, 783.787 52.604, 790.824 50.629 C 798.802 48.391, 807.141 48.484, 810.056 50.844 C 813.866 53.930, 812.044 55.733, 804.315 56.526 C 791.879 57.803, 783.723 61.739, 780.539 68 C 777.298 74.373, 777.688 83.756, 781.425 89.305 C 786.561 96.930, 799.544 99.827, 807.511 95.126 C 810.899 93.127, 811.413 93.064, 812.955 94.459 C 813.908 95.321, 816.470 96, 818.772 96 C 825.639 96, 826.007 94.771, 825.956 72.027 C 825.900 47.030, 824.796 43.514, 815.500 38.728 C 810.851 36.335, 799.664 35.575, 791 37.065 M 138.750 38.080 C 137.151 39.011, 137 41.452, 137 66.350 C 137 86.211, 137.325 93.925, 138.200 94.800 C 138.860 95.460, 141.544 96, 144.165 96 C 147.852 96, 149.164 95.563, 149.965 94.066 C 150.604 92.872, 151 81.977, 151 65.601 C 151 40.394, 150.903 39.019, 149.066 38.035 C 146.616 36.724, 141.036 36.749, 138.750 38.080 M 155.200 38.200 C 154.540 38.860, 154 40.106, 154 40.968 C 154 41.830, 158.275 53.734, 163.500 67.421 C 168.725 81.108, 173 92.431, 173 92.582 C 173 92.733, 173.707 93.564, 174.571 94.429 C 176.452 96.309, 182.975 96.506, 185.204 94.750 C 186.077 94.063, 191.199 81.407, 196.587 66.626 C 206.088 40.559, 206.324 39.709, 204.441 38.300 C 202.283 36.685, 195.825 37.070, 193.563 38.948 C 192.815 39.568, 189.616 47.507, 186.454 56.590 C 183.291 65.673, 180.376 72.743, 179.976 72.302 C 179.575 71.861, 177.659 67, 175.718 61.500 C 168.619 41.384, 167.995 40.049, 164.972 38.486 C 161.506 36.693, 156.843 36.557, 155.200 38.200 M 343.750 38.080 C 342.151 39.011, 342 41.452, 342 66.350 C 342 86.211, 342.325 93.925, 343.200 94.800 C 344.623 96.223, 351.862 96.372, 354 95.022 C 355.258 94.228, 355.548 89.858, 355.798 67.935 C 356.139 37.991, 355.923 36.976, 349.227 37.030 C 347.177 37.047, 344.712 37.519, 343.750 38.080 M 535.750 38.080 C 534.150 39.012, 534 41.480, 534 66.943 C 534 97.846, 533.563 96, 540.882 96 C 542.927 96, 545.140 95.460, 545.800 94.800 C 546.674 93.926, 547 86.244, 547 66.500 C 547 46.756, 546.674 39.074, 545.800 38.200 C 544.346 36.746, 538.168 36.672, 535.750 38.080 M 225.299 49.960 C 222.064 51.932, 218.551 57.217, 219.707 58.373 C 220.702 59.368, 241.820 59.100, 242.448 58.084 C 243.262 56.767, 241.421 52.421, 239.040 50.040 C 236.359 47.359, 229.629 47.319, 225.299 49.960 M 661.549 51.091 C 657.241 54.874, 655.601 60.283, 656.257 68.545 C 657.101 79.180, 661.404 85, 668.423 85 C 678.129 85, 683.769 73.836, 680.942 60.220 C 678.551 48.704, 669.253 44.327, 661.549 51.091 M 496.241 50.325 C 490.596 53.460, 488.109 62.479, 490.051 72.771 C 492.119 83.732, 497.637 86.618, 507.750 82.027 L 512 80.098 512 65.584 C 512 52.258, 511.842 50.986, 510.066 50.035 C 507.417 48.618, 498.998 48.794, 496.241 50.325 M 415.806 69.399 C 409.500 71.096, 407.997 72.538, 408.015 76.872 C 408.033 81.062, 408.663 82.260, 411.684 83.850 C 419.108 87.758, 428 81.081, 428 71.599 C 428 68.095, 427.901 68.002, 424.250 68.067 C 422.188 68.105, 418.388 68.704, 415.806 69.399 M 804.500 68.497 C 803.950 68.684, 801.787 69.123, 799.694 69.474 C 793.397 70.529, 790.372 75.593, 792.588 81.370 C 793.550 83.876, 799.288 85.269, 803.728 84.073 C 810.007 82.382, 812 79.826, 812 73.461 L 812 68 808.750 68.079 C 806.962 68.122, 805.050 68.311, 804.500 68.497 M 15.603 110.887 C 14.001 112.656, 13.917 126.158, 14.246 327.637 L 14.597 542.500 17.300 559.558 C 23.377 597.910, 32.653 626.329, 50.020 659.805 C 76.948 711.711, 120.977 756.696, 171.938 784.374 C 177.679 787.492, 182.629 790.295, 182.938 790.604 C 183.247 790.913, 183.725 823.191, 184 862.333 L 184.500 933.500 505.500 933.500 L 826.500 933.500 826.500 522 L 826.500 110.500 723.500 110.144 C 666.850 109.948, 573.025 109.601, 515 109.373 C 456.975 109.144, 400.050 109.372, 388.500 109.880 C 376.950 110.388, 367.050 110.438, 366.500 109.992 C 365.950 109.545, 339.625 109.406, 308 109.681 C 276.375 109.957, 249.488 110.099, 248.250 109.996 C 244.337 109.673, 217.105 109.493, 201 109.683 C 192.475 109.784, 178.977 109.646, 171.004 109.378 C 152.621 108.758, 153.121 108.349, 153.791 123.413 L 154.262 134 140.631 134 L 127 134 127 123.071 C 127 114.470, 126.665 111.808, 125.429 110.571 C 124.039 109.182, 117.681 109, 70.584 109 C 19.646 109, 17.235 109.083, 15.603 110.887 M 20.351 115.528 C 20.106 116.166, 20.075 212.271, 20.281 329.094 C 20.693 562.044, 20.315 547.211, 26.629 578 C 33.943 613.667, 49.984 651.915, 70.447 682.479 C 83.540 702.035, 91.091 711.200, 108.443 728.592 C 143.902 764.133, 175.729 783.637, 225 800.021 C 289.049 821.319, 348.451 821.156, 413.500 799.504 C 458.156 784.640, 493.092 762.972, 527.090 729.055 C 547.559 708.635, 560.989 691.307, 575.452 666.656 C 593.587 635.745, 607.271 595.949, 613.158 557 L 615.500 541.500 615.500 328 L 615.500 114.500 508.750 114.250 L 402 114.001 402 125.500 C 402 141.520, 402.671 141, 382 141 C 361.368 141, 362 141.482, 362 125.750 L 362 114.500 351.500 114.500 L 341 114.500 341 126.095 C 341 141.676, 341.883 141.004, 321.421 140.985 C 312.665 140.976, 304.825 140.544, 304 140.024 C 302.850 139.299, 302.383 136.239, 302 126.911 L 301.500 114.744 291.500 114.745 L 281.500 114.747 281.215 126.083 C 280.823 141.703, 281.743 141.004, 261.595 140.985 C 252.743 140.976, 244.825 140.544, 244 140.024 C 242.851 139.300, 242.383 136.243, 242 126.943 L 241.500 114.808 231.328 114.654 L 221.155 114.500 220.828 126.333 C 220.541 136.670, 220.255 138.344, 218.559 139.583 C 217.072 140.668, 212.811 141, 200.366 141 C 180.208 141, 181 141.633, 181 125.527 L 181 114.500 170.250 114.605 L 159.500 114.709 159.216 126.566 C 159.026 134.512, 158.532 138.678, 157.716 139.196 C 157.047 139.622, 148.978 139.976, 139.785 139.985 C 119.727 140.003, 120.805 140.854, 121.074 125.213 L 121.258 114.500 71.027 114.434 C 33.782 114.385, 20.681 114.668, 20.351 115.528 M 154.861 167.749 C 127.902 167.995, 124.058 168.226, 122.861 169.668 C 121.812 170.932, 121.504 175.862, 121.519 191.138 C 121.536 208.265, 121.765 211.193, 123.199 212.628 C 124.729 214.157, 135.615 214.296, 261.773 214.394 C 376.462 214.483, 398.956 214.277, 400.343 213.128 C 401.791 211.928, 402 209.061, 402 190.413 C 402 170.336, 401.885 169.009, 400.066 168.035 C 398.288 167.084, 247.190 166.908, 154.861 167.749 M 126.228 191.750 L 126.500 210.500 154.378 210.766 C 174.111 210.954, 182.657 210.699, 183.628 209.894 C 184.688 209.014, 185 205.048, 185 192.459 C 185 183.497, 184.727 175.452, 184.393 174.582 C 183.859 173.190, 180.315 173, 154.871 173 L 125.956 173 126.228 191.750 M 153.500 235.741 C 126.731 235.984, 123.365 236.195, 122.250 237.698 C 121.354 238.905, 121 244.709, 121 258.191 C 121 275.101, 121.185 277.185, 122.834 278.834 C 124.549 280.549, 128.071 280.712, 176.584 281.333 C 205.138 281.699, 266.588 281.998, 313.139 281.999 C 393.226 282, 397.898 281.903, 400.006 280.196 C 402.173 278.441, 402.236 277.840, 402.288 258.254 C 402.328 243.188, 402.016 237.724, 401.049 236.558 C 399.890 235.162, 388.509 235.024, 291.628 235.235 C 232.157 235.364, 170 235.592, 153.500 235.741 M 126.682 240.651 C 126.307 241.026, 126 249.358, 126 259.167 L 126 277 155.023 277 L 184.045 277 183.773 258.750 L 183.500 240.500 155.432 240.235 C 139.994 240.089, 127.057 240.276, 126.682 240.651 M 176.285 301.932 C 128.912 302.457, 124.936 302.634, 123.285 304.284 C 121.711 305.858, 121.469 308.414, 121.237 325.901 C 121.016 342.667, 121.211 345.930, 122.498 346.999 C 123.703 347.998, 152.448 348.371, 259.859 348.778 C 334.570 349.061, 396.860 349.001, 398.282 348.644 C 399.712 348.285, 401.201 346.991, 401.616 345.748 C 402.857 342.021, 402.031 304.677, 400.677 303.323 C 399.264 301.910, 257.437 301.031, 176.285 301.932 M 127.227 326.250 L 127.500 344.500 156 344.500 L 184.500 344.500 184.773 326.250 L 185.045 308 156 308 L 126.955 308 127.227 326.250 M 153.712 369.972 C 127.833 370.416, 122.774 370.739, 121.978 372 C 121.457 372.825, 121.024 382.163, 121.015 392.750 C 121.002 410.100, 121.181 412.181, 122.835 413.835 C 124.539 415.539, 127.876 415.716, 169.999 416.335 C 194.930 416.701, 256.585 417, 307.009 417 C 397.730 417, 398.709 416.979, 400.519 414.980 C 402.159 413.166, 402.355 410.848, 402.424 392.400 C 402.495 373.155, 402.376 371.751, 400.559 370.421 C 398.906 369.211, 382.739 369.033, 291.559 369.222 C 232.676 369.343, 170.646 369.681, 153.712 369.972 M 126.667 375.667 C 126.300 376.033, 126 384.583, 126 394.667 L 126 413 154.300 413 C 174.978 413, 182.923 412.677, 183.800 411.800 C 185.066 410.534, 185.585 379.688, 184.393 376.582 C 183.859 375.191, 180.376 375, 155.560 375 C 140.035 375, 127.033 375.300, 126.667 375.667 M 122.979 439.021 C 121.068 440.932, 120.973 442.112, 121.229 460.758 L 121.500 480.475 124.430 481.878 C 126.884 483.054, 149.336 483.364, 262.581 483.785 L 397.802 484.289 400.478 481.613 L 403.154 478.937 402.451 459.218 C 402.064 448.373, 401.299 438.938, 400.751 438.250 C 399.963 437.261, 371.082 437, 262.378 437 C 125.856 437, 124.987 437.013, 122.979 439.021 M 127.227 461.250 L 127.500 479.500 156 479.500 L 184.500 479.500 184.773 461.250 L 185.045 443 156 443 L 126.955 443 127.227 461.250 M 189 503.734 C 124.649 503.981, 124.496 503.987, 122.750 506.102 C 121.218 507.958, 121 510.610, 121 527.420 C 121 541.849, 121.332 547.071, 122.335 548.443 C 123.612 550.190, 129.513 550.288, 261.085 550.739 C 383.146 551.157, 398.723 551.040, 400.500 549.686 C 402.388 548.247, 402.500 546.986, 402.500 527.164 C 402.500 515.615, 402.198 505.865, 401.829 505.496 C 399.266 502.933, 398.489 502.926, 189 503.734 M 127 528.500 L 127 547 156 547 L 185 547 185 528.500 L 185 510 156 510 L 127 510 127 528.500 M 154.332 571.972 C 137.189 572.262, 122.801 572.863, 122.358 573.308 C 121.914 573.752, 121.377 582.977, 121.164 593.809 C 120.805 612.061, 120.917 613.675, 122.694 615.871 L 124.613 618.240 260.145 618.769 C 334.687 619.060, 396.797 619.017, 398.167 618.673 C 402.356 617.622, 403 614.388, 403 594.407 C 403 576.101, 402.975 575.884, 400.545 573.455 L 398.091 571 291.795 571.222 C 233.333 571.344, 171.474 571.681, 154.332 571.972 M 126 595.393 C 126 611.243, 126.219 613.870, 127.582 614.393 C 129.646 615.185, 180.354 615.185, 182.418 614.393 C 183.781 613.870, 184 611.243, 184 595.393 L 184 577 155 577 L 126 577 126 595.393 M 292.681 831.652 C 292.307 832.027, 292 834.050, 292 836.148 C 292 840.736, 292.438 840.896, 306 841.251 L 315.500 841.500 316 873.500 L 316.500 905.500 321.260 905.805 C 325.008 906.045, 326.160 905.747, 326.675 904.404 C 327.035 903.466, 327.368 889.305, 327.415 872.935 C 327.462 856.565, 327.873 842.796, 328.329 842.336 C 328.785 841.876, 334.185 841.275, 340.329 841 L 351.500 840.500 351.500 836 L 351.500 831.500 322.431 831.235 C 306.444 831.090, 293.056 831.277, 292.681 831.652 M 473.079 831.930 C 471.912 832.669, 473.840 839.151, 483.855 868.165 C 490.705 888.007, 496.783 904.048, 497.718 904.750 C 499.918 906.403, 506.464 906.351, 507.859 904.670 C 509.667 902.491, 533.104 833.714, 532.540 832.243 C 532.179 831.303, 530.565 830.983, 527.260 831.195 L 522.500 831.500 518.812 842.500 C 516.783 848.550, 512.719 860.925, 509.779 870 C 506.642 879.687, 503.919 886.500, 503.185 886.500 C 502.437 886.500, 498.486 876.059, 493.347 860.500 C 488.623 846.200, 484.068 833.712, 483.224 832.750 C 481.575 830.869, 475.528 830.380, 473.079 831.930 M 737.250 833.662 C 736.418 833.998, 736 836.492, 736 841.115 C 736 846.859, 735.697 848.156, 734.250 848.604 C 730.508 849.760, 729.546 850.800, 729.392 853.856 C 729.221 857.265, 730.066 858.225, 733.386 858.393 C 735.442 858.497, 735.514 859.026, 736 877.500 C 736.275 887.950, 736.904 897.175, 737.399 898 C 739.256 901.099, 742.584 904.245, 745 905.184 C 748.434 906.520, 759.894 906.333, 761.604 904.914 C 762.372 904.277, 763 901.968, 763 899.784 L 763 895.812 758.087 896.488 C 753.230 897.156, 749.429 896.093, 747.765 893.600 C 746.795 892.148, 746.781 859.022, 747.750 858.924 C 748.163 858.883, 751.500 858.770, 755.167 858.674 C 758.834 858.578, 762.060 858.274, 762.336 857.998 C 762.612 857.722, 763.132 856.324, 763.491 854.892 C 764.493 850.899, 761.920 849, 755.510 849 C 747.325 849, 747 848.717, 747 841.593 C 747 838.110, 746.475 834.875, 745.800 834.200 C 744.608 833.008, 739.644 832.696, 737.250 833.662 M 369.921 849.367 C 362.675 851.958, 358.886 856.048, 355.922 864.482 C 353.730 870.718, 353.375 881.632, 355.136 888.625 C 356.650 894.638, 364.486 903.257, 370.542 905.569 C 379.115 908.843, 392.044 905.410, 397.901 898.304 C 401.959 893.381, 403.515 887.077, 403.408 876 C 403.334 868.428, 402.887 865.664, 401.205 862.384 C 396.010 852.246, 389.616 848.029, 379.500 848.066 C 376.200 848.078, 371.890 848.663, 369.921 849.367 M 549.375 850.943 C 542.887 854.214, 538.930 858.729, 536.444 865.698 C 534.626 870.794, 534.652 882.466, 536.495 888.672 C 538.490 895.388, 544.675 902.323, 550.768 904.674 C 559.045 907.868, 573.789 906.732, 580.750 902.365 C 582.587 901.213, 583 900.051, 583 896.036 C 583 893.331, 582.639 890.895, 582.197 890.622 C 581.756 890.349, 579.240 891.527, 576.606 893.240 C 572.277 896.056, 571.037 896.362, 563.659 896.427 C 553.769 896.515, 551.149 895.099, 548.103 888.017 C 545.727 882.495, 545.402 879.034, 547.250 878.928 C 547.938 878.889, 555.863 878.704, 564.861 878.517 C 574.015 878.327, 581.666 877.734, 582.229 877.171 C 583.854 875.546, 582.663 862.953, 580.468 858.564 C 579.386 856.400, 576.773 853.251, 574.661 851.568 C 571.259 848.855, 569.951 848.470, 563.161 848.181 C 556.241 847.886, 554.908 848.154, 549.375 850.943 M 640 849.247 C 635.047 850.894, 626.710 859.560, 625.216 864.616 C 623.756 869.559, 623.626 883.115, 624.993 888.035 C 626.650 893.998, 631.407 900.488, 635.615 902.525 C 640.700 904.987, 649.282 904.996, 654.343 902.545 C 657.593 900.971, 658.330 900.901, 659.114 902.092 C 660.566 904.294, 659.109 910.250, 656.458 912.951 C 653.323 916.146, 643.718 916.947, 635.931 914.664 C 633.015 913.810, 630.263 913.337, 629.815 913.614 C 629.367 913.891, 629 916.101, 629 918.524 C 629 924.667, 630.798 925.475, 644.500 925.489 C 654.326 925.499, 655.952 925.241, 659.736 923.074 C 664.862 920.138, 668.543 915.053, 669.924 909 C 670.489 906.525, 670.962 892.518, 670.976 877.872 C 670.995 856.392, 670.732 851.023, 669.616 850.096 C 668.855 849.464, 665.817 849.009, 662.866 849.083 C 659.915 849.158, 654.350 848.964, 650.500 848.652 C 646.278 848.309, 642.111 848.546, 640 849.247 M 687.367 849.088 C 684.109 850.033, 683.039 852.065, 683.014 857.359 C 683.001 860.109, 683.144 860.195, 686.750 859.598 C 688.813 859.257, 694.178 858.703, 698.674 858.367 C 706.510 857.782, 706.954 857.864, 709.424 860.333 C 710.843 861.752, 712 864.053, 712 865.455 C 712 867.780, 711.632 868.002, 707.750 868.017 C 701.395 868.043, 690.306 870.648, 686.479 873.013 C 679.388 877.396, 676.297 887.252, 679.436 895.471 C 683.458 906.002, 695.909 909.898, 707.026 904.104 L 711.021 902.021 713.068 904.068 C 714.550 905.550, 716.132 906.029, 718.807 905.807 L 722.500 905.500 722.801 885 C 723.117 863.461, 722.571 859.267, 718.829 854.510 C 715.160 849.845, 709.691 848.035, 699.500 848.112 C 694.550 848.150, 689.090 848.589, 687.367 849.088 M 774.121 848.949 C 770.151 849.949, 769.036 851.390, 769.015 855.550 C 768.991 860.334, 770.346 860.981, 776.833 859.285 C 785.046 857.137, 794.702 857.913, 797.134 860.917 C 798.160 862.184, 799 864.232, 799 865.466 C 799 867.533, 798.423 867.758, 791.750 868.296 C 773.274 869.786, 765 876.131, 765 888.811 C 765 895.498, 768.410 901.732, 773.540 904.423 C 779.136 907.358, 788.215 907.251, 793.406 904.188 L 797.272 901.907 799.580 904.075 C 801.443 905.825, 802.584 906.113, 805.495 905.567 L 809.102 904.890 808.801 881.516 C 808.518 859.569, 808.371 857.969, 806.395 855.321 C 802.429 850.005, 798.518 848.554, 787.507 848.316 C 782.003 848.196, 775.979 848.482, 774.121 848.949 M 412.200 850.200 C 411.327 851.073, 411 858.665, 411 878.093 C 411 907.043, 410.795 906, 416.500 906 C 422.082 906, 422 906.297, 422 885.964 C 422 865.395, 421.936 865.636, 428.248 862.372 C 429.930 861.502, 433.368 860.496, 435.888 860.135 C 440.301 859.504, 440.494 859.333, 441.145 855.490 C 442.381 848.200, 437.630 847.165, 427.546 852.527 C 424.987 853.887, 422.749 855, 422.572 855 C 422.395 855, 421.980 853.650, 421.650 852 C 421.109 849.294, 420.675 849, 417.225 849 C 415.121 849, 412.860 849.540, 412.200 850.200 M 591.667 849.667 C 591.300 850.033, 591 862.419, 591 877.191 L 591 904.050 593.565 905.025 C 597.120 906.376, 598.607 906.250, 600.414 904.443 C 601.689 903.168, 601.858 901.308, 601.350 894.155 C 601.009 889.352, 601.060 881.030, 601.462 875.661 L 602.194 865.900 606.053 863.346 C 608.316 861.848, 612.102 860.525, 615.206 860.146 L 620.500 859.500 620.500 854.500 L 620.500 849.500 616.153 849.779 C 613.763 849.932, 609.957 851.002, 607.695 852.155 C 604.926 853.568, 603.460 853.879, 603.203 853.109 C 602.353 850.560, 599.655 849, 596.095 849 C 594.026 849, 592.033 849.300, 591.667 849.667 M 373 858.254 C 367.569 860.187, 364.511 867.157, 364.556 877.500 C 364.612 890.565, 369.379 897, 379 897 C 384.309 897, 388.562 894.747, 390.564 890.876 C 391.831 888.427, 392.094 885.319, 391.831 875.909 C 391.506 864.231, 391.450 863.983, 388.495 861.031 C 384.945 857.484, 378.439 856.318, 373 858.254 M 554.500 857.943 C 550.411 859.611, 546.884 864.198, 547.201 867.436 L 547.500 870.500 560 870.500 C 572.087 870.500, 572.510 870.428, 572.811 868.318 C 573.266 865.121, 570.398 860.257, 567.033 858.517 C 563.890 856.892, 557.764 856.611, 554.500 857.943 M 642.096 859.265 C 638.098 861.319, 635.919 865.301, 634.810 872.579 C 633.114 883.701, 637.001 892.963, 644.010 894.502 C 647.563 895.282, 657.189 892.683, 659.049 890.440 C 660.021 889.270, 660.302 885.184, 660.134 874.680 C 659.945 862.872, 659.632 860.291, 658.263 859.250 C 656.150 857.645, 645.229 857.655, 642.096 859.265 M 703 877.649 C 693.404 879.094, 689 882.564, 689 888.680 C 689 893.794, 692.663 897, 698.504 897 C 707.645 897, 712 892.337, 712 882.550 L 712 877 708.750 877.136 C 706.962 877.211, 704.375 877.442, 703 877.649 M 786.776 878.031 C 778.033 879.504, 773.528 884.997, 775.914 891.274 C 777.530 895.525, 781.243 897.327, 787.204 896.754 C 791.552 896.337, 792.903 895.682, 795.688 892.643 C 798.670 889.390, 799 888.429, 799 883.015 L 799 877 795.250 877.118 C 793.188 877.182, 789.374 877.593, 786.776 878.031" stroke="none" fill="#057a4e" fill-rule="evenodd"/></svg>